<svg xmlns="http://www.w3.org/2000/svg" width="460" height="361" fill="none" xmlns:v="https://vecta.io/nano"><rect x=".399" y=".399" width="459.201" height="360.174" rx="15.573" fill="#fff" stroke="url(#A)" stroke-width=".799"/><rect x="21" y="241" width="90" height="90" rx="20" fill="#f7f9fc"/><path d="M50.826 270.792l-1.46-.35.527-4.684h5.192v1.479h-3.688l-.228 2.05a2.93 2.93 0 0 1 .559-.228 2.59 2.59 0 0 1 .838-.127 3.17 3.17 0 0 1 1.193.209 2.37 2.37 0 0 1 .882.609c.245.267.432.593.559.978s.19.821.19 1.308a3.61 3.61 0 0 1-.19 1.174c-.127.368-.319.698-.578.99s-.582.514-.971.679-.851.248-1.384.248a3.77 3.77 0 0 1-1.155-.178 3.16 3.16 0 0 1-.997-.527c-.292-.232-.527-.514-.704-.844s-.265-.715-.273-1.142h1.815c.025.262.093.488.203.679.114.186.264.33.451.431a1.34 1.34 0 0 0 .654.153 1.24 1.24 0 0 0 .597-.134c.165-.088.298-.211.4-.368s.176-.347.222-.558a3.05 3.05 0 0 0 .076-.699 2.42 2.42 0 0 0-.089-.679 1.45 1.45 0 0 0-.273-.527c-.123-.148-.279-.262-.47-.342s-.404-.121-.654-.121c-.339 0-.601.053-.787.159s-.334.226-.457.362zm7.554 2.666l-.006 1.225c0 .469-.118.943-.355 1.421s-.529.87-.889 1.175l-.952-.489.311-.584a3.49 3.49 0 0 0 .254-.641c.068-.233.102-.497.102-.794v-1.313h1.536zm7.865-1.911v1.434h-6.659l-.089-1.11 3.853-6.113h1.454l-1.574 2.634-1.917 3.155h4.932zm-1.047-5.789V275h-1.828v-9.242h1.828zm8.258 3.808v1.6c0 .694-.074 1.293-.222 1.796s-.362.91-.641 1.232a2.53 2.53 0 0 1-.984.704c-.381.153-.804.229-1.27.229-.372 0-.719-.047-1.041-.14s-.611-.247-.87-.45a2.89 2.89 0 0 1-.66-.768c-.182-.314-.322-.686-.419-1.118s-.146-.926-.146-1.485v-1.6c0-.694.074-1.288.222-1.783s.366-.908.641-1.225.609-.551.99-.699.804-.228 1.269-.228c.372 0 .717.049 1.035.146a2.59 2.59 0 0 1 .87.438 2.61 2.61 0 0 1 .66.768c.182.309.322.679.419 1.111s.146.918.146 1.472zm-1.835 1.841v-2.088c0-.334-.019-.626-.057-.876a2.58 2.58 0 0 0-.159-.635 1.34 1.34 0 0 0-.267-.432c-.106-.11-.226-.19-.362-.241a1.27 1.27 0 0 0-.451-.076 1.21 1.21 0 0 0-.552.121c-.156.08-.29.209-.4.387s-.195.406-.254.698-.083.639-.083 1.054v2.088a6.75 6.75 0 0 0 .051.883 3.01 3.01 0 0 0 .165.653 1.6 1.6 0 0 0 .267.438c.106.11.226.191.362.242s.292.076.457.076c.203 0 .383-.04.54-.121s.296-.216.406-.393.199-.419.254-.711.082-.648.082-1.067zm9.299-1.841v1.6c0 .694-.074 1.293-.222 1.796s-.362.91-.641 1.232a2.53 2.53 0 0 1-.984.704c-.381.153-.804.229-1.27.229-.372 0-.719-.047-1.041-.14s-.612-.247-.87-.45a2.89 2.89 0 0 1-.66-.768c-.182-.314-.322-.686-.419-1.118s-.146-.926-.146-1.485v-1.6c0-.694.074-1.288.222-1.783s.366-.908.641-1.225.609-.551.99-.699.804-.228 1.269-.228c.372 0 .717.049 1.035.146s.612.239.87.438a2.61 2.61 0 0 1 .66.768c.182.309.322.679.419 1.111a6.66 6.66 0 0 1 .146 1.472zm-1.834 1.841v-2.088c0-.334-.019-.626-.057-.876a2.57 2.57 0 0 0-.159-.635c-.072-.178-.161-.322-.267-.432s-.226-.19-.362-.241a1.27 1.27 0 0 0-.451-.076 1.21 1.21 0 0 0-.552.121 1.02 1.02 0 0 0-.4.387c-.11.173-.195.406-.254.698s-.083.639-.083 1.054v2.088a6.77 6.77 0 0 0 .051.883c.038.253.093.471.165.653s.165.324.267.438.226.191.362.242.292.076.457.076c.203 0 .383-.04.54-.121s.296-.216.406-.393a2.05 2.05 0 0 0 .254-.711c.055-.292.083-.648.083-1.067z" fill="#000"/><rect x="132" y="241" width="90" height="90" rx="20" fill="#f7f9fc"/><path d="M166.428 273.572V275h-6.323v-1.219l2.99-3.205c.301-.335.538-.629.711-.883a3.45 3.45 0 0 0 .375-.692 1.64 1.64 0 0 0 .12-.59c0-.279-.046-.518-.139-.717a1.04 1.04 0 0 0-.413-.47c-.178-.11-.398-.165-.66-.165-.279 0-.521.068-.724.203s-.351.324-.457.565-.152.514-.152.819h-1.835c0-.55.132-1.054.394-1.511s.633-.827 1.111-1.098 1.045-.412 1.701-.412c.647 0 1.193.105 1.638.317s.787.508 1.015.901.349.855.349 1.397c0 .304-.048.603-.146.895a3.98 3.98 0 0 1-.419.863c-.177.284-.393.571-.647.863l-.844.908-1.606 1.803h3.961zm2.951-.114l-.006 1.225c0 .469-.118.943-.355 1.421s-.529.87-.889 1.175l-.952-.489.311-.584c.101-.195.186-.408.254-.641a2.87 2.87 0 0 0 .101-.794v-1.313h1.536zm3.263-3.873h.978c.313 0 .571-.052.774-.158a1.03 1.03 0 0 0 .451-.457 1.51 1.51 0 0 0 .152-.692c0-.237-.046-.447-.14-.629a.94.94 0 0 0-.412-.431c-.186-.106-.421-.159-.705-.159-.224 0-.431.045-.622.133a1.14 1.14 0 0 0-.457.375c-.114.161-.171.355-.171.584h-1.835c0-.508.136-.95.407-1.327a2.76 2.76 0 0 1 1.104-.882c.461-.212.969-.317 1.523-.317.627 0 1.175.101 1.644.304s.836.493 1.099.883.393.871.393 1.447c0 .292-.068.575-.203.85a2.38 2.38 0 0 1-.584.737c-.25.216-.554.389-.914.52s-.764.191-1.212.191h-1.27v-.972zm0 1.391v-.946h1.27c.503 0 .945.057 1.326.171s.701.279.959.495.453.464.584.756a2.3 2.3 0 0 1 .197.958 2.6 2.6 0 0 1-.248 1.155 2.42 2.42 0 0 1-.698.851c-.296.233-.643.41-1.041.533a4.53 4.53 0 0 1-1.302.178c-.389 0-.772-.053-1.148-.159s-.711-.273-1.016-.489a2.51 2.51 0 0 1-.724-.825c-.177-.334-.266-.73-.266-1.187h1.834c0 .237.059.449.178.635a1.23 1.23 0 0 0 .489.438c.208.106.446.159.704.159.292 0 .542-.053.749-.159s.373-.262.483-.457a1.4 1.4 0 0 0 .171-.692c0-.338-.061-.609-.184-.812s-.298-.36-.527-.457a2.07 2.07 0 0 0-.812-.146h-.978zm12.067.571v1.434h-6.659l-.089-1.11 3.853-6.113h1.454l-1.574 2.634-1.917 3.155h4.932zm-1.047-5.789V275h-1.829v-9.242h1.829zm3.332 7.852h.121c.508 0 .943-.061 1.307-.184s.671-.309.908-.546.413-.527.527-.87.171-.74.171-1.18v-1.752c0-.335-.034-.629-.101-.883s-.157-.463-.28-.628-.258-.296-.418-.381-.331-.127-.521-.127c-.203 0-.383.051-.54.152a1.3 1.3 0 0 0-.399.4c-.106.17-.189.364-.248.584a2.75 2.75 0 0 0-.083.68c0 .236.028.463.083.679s.138.4.248.565a1.29 1.29 0 0 0 .412.387 1.17 1.17 0 0 0 .584.14c.216 0 .409-.041.578-.121a1.37 1.37 0 0 0 .438-.33 1.49 1.49 0 0 0 .279-.451c.063-.165.102-.332.102-.501l.603.33c0 .296-.064.588-.191.876s-.304.55-.533.787-.485.419-.781.558a2.21 2.21 0 0 1-.952.21c-.432 0-.815-.078-1.149-.235a2.46 2.46 0 0 1-.85-.66 3 3 0 0 1-.521-.99 4.08 4.08 0 0 1-.178-1.225c0-.449.072-.87.216-1.264s.358-.74.629-1.041a2.94 2.94 0 0 1 .983-.704c.386-.174.813-.26 1.283-.26a2.96 2.96 0 0 1 1.282.272c.385.182.715.441.99.775s.487.726.635 1.187.228.973.228 1.536v.635c0 .601-.065 1.159-.196 1.676a4.98 4.98 0 0 1-.578 1.402 3.95 3.95 0 0 1-.952 1.067c-.377.296-.815.522-1.314.679s-1.058.235-1.676.235h-.146v-1.479zm-17.704 17.281V298h-.928v-7.109h.928zm2.285 0v.771h-5.493v-.771h5.493zm.191 4.526v-.112c0-.381.055-.734.166-1.06s.27-.613.478-.854a2.18 2.18 0 0 1 .757-.567 2.39 2.39 0 0 1 .996-.205c.368 0 .705.069 1.001.205s.553.322.762.567a2.47 2.47 0 0 1 .483.854c.111.326.166.679.166 1.06v.112c0 .381-.055.734-.166 1.06a2.54 2.54 0 0 1-.483.854 2.21 2.21 0 0 1-.757.566c-.293.134-.625.201-.996.201s-.705-.067-1.001-.201a2.26 2.26 0 0 1-.762-.566c-.208-.244-.368-.529-.478-.854a3.29 3.29 0 0 1-.166-1.06zm.903-.112v.112c0 .264.031.513.093.747a1.93 1.93 0 0 0 .278.615 1.38 1.38 0 0 0 .474.425c.189.104.408.151.659.151s.464-.05.649-.151a1.37 1.37 0 0 0 .469-.425c.124-.179.216-.384.278-.615a2.78 2.78 0 0 0 .098-.747v-.112a2.72 2.72 0 0 0-.098-.738c-.062-.234-.156-.441-.283-.62s-.28-.325-.469-.429-.403-.157-.654-.157-.465.052-.654.157a1.4 1.4 0 0 0-.469.429 1.96 1.96 0 0 0-.278.62c-.062.232-.093.477-.093.738zm7.251-2.588v.693h-2.857v-.693h2.857zm-1.89-1.284h.904v5.258c0 .179.027.315.083.406s.127.151.214.18a.9.9 0 0 0 .284.044c.075 0 .153-.006.234-.019l.19-.039.005.737c-.071.023-.166.044-.283.063a2.13 2.13 0 0 1-.415.035c-.221 0-.425-.044-.61-.132a.99.99 0 0 1-.445-.44c-.111-.205-.161-.488-.161-.839v-5.254zm6.065 5.664v-2.72a1.11 1.11 0 0 0-.127-.542.83.83 0 0 0-.371-.361c-.166-.085-.371-.127-.616-.127-.227 0-.428.039-.6.117a1.06 1.06 0 0 0-.401.307c-.094.127-.141.264-.141.411h-.903c0-.189.048-.376.146-.562a1.66 1.66 0 0 1 .42-.503c.186-.153.407-.273.664-.361a2.62 2.62 0 0 1 .869-.137c.384 0 .723.065 1.016.195a1.53 1.53 0 0 1 .693.591c.169.261.254.588.254.982v2.461c0 .175.015.363.044.561a2.2 2.2 0 0 0 .142.513V298h-.943c-.045-.104-.081-.243-.107-.415a3.36 3.36 0 0 1-.039-.488zm.156-2.3l.01.635h-.913a3.4 3.4 0 0 0-.689.063 1.56 1.56 0 0 0-.508.181.86.86 0 0 0-.312.307c-.072.121-.108.262-.108.425s.038.318.113.454a.82.82 0 0 0 .337.327c.15.081.34.118.561.118a1.49 1.49 0 0 0 .733-.176c.211-.117.379-.261.503-.43s.195-.333.205-.493l.385.435c-.022.136-.084.288-.185.454s-.236.325-.405.478a2.16 2.16 0 0 1-.596.376c-.231.101-.485.147-.772.147-.358 0-.672-.07-.942-.21a1.61 1.61 0 0 1-.625-.562 1.48 1.48 0 0 1-.22-.796c0-.283.056-.532.166-.747a1.44 1.44 0 0 1 .479-.542c.208-.146.459-.257.752-.332a3.96 3.96 0 0 1 .981-.112h1.05zm3.149-4.297v7.5h-.908v-7.5h.908zm-25.625 18.733V310h-3.764v-.767h3.764zm-3.574-6.342V310h-.942v-7.109h.942zm3.076 3.056v.767h-3.266v-.767h3.266zm.45-3.056v.771h-3.716v-.771h3.716zm1.982 2.954V310h-.903v-5.283h.854l.049 1.128zm-.215 1.313l-.376-.014c.003-.362.057-.695.161-1.001a2.53 2.53 0 0 1 .44-.806c.189-.228.413-.404.674-.527s.555-.191.874-.191c.26 0 .494.036.703.108a1.31 1.31 0 0 1 .532.332 1.51 1.51 0 0 1 .342.595c.078.244.117.536.117.884V310h-.908v-3.472c0-.276-.041-.498-.122-.664s-.201-.291-.357-.366a1.28 1.28 0 0 0-.576-.117c-.225 0-.43.047-.615.141a1.49 1.49 0 0 0-.474.391c-.13.166-.233.357-.307.571a2.04 2.04 0 0 0-.108.674zm8.164 4.873v-6.299l.078-1.015h.83v7.314h-.908zm-3.55-4.614v-.103a3.99 3.99 0 0 1 .142-1.098c.094-.332.233-.617.415-.855a1.87 1.87 0 0 1 .659-.547c.261-.13.557-.195.889-.195s.623.059.874.176a1.69 1.69 0 0 1 .644.503 2.48 2.48 0 0 1 .425.791c.104.309.176.659.215 1.05v.449c-.036.387-.106.736-.21 1.045a2.48 2.48 0 0 1-.425.791 1.75 1.75 0 0 1-.649.503c-.254.114-.549.171-.884.171-.325 0-.618-.067-.879-.201s-.477-.32-.659-.561-.317-.524-.415-.85a3.87 3.87 0 0 1-.142-1.069zm.909-.103v.103c0 .264.027.513.083.747a1.99 1.99 0 0 0 .254.615 1.33 1.33 0 0 0 .439.425c.179.101.391.151.635.151.299 0 .548-.065.747-.195a1.45 1.45 0 0 0 .483-.513c.121-.214.213-.444.279-.688v-1.177c-.036-.179-.093-.353-.171-.522a1.69 1.69 0 0 0-.293-.454c-.121-.137-.267-.244-.44-.323s-.368-.122-.595-.122c-.248 0-.461.052-.64.157a1.3 1.3 0 0 0-.444.429c-.114.179-.199.386-.254.62s-.083.484-.083.747zm8.232 1.465v-4.062h.908V310h-.864l-.044-1.221zm.171-1.113l.376-.01a4.07 4.07 0 0 1-.112.977 2.1 2.1 0 0 1-.352.771c-.163.218-.376.389-.64.513s-.584.181-.962.181c-.257 0-.493-.038-.708-.113a1.42 1.42 0 0 1-.546-.346c-.153-.157-.272-.36-.357-.611s-.122-.551-.122-.903v-3.408h.903v3.418c0 .237.026.434.079.591a.92.92 0 0 0 .219.366c.091.091.199.15.313.185a1.22 1.22 0 0 0 .361.054c.384 0 .689-.073.913-.22a1.25 1.25 0 0 0 .484-.6 2.29 2.29 0 0 0 .151-.845zm3.096-2.949V310h-.909v-5.283h.909zm-.977-1.402c0-.146.044-.27.132-.371s.225-.151.4-.151.305.05.396.151a.54.54 0 0 1 .141.371c0 .14-.047.261-.141.362s-.223.146-.396.146-.309-.049-.4-.146-.132-.222-.132-.362zm3.33 2.232V310h-.903v-5.283h.879l.024.83zm1.651-.859l-.005.839c-.075-.016-.147-.026-.215-.029l-.225-.01c-.208 0-.392.033-.552.098a1.15 1.15 0 0 0-.405.273c-.111.118-.198.258-.264.42s-.102.336-.122.528l-.253.146c0-.319.03-.618.092-.898a2.46 2.46 0 0 1 .298-.743 1.46 1.46 0 0 1 .508-.507c.208-.124.456-.186.742-.186a1.16 1.16 0 0 1 .225.025.65.65 0 0 1 .176.044zm1.816.029V310h-.908v-5.283h.908zm-.977-1.402c0-.146.044-.27.132-.371s.225-.151.401-.151.304.05.395.151a.52.52 0 0 1 .142.371.51.51 0 0 1-.142.362c-.091.097-.223.146-.395.146s-.31-.049-.401-.146-.132-.222-.132-.362zm4.62 6.783a2.59 2.59 0 0 1-1.001-.186c-.297-.127-.552-.304-.767-.532a2.36 2.36 0 0 1-.488-.811c-.114-.312-.171-.654-.171-1.025v-.205c0-.43.063-.812.19-1.148a2.57 2.57 0 0 1 .518-.859 2.21 2.21 0 0 1 .742-.532c.277-.121.563-.181.859-.181.378 0 .703.065.977.195a1.79 1.79 0 0 1 .679.547 2.34 2.34 0 0 1 .39.821c.085.312.127.654.127 1.025v.405h-3.945v-.737h3.042v-.068a2.24 2.24 0 0 0-.147-.684c-.081-.221-.211-.404-.39-.547s-.423-.215-.733-.215c-.205 0-.394.044-.566.132a1.24 1.24 0 0 0-.444.381c-.123.169-.22.376-.289.62a3.16 3.16 0 0 0-.102.845v.205c0 .251.034.487.102.708a1.83 1.83 0 0 0 .308.576c.137.166.301.296.493.391a1.49 1.49 0 0 0 .664.141c.319 0 .59-.065.811-.195s.415-.304.581-.522l.547.434c-.114.173-.259.337-.435.493a2.05 2.05 0 0 1-.649.381c-.254.098-.555.147-.903.147zm6.186-1.499c0-.131-.029-.251-.088-.362s-.171-.216-.347-.307-.432-.176-.781-.244c-.293-.062-.558-.136-.796-.22a2.41 2.41 0 0 1-.6-.308c-.163-.12-.288-.262-.376-.425a1.18 1.18 0 0 1-.132-.571c0-.208.045-.405.137-.591s.226-.35.395-.493a1.9 1.9 0 0 1 .62-.337 2.52 2.52 0 0 1 .806-.122c.423 0 .784.075 1.084.225s.529.35.688.6a1.49 1.49 0 0 1 .24.826h-.904c0-.147-.044-.289-.132-.425s-.209-.256-.375-.347-.363-.137-.601-.137c-.251 0-.454.039-.61.118a.77.77 0 0 0-.337.288c-.069.117-.103.24-.103.371a.67.67 0 0 0 .049.263.58.58 0 0 0 .186.21c.087.062.211.121.371.176a5.71 5.71 0 0 0 .61.166c.433.098.789.215 1.069.352s.489.304.625.503.205.439.205.722c0 .231-.048.443-.146.635a1.45 1.45 0 0 1-.415.498 2.02 2.02 0 0 1-.645.322 2.87 2.87 0 0 1-.835.113c-.465 0-.859-.083-1.181-.249s-.567-.381-.733-.645-.249-.542-.249-.835h.908c.013.248.085.444.215.591s.29.246.479.308a1.78 1.78 0 0 0 .561.087 1.71 1.71 0 0 0 .62-.097.86.86 0 0 0 .386-.269.62.62 0 0 0 .132-.39z" fill="#000"/><rect x="238" y="241" width="90" height="90" rx="20" fill="#f7f9fc"/><path d="M279.165 272.467c0 .58-.136 1.069-.407 1.467s-.643.691-1.117.895-1.003.298-1.599.298-1.132-.099-1.606-.298-.849-.502-1.124-.895c-.275-.398-.413-.887-.413-1.467 0-.389.079-.74.235-1.053a2.42 2.42 0 0 1 .654-.813 3.01 3.01 0 0 1 .997-.52 4.18 4.18 0 0 1 1.244-.185c.601 0 1.138.106 1.612.318s.846.51 1.117.895.407.838.407 1.358zm-1.841-.12c0-.284-.055-.527-.165-.73a1.11 1.11 0 0 0-.451-.476c-.195-.11-.421-.165-.679-.165s-.485.055-.679.165-.347.268-.457.476c-.106.203-.159.446-.159.73s.053.52.159.723.262.36.457.47.429.159.692.159.488-.053.679-.159a1.09 1.09 0 0 0 .444-.47c.106-.203.159-.444.159-.723zm1.644-4.139a2.15 2.15 0 0 1-.375 1.25c-.249.36-.596.642-1.041.845s-.943.304-1.51.304-1.08-.101-1.524-.304-.791-.485-1.041-.845a2.15 2.15 0 0 1-.374-1.25c0-.559.124-1.028.374-1.409s.601-.677 1.041-.876.948-.298 1.511-.298c.571 0 1.077.099 1.517.298a2.38 2.38 0 0 1 1.041.876c.25.385.381.85.381 1.409zm-1.828.083a1.46 1.46 0 0 0-.134-.648c-.089-.186-.215-.33-.381-.432-.16-.101-.359-.152-.596-.152-.229 0-.425.049-.591.146-.16.097-.285.239-.374.425s-.127.402-.127.661a1.61 1.61 0 0 0 .127.66c.089.186.216.332.381.438a1.08 1.08 0 0 0 .597.158c.233 0 .429-.053.59-.158s.29-.252.374-.438.134-.411.134-.66zm4.557 5.319h.121c.508 0 .944-.061 1.307-.184.369-.127.671-.309.908-.546s.413-.527.527-.87.171-.74.171-1.18v-1.752c0-.335-.033-.629-.101-.883a1.85 1.85 0 0 0-.279-.628c-.122-.165-.259-.296-.419-.381s-.33-.127-.521-.127a.97.97 0 0 0-.539.152c-.157.098-.29.231-.4.4s-.189.364-.248.584a2.59 2.59 0 0 0-.082.68 2.74 2.74 0 0 0 .082.679c.055.216.138.4.248.565a1.29 1.29 0 0 0 .412.387 1.17 1.17 0 0 0 .584.14c.216 0 .409-.041.578-.121a1.37 1.37 0 0 0 .438-.33 1.49 1.49 0 0 0 .279-.451c.068-.165.102-.332.102-.501l.603.33c0 .296-.064.588-.191.876s-.304.55-.533.787-.484.419-.781.558-.613.21-.952.21c-.431 0-.814-.078-1.149-.235a2.45 2.45 0 0 1-.85-.66 3 3 0 0 1-.521-.99 4.08 4.08 0 0 1-.178-1.225c0-.449.072-.87.216-1.264s.358-.74.629-1.041a2.93 2.93 0 0 1 .984-.704c.385-.174.812-.26 1.282-.26a2.96 2.96 0 0 1 1.282.272c.385.182.715.441.99.775s.487.726.635 1.187.229.973.229 1.536v.635c0 .601-.066 1.159-.197 1.676a4.98 4.98 0 0 1-.578 1.402 3.95 3.95 0 0 1-.952 1.067c-.377.296-.815.522-1.314.679s-1.058.235-1.676.235h-.146v-1.479zm8.043-4.025h.977c.313 0 .572-.052.775-.158s.353-.263.45-.457.153-.43.153-.692c0-.237-.047-.447-.14-.629a.94.94 0 0 0-.413-.431c-.186-.106-.421-.159-.704-.159-.224 0-.432.045-.622.133s-.343.214-.457.375-.172.355-.172.584h-1.834c0-.508.135-.95.406-1.327s.643-.671 1.105-.882a3.62 3.62 0 0 1 1.523-.317c.626 0 1.174.101 1.644.304s.836.493 1.098.883.394.871.394 1.447c0 .292-.068.575-.203.85s-.33.517-.584.737-.555.389-.914.52-.764.191-1.213.191h-1.269v-.972zm0 1.391v-.946h1.269c.504 0 .946.057 1.327.171s.7.279.958.495.453.464.584.756a2.3 2.3 0 0 1 .197.958 2.6 2.6 0 0 1-.247 1.155 2.41 2.41 0 0 1-.699.851c-.296.233-.643.41-1.041.533s-.831.178-1.301.178c-.389 0-.772-.053-1.149-.159s-.711-.273-1.015-.489a2.51 2.51 0 0 1-.724-.825c-.178-.334-.267-.73-.267-1.187h1.835c0 .237.059.449.178.635s.281.332.488.438.447.159.705.159c.292 0 .542-.053.749-.159a1.14 1.14 0 0 0 .482-.457c.115-.199.172-.43.172-.692 0-.338-.062-.609-.184-.812a1.09 1.09 0 0 0-.527-.457c-.229-.098-.5-.146-.813-.146h-.977zm-24.821 24.763h.937c-.048.449-.177.851-.385 1.206a2.25 2.25 0 0 1-.884.845c-.381.208-.856.308-1.426.308-.417 0-.796-.078-1.138-.235a2.53 2.53 0 0 1-.874-.664 3.09 3.09 0 0 1-.566-1.04c-.13-.407-.195-.859-.195-1.357v-.708c0-.498.065-.949.195-1.353a3.03 3.03 0 0 1 .571-1.045 2.57 2.57 0 0 1 .904-.669c.351-.156.747-.234 1.186-.234.537 0 .991.101 1.362.303a2.16 2.16 0 0 1 .865.84c.208.354.337.766.385 1.235h-.937c-.046-.332-.13-.617-.254-.855s-.299-.426-.527-.556-.526-.196-.894-.196a1.85 1.85 0 0 0-.835.181 1.68 1.68 0 0 0-.6.513 2.38 2.38 0 0 0-.362.796 4.06 4.06 0 0 0-.122 1.03v.718c0 .348.036.675.108.981s.187.575.337.806.34.413.571.547.504.195.82.195c.401 0 .72-.063.957-.19a1.25 1.25 0 0 0 .537-.547c.12-.237.212-.523.264-.855zm1.846-.322v-.112c0-.381.055-.734.166-1.06s.27-.613.478-.854a2.14 2.14 0 0 1 .757-.567c.296-.136.628-.205.996-.205s.705.069 1.001.205.553.322.762.567a2.47 2.47 0 0 1 .483.854c.111.326.166.679.166 1.06v.112c0 .381-.055.734-.166 1.06a2.54 2.54 0 0 1-.483.854 2.21 2.21 0 0 1-.757.566c-.293.134-.625.201-.996.201s-.705-.067-1.001-.201a2.26 2.26 0 0 1-.762-.566c-.208-.244-.368-.529-.478-.854a3.29 3.29 0 0 1-.166-1.06zm.903-.112v.112c0 .264.031.513.093.747a1.93 1.93 0 0 0 .278.615 1.38 1.38 0 0 0 .474.425c.189.104.408.151.659.151s.464-.05.649-.151a1.37 1.37 0 0 0 .469-.425 1.94 1.94 0 0 0 .278-.615 2.78 2.78 0 0 0 .098-.747v-.112a2.72 2.72 0 0 0-.098-.738c-.061-.234-.156-.441-.283-.62s-.28-.325-.469-.429-.403-.157-.654-.157-.465.052-.654.157a1.4 1.4 0 0 0-.469.429 1.96 1.96 0 0 0-.278.62c-.062.232-.093.477-.093.738zm5.942-1.46V298h-.903v-5.283h.855l.048 1.128zm-.214 1.313l-.376-.014c.003-.362.056-.695.161-1.001s.25-.578.439-.806.414-.404.674-.527a1.99 1.99 0 0 1 .874-.191c.26 0 .495.036.703.108a1.27 1.27 0 0 1 .532.332c.15.153.264.351.342.595s.117.536.117.884V298h-.908v-3.472c0-.276-.041-.498-.122-.664a.75.75 0 0 0-.356-.366c-.157-.078-.349-.117-.577-.117a1.33 1.33 0 0 0-.615.141c-.186.094-.34.225-.473.391a1.96 1.96 0 0 0-.308.571c-.072.212-.107.437-.107.674zM279.44 298h-.903v-5.742c0-.401.078-.739.234-1.016s.38-.486.669-.63.634-.215 1.031-.215a2.74 2.74 0 0 1 .688.088l.694.21-.152.762a4.7 4.7 0 0 0-.522-.166c-.196-.055-.41-.083-.645-.083-.387 0-.667.088-.84.264s-.254.434-.254.786V298zm1.08-5.283v.693h-2.818v-.693h2.818zm1.777 0V298h-.903v-5.283h.903zm2.388.83V298h-.904v-5.283h.879l.025.83zm1.65-.859l-.005.839a1.3 1.3 0 0 0-.215-.029l-.224-.01a1.45 1.45 0 0 0-.552.098 1.13 1.13 0 0 0-.405.273c-.111.118-.199.258-.264.42a2 2 0 0 0-.122.528l-.254.146c0-.319.031-.618.093-.898a2.36 2.36 0 0 1 .298-.743 1.48 1.48 0 0 1 .507-.507c.205-.12.456-.186.743-.186.065 0 .14.008.224.025a.64.64 0 0 1 .176.044zm1.733 1.079V298h-.908v-5.283h.86l.048 1.05zm-.185 1.391l-.42-.014a3.6 3.6 0 0 1 .141-1.001 2.39 2.39 0 0 1 .406-.806 1.79 1.79 0 0 1 .669-.527c.267-.127.576-.191.927-.191a2.08 2.08 0 0 1 .684.108c.208.068.389.177.542.327s.272.342.356.576.127.517.127.849V298h-.903v-3.477c0-.276-.047-.498-.141-.664s-.222-.286-.391-.361a1.46 1.46 0 0 0-.596-.117c-.267 0-.49.047-.669.141a1.13 1.13 0 0 0-.429.391c-.108.166-.186.357-.235.571s-.068.437-.068.674zm3.423-.498l-.606.186c.003-.29.051-.568.142-.835a2.25 2.25 0 0 1 .405-.713 1.92 1.92 0 0 1 .659-.493 2.06 2.06 0 0 1 .894-.186c.283 0 .534.038.752.112a1.36 1.36 0 0 1 .556.347 1.45 1.45 0 0 1 .347.591 2.8 2.8 0 0 1 .117.859V298h-.908v-3.481c0-.297-.047-.526-.142-.689a.74.74 0 0 0-.39-.347 1.57 1.57 0 0 0-.596-.102c-.198 0-.374.034-.527.102a1.08 1.08 0 0 0-.386.284 1.23 1.23 0 0 0-.239.405c-.052.153-.078.316-.078.488zm6.826 3.438a2.59 2.59 0 0 1-1.001-.186c-.296-.127-.552-.304-.767-.532s-.374-.498-.488-.811a2.97 2.97 0 0 1-.171-1.025v-.205c0-.43.064-.812.191-1.148s.299-.625.517-.859a2.22 2.22 0 0 1 .742-.532c.277-.121.563-.181.86-.181.377 0 .703.065.976.195a1.79 1.79 0 0 1 .679.547c.176.231.306.505.391.821s.127.654.127 1.025v.405h-3.946v-.737h3.042v-.068c-.013-.235-.062-.463-.146-.684a1.25 1.25 0 0 0-.391-.547c-.179-.143-.423-.215-.732-.215-.205 0-.394.044-.567.132a1.24 1.24 0 0 0-.444.381c-.124.169-.22.376-.288.62s-.103.526-.103.845v.205c0 .251.034.487.103.708a1.74 1.74 0 0 0 .307.576 1.49 1.49 0 0 0 .494.391 1.51 1.51 0 0 0 .664.141c.319 0 .589-.065.81-.195s.415-.304.581-.522l.547.434a2.53 2.53 0 0 1-.434.493c-.176.157-.393.284-.65.381a2.54 2.54 0 0 1-.903.147zm6.44-1.123V290.5h.908v7.5h-.83l-.078-1.025zm-3.554-1.558v-.103a3.84 3.84 0 0 1 .146-1.098c.101-.332.243-.617.425-.855s.405-.42.659-.547.544-.195.859-.195a2.02 2.02 0 0 1 .87.176c.25.114.462.281.634.503a2.59 2.59 0 0 1 .415.791c.101.309.171.659.21 1.05v.449c-.035.387-.105.736-.21 1.045s-.239.573-.415.791a1.77 1.77 0 0 1-.634.503c-.25.117-.544.171-.879.171a1.81 1.81 0 0 1-.85-.201 1.99 1.99 0 0 1-.659-.561c-.182-.241-.324-.524-.425-.85s-.146-.685-.146-1.069zm.908-.103v.103a3.37 3.37 0 0 0 .078.742c.055.231.14.435.254.611s.259.314.434.415.386.146.63.146c.3 0 .546-.063.738-.19a1.42 1.42 0 0 0 .468-.503 2.88 2.88 0 0 0 .274-.679v-1.177a2.59 2.59 0 0 0-.171-.517 1.61 1.61 0 0 0-.283-.45 1.23 1.23 0 0 0-.425-.317c-.166-.078-.363-.117-.591-.117-.247 0-.461.052-.64.156s-.32.241-.434.42-.199.381-.254.615-.078.479-.078.742zm-39.151 8.207L260.422 310h-.962l2.71-7.109h.62l-.015.63zm1.973 6.479l-2.358-6.479-.015-.63h.62l2.72 7.109h-.967zm-.122-2.632v.772h-3.994v-.772h3.994zm5.234 1.607V302.5h.909v7.5h-.831l-.078-1.025zm-3.554-1.558v-.103a3.84 3.84 0 0 1 .146-1.098c.101-.332.243-.617.425-.855s.405-.42.659-.547a1.88 1.88 0 0 1 .86-.195c.332 0 .621.059.869.176a1.71 1.71 0 0 1 .634.503 2.57 2.57 0 0 1 .415.791 5.04 5.04 0 0 1 .21 1.05v.449c-.035.387-.105.736-.21 1.045s-.239.573-.415.791a1.77 1.77 0 0 1-.634.503c-.25.117-.544.171-.879.171a1.81 1.81 0 0 1-.85-.201 1.99 1.99 0 0 1-.659-.561c-.182-.241-.324-.524-.425-.85s-.146-.685-.146-1.069zm.908-.103v.103a3.37 3.37 0 0 0 .078.742c.055.231.14.435.254.611s.259.314.434.415.386.146.63.146c.3 0 .546-.063.738-.19a1.42 1.42 0 0 0 .468-.503 2.88 2.88 0 0 0 .274-.679v-1.177a2.59 2.59 0 0 0-.171-.517 1.61 1.61 0 0 0-.283-.45 1.23 1.23 0 0 0-.425-.317c-.166-.078-.363-.117-.591-.117-.247 0-.46.052-.64.156s-.32.241-.434.42-.199.381-.254.615-.078.479-.078.742zm5.859-1.547V310h-.908v-5.283h.859l.049 1.05zm-.185 1.391l-.42-.014a3.6 3.6 0 0 1 .141-1.001 2.39 2.39 0 0 1 .406-.806 1.79 1.79 0 0 1 .669-.527c.267-.127.576-.191.927-.191a2.08 2.08 0 0 1 .684.108c.208.068.389.177.542.327s.272.342.356.576.127.517.127.849V310h-.903v-3.477c0-.276-.047-.498-.142-.664a.81.81 0 0 0-.39-.361c-.17-.078-.368-.117-.596-.117-.267 0-.49.047-.669.141a1.14 1.14 0 0 0-.43.391 1.78 1.78 0 0 0-.234.571c-.046.212-.068.437-.068.674zm3.423-.498l-.606.186c.003-.29.051-.568.142-.835a2.25 2.25 0 0 1 .405-.713 1.92 1.92 0 0 1 .659-.493c.261-.124.558-.186.894-.186.283 0 .534.038.752.112a1.36 1.36 0 0 1 .556.347 1.45 1.45 0 0 1 .347.591 2.8 2.8 0 0 1 .117.859V310h-.908v-3.481c0-.297-.047-.526-.142-.689a.74.74 0 0 0-.39-.347 1.57 1.57 0 0 0-.596-.102c-.199 0-.374.034-.527.102a1.08 1.08 0 0 0-.386.284 1.23 1.23 0 0 0-.239.405c-.052.153-.078.316-.078.488zm5.615-1.943V310h-.908v-5.283h.908zm-.977-1.402c0-.146.044-.27.132-.371s.225-.151.4-.151.305.05.396.151a.54.54 0 0 1 .142.371c0 .14-.048.261-.142.362s-.223.146-.396.146-.309-.049-.4-.146-.132-.222-.132-.362zm5.503 5.284c0-.131-.029-.251-.088-.362s-.171-.216-.346-.307-.433-.176-.782-.244c-.293-.062-.558-.136-.796-.22a2.41 2.41 0 0 1-.6-.308c-.163-.12-.288-.262-.376-.425a1.18 1.18 0 0 1-.132-.571 1.33 1.33 0 0 1 .137-.591c.094-.185.226-.35.395-.493a1.9 1.9 0 0 1 .62-.337 2.52 2.52 0 0 1 .806-.122c.423 0 .785.075 1.084.225s.529.35.688.6a1.49 1.49 0 0 1 .24.826h-.904a.78.78 0 0 0-.131-.425c-.085-.14-.21-.256-.376-.347s-.363-.137-.601-.137c-.251 0-.454.039-.61.118a.77.77 0 0 0-.337.288c-.069.117-.103.24-.103.371a.69.69 0 0 0 .049.263.58.58 0 0 0 .186.21c.087.062.211.121.371.176a5.71 5.71 0 0 0 .61.166c.433.098.789.215 1.069.352s.489.304.625.503.205.439.205.722c0 .231-.048.443-.146.635a1.45 1.45 0 0 1-.415.498 2.02 2.02 0 0 1-.645.322 2.87 2.87 0 0 1-.835.113c-.465 0-.859-.083-1.181-.249s-.567-.381-.733-.645-.249-.542-.249-.835h.909c.013.248.084.444.214.591s.29.246.479.308a1.78 1.78 0 0 0 .561.087c.248 0 .455-.032.621-.097a.88.88 0 0 0 .385-.269.62.62 0 0 0 .132-.39zm5.166 0c0-.131-.029-.251-.088-.362s-.171-.216-.346-.307-.433-.176-.782-.244c-.293-.062-.558-.136-.796-.22a2.41 2.41 0 0 1-.6-.308c-.163-.12-.288-.262-.376-.425a1.18 1.18 0 0 1-.132-.571 1.33 1.33 0 0 1 .137-.591c.094-.185.226-.35.395-.493a1.91 1.91 0 0 1 .62-.337 2.52 2.52 0 0 1 .806-.122c.423 0 .785.075 1.084.225s.529.35.689.6a1.5 1.5 0 0 1 .239.826h-.904a.77.77 0 0 0-.131-.425c-.085-.14-.21-.256-.376-.347s-.363-.137-.601-.137c-.251 0-.454.039-.61.118a.77.77 0 0 0-.337.288c-.069.117-.103.24-.103.371a.69.69 0 0 0 .049.263.58.58 0 0 0 .186.21 1.5 1.5 0 0 0 .371.176 5.71 5.71 0 0 0 .61.166c.433.098.789.215 1.069.352s.489.304.625.503.205.439.205.722c0 .231-.048.443-.146.635a1.45 1.45 0 0 1-.415.498 2.02 2.02 0 0 1-.645.322 2.87 2.87 0 0 1-.835.113c-.465 0-.859-.083-1.181-.249s-.567-.381-.733-.645-.249-.542-.249-.835h.909c.013.248.084.444.214.591s.29.246.479.308a1.78 1.78 0 0 0 .561.087c.248 0 .455-.032.621-.097a.88.88 0 0 0 .385-.269.62.62 0 0 0 .132-.39zm3.071-3.882V310h-.908v-5.283h.908zm-.976-1.402c0-.146.044-.27.132-.371s.224-.151.4-.151.304.05.396.151.141.225.141.371c0 .14-.047.261-.141.362s-.223.146-.396.146-.309-.049-.4-.146-.132-.222-.132-.362zm2.187 4.102v-.112c0-.381.056-.734.166-1.06s.271-.613.479-.854a2.18 2.18 0 0 1 .757-.567 2.39 2.39 0 0 1 .996-.205c.368 0 .705.069 1.001.205s.553.322.762.567.372.525.483.854a3.28 3.28 0 0 1 .166 1.06v.112c0 .381-.055.734-.166 1.06a2.55 2.55 0 0 1-.483.854 2.21 2.21 0 0 1-.757.566c-.293.134-.625.201-.996.201s-.705-.067-1.001-.201a2.25 2.25 0 0 1-.762-.566c-.208-.244-.368-.529-.479-.854s-.166-.679-.166-1.06zm.904-.112v.112a2.95 2.95 0 0 0 .092.747c.062.231.155.436.279.615s.285.321.473.425a1.38 1.38 0 0 0 .66.151c.247 0 .463-.05.649-.151a1.36 1.36 0 0 0 .469-.425c.124-.179.216-.384.278-.615a2.78 2.78 0 0 0 .098-.747v-.112a2.72 2.72 0 0 0-.098-.738c-.062-.234-.156-.441-.283-.62s-.28-.325-.469-.429-.403-.157-.654-.157a1.31 1.31 0 0 0-.654.157 1.4 1.4 0 0 0-.469.429 1.96 1.96 0 0 0-.279.62c-.061.232-.092.477-.092.738zm5.942-1.46V310h-.903v-5.283h.854l.049 1.128zm-.215 1.313l-.376-.014a3.2 3.2 0 0 1 .161-1.001c.105-.31.251-.578.44-.806s.413-.404.674-.527.555-.191.874-.191c.26 0 .495.036.703.108a1.27 1.27 0 0 1 .532.332c.15.153.264.351.342.595s.117.536.117.884V310h-.908v-3.472c0-.276-.041-.498-.122-.664a.76.76 0 0 0-.357-.366 1.28 1.28 0 0 0-.576-.117 1.34 1.34 0 0 0-.615.141 1.49 1.49 0 0 0-.474.391 1.98 1.98 0 0 0-.307.571c-.072.212-.108.437-.108.674z" fill="#000"/><rect x="345" y="241" width="90" height="90" rx="20" fill="#f7f9fc"/><path d="M374.931 268.075l-.324 1.231h-5.986l.33-1.231h5.98zM371.865 275l-3.06-3.625-.006-1.085h1.492c.347 0 .632-.068.856-.203a1.27 1.27 0 0 0 .502-.546 1.79 1.79 0 0 0 .165-.774c0-.297-.051-.559-.152-.788a1.13 1.13 0 0 0-.489-.533c-.224-.131-.523-.196-.895-.196h-1.651l.375-1.492h1.276c.762 0 1.396.114 1.904.343s.889.558 1.143.99.381.946.381 1.555c0 .533-.085 1.001-.254 1.403a2.3 2.3 0 0 1-.806.996c-.368.262-.853.441-1.454.546l2.755 3.32V275h-2.082zm3.078-9.242l-.33 1.225h-4.957l.33-1.225h4.957zm2.768 3.827h.977c.314 0 .572-.052.775-.158a1.03 1.03 0 0 0 .451-.457 1.51 1.51 0 0 0 .152-.692c0-.237-.047-.447-.14-.629s-.226-.33-.412-.431-.421-.159-.705-.159c-.224 0-.432.045-.622.133a1.14 1.14 0 0 0-.457.375c-.114.161-.171.355-.171.584h-1.835c0-.508.136-.95.406-1.327s.644-.671 1.105-.882.969-.317 1.523-.317c.627 0 1.175.101 1.644.304s.836.493 1.098.883.394.871.394 1.447c0 .292-.068.575-.203.85a2.38 2.38 0 0 1-.584.737c-.25.216-.554.389-.914.52s-.764.191-1.213.191h-1.269v-.972zm0 1.391v-.946h1.269c.504 0 .946.057 1.327.171s.7.279.959.495.452.464.584.756.196.607.196.958a2.6 2.6 0 0 1-.247 1.155 2.42 2.42 0 0 1-.698.851c-.297.233-.644.41-1.041.533a4.53 4.53 0 0 1-1.302.178c-.389 0-.772-.053-1.149-.159s-.711-.273-1.015-.489a2.51 2.51 0 0 1-.724-.825c-.178-.334-.266-.73-.266-1.187h1.834c0 .237.059.449.178.635s.281.332.488.438a1.54 1.54 0 0 0 .705.159c.292 0 .542-.053.749-.159s.373-.262.483-.457a1.4 1.4 0 0 0 .171-.692c0-.338-.061-.609-.184-.812a1.09 1.09 0 0 0-.527-.457c-.229-.098-.499-.146-.813-.146h-.977zm11.813-1.41v1.6c0 .694-.074 1.293-.222 1.796s-.362.91-.641 1.232-.603.552-.984.704-.804.229-1.27.229c-.372 0-.719-.047-1.041-.14s-.611-.247-.869-.45a2.82 2.82 0 0 1-.661-.768 3.97 3.97 0 0 1-.419-1.118c-.097-.431-.146-.926-.146-1.485v-1.6c0-.694.075-1.288.223-1.783s.366-.908.641-1.225.609-.551.99-.699a3.48 3.48 0 0 1 1.27-.228 3.52 3.52 0 0 1 1.034.146c.322.093.612.239.87.438s.478.455.66.768a3.88 3.88 0 0 1 .419 1.111c.097.432.146.918.146 1.472zm-1.835 1.841v-2.088c0-.334-.019-.626-.057-.876a2.58 2.58 0 0 0-.158-.635c-.072-.178-.161-.322-.267-.432a.97.97 0 0 0-.362-.241c-.135-.051-.285-.076-.45-.076-.208 0-.392.04-.553.121a1 1 0 0 0-.4.387c-.11.178-.194.406-.254.698s-.082.639-.082 1.054v2.088a6.73 6.73 0 0 0 .051.883 3 3 0 0 0 .165.653c.076.178.165.324.266.438a.98.98 0 0 0 .362.242 1.35 1.35 0 0 0 .457.076 1.16 1.16 0 0 0 .54-.121c.161-.085.296-.216.406-.393a2.1 2.1 0 0 0 .254-.711 5.88 5.88 0 0 0 .082-1.067zm3.244 2.711c0-.271.093-.498.279-.68s.443-.272.756-.272.563.091.749.272.285.409.285.68a.9.9 0 0 1-.285.679c-.186.182-.436.273-.749.273s-.565-.091-.756-.273a.91.91 0 0 1-.279-.679zm9.928-.546V275h-6.322v-1.219l2.989-3.205c.301-.335.538-.629.711-.883a3.4 3.4 0 0 0 .375-.692 1.64 1.64 0 0 0 .12-.59c0-.279-.046-.518-.139-.717a1.04 1.04 0 0 0-.413-.47c-.178-.11-.398-.165-.66-.165-.279 0-.521.068-.724.203s-.351.324-.457.565-.152.514-.152.819h-1.835c0-.55.132-1.054.394-1.511s.633-.827 1.111-1.098 1.045-.412 1.701-.412c.648 0 1.193.105 1.638.317s.787.508 1.015.901.349.855.349 1.397c0 .304-.048.603-.145.895a4.07 4.07 0 0 1-.419.863c-.178.284-.394.571-.648.863l-.844.908-1.606 1.803h3.961zm10.512-.057V275h-4.653v-1.485h4.653zm-4.038-7.757V275h-1.904v-9.242h1.904zm-35.58 29.454h-1.9v-.767h1.9c.368 0 .666-.058.893-.175s.394-.28.498-.489a1.58 1.58 0 0 0 .162-.713 1.51 1.51 0 0 0-.162-.688c-.104-.215-.27-.387-.498-.518s-.525-.2-.893-.2h-1.68V298h-.942v-7.109h2.622c.537 0 .991.092 1.362.278s.653.443.845.771.288.699.288 1.119c0 .455-.096.844-.288 1.167s-.474.568-.845.737-.825.249-1.362.249zm6.606 1.885v-2.72a1.1 1.1 0 0 0-.127-.542c-.081-.156-.205-.277-.371-.361a1.34 1.34 0 0 0-.615-.127c-.228 0-.428.039-.601.117s-.302.181-.4.307a.68.68 0 0 0-.142.411h-.903c0-.189.049-.376.147-.562s.237-.353.42-.503.406-.273.664-.361a2.62 2.62 0 0 1 .869-.137 2.48 2.48 0 0 1 1.015.195c.297.131.528.328.694.591s.254.588.254.982v2.461c0 .175.014.363.044.561s.079.37.141.513V298h-.942c-.046-.104-.082-.243-.108-.415a3.36 3.36 0 0 1-.039-.488zm.157-2.3l.009.635h-.913c-.257 0-.486.021-.688.063a1.56 1.56 0 0 0-.508.181c-.137.081-.241.184-.313.307s-.107.262-.107.425.037.318.112.454.188.246.337.327.34.118.562.118c.276 0 .521-.059.732-.176s.379-.261.503-.43.195-.333.205-.493l.386.435a1.32 1.32 0 0 1-.186.454 2.15 2.15 0 0 1-.405.478 2.17 2.17 0 0 1-.596.376 1.93 1.93 0 0 1-.771.147c-.358 0-.672-.07-.942-.21a1.58 1.58 0 0 1-.625-.562 1.48 1.48 0 0 1-.22-.796c0-.283.055-.532.166-.747a1.47 1.47 0 0 1 .478-.542c.208-.143.459-.257.752-.332s.62-.112.982-.112h1.05zm3.574 2.656l1.47-4.736h.966l-2.119 6.098a3.33 3.33 0 0 1-.195.42c-.078.153-.179.298-.303.435s-.273.247-.449.332a1.35 1.35 0 0 1-.62.132c-.072 0-.163-.01-.274-.03l-.234-.048-.005-.733.122.01.122.01c.205 0 .379-.028.523-.083a.81.81 0 0 0 .361-.269c.098-.127.187-.294.259-.512l.376-1.026zm-1.079-4.736l1.372 4.101.234.953-.649.332-1.944-5.386h.987zm5.229 1.05V298h-.908v-5.283h.859l.049 1.05zm-.185 1.391l-.42-.014a3.6 3.6 0 0 1 .141-1.001 2.37 2.37 0 0 1 .406-.806 1.79 1.79 0 0 1 .669-.527c.266-.127.576-.191.927-.191a2.08 2.08 0 0 1 .684.108c.208.068.389.177.542.327s.272.342.356.576.127.517.127.849V298h-.903v-3.477c0-.276-.047-.498-.142-.664a.81.81 0 0 0-.39-.361c-.17-.078-.368-.117-.596-.117-.267 0-.49.047-.669.141a1.14 1.14 0 0 0-.43.391 1.78 1.78 0 0 0-.234.571c-.046.212-.068.437-.068.674zm3.422-.498l-.605.186c.003-.29.05-.568.142-.835a2.25 2.25 0 0 1 .405-.713 1.92 1.92 0 0 1 .659-.493c.26-.124.558-.186.894-.186.283 0 .533.038.752.112a1.37 1.37 0 0 1 .556.347 1.45 1.45 0 0 1 .347.591 2.8 2.8 0 0 1 .117.859V298h-.908v-3.481c0-.297-.047-.526-.142-.689a.74.74 0 0 0-.39-.347 1.57 1.57 0 0 0-.596-.102c-.199 0-.374.034-.527.102a1.08 1.08 0 0 0-.386.284 1.23 1.23 0 0 0-.239.405 1.51 1.51 0 0 0-.079.488zm6.827 3.438a2.59 2.59 0 0 1-1.001-.186c-.297-.127-.552-.304-.767-.532a2.36 2.36 0 0 1-.488-.811c-.114-.312-.171-.654-.171-1.025v-.205c0-.43.063-.812.19-1.148a2.57 2.57 0 0 1 .518-.859 2.21 2.21 0 0 1 .742-.532c.277-.121.563-.181.859-.181.378 0 .704.065.977.195a1.79 1.79 0 0 1 .679.547c.176.231.306.505.39.821a3.96 3.96 0 0 1 .127 1.025v.405h-3.945v-.737h3.042v-.068c-.013-.235-.062-.463-.146-.684a1.25 1.25 0 0 0-.391-.547c-.179-.143-.423-.215-.733-.215a1.23 1.23 0 0 0-.566.132 1.21 1.21 0 0 0-.444.381c-.124.169-.22.376-.288.62s-.103.526-.103.845v.205c0 .251.034.487.103.708a1.74 1.74 0 0 0 .307.576c.133.166.301.296.493.391a1.49 1.49 0 0 0 .664.141c.32 0 .59-.065.811-.195s.415-.304.581-.522l.547.434c-.114.173-.259.337-.435.493a2.04 2.04 0 0 1-.649.381c-.254.098-.555.147-.903.147zm4.013-4.253V298h-.903v-5.283h.855l.048 1.128zm-.215 1.313l-.375-.014c.003-.362.056-.695.161-1.001s.25-.578.439-.806.414-.404.674-.527a1.99 1.99 0 0 1 .874-.191c.26 0 .495.036.703.108a1.27 1.27 0 0 1 .532.332c.15.153.264.351.342.595s.117.536.117.884V298h-.908v-3.472c0-.276-.041-.498-.122-.664a.75.75 0 0 0-.356-.366c-.157-.078-.349-.117-.577-.117a1.33 1.33 0 0 0-.615.141c-.186.094-.34.225-.473.391a1.96 1.96 0 0 0-.308.571c-.072.212-.108.437-.108.674zm7.051-2.441v.693h-2.856v-.693h2.856zm-1.889-1.284h.903v5.258c0 .179.028.315.083.406s.127.151.215.18a.87.87 0 0 0 .283.044c.075 0 .153-.006.234-.019l.191-.039.005.737a2.01 2.01 0 0 1-.284.063 2.12 2.12 0 0 1-.415.035c-.221 0-.424-.044-.61-.132s-.334-.235-.444-.44-.161-.488-.161-.839v-5.254zm6.025 5.166c0-.131-.029-.251-.088-.362s-.171-.216-.347-.307-.432-.176-.781-.244c-.293-.062-.558-.136-.796-.22a2.41 2.41 0 0 1-.6-.308c-.163-.12-.288-.262-.376-.425a1.18 1.18 0 0 1-.132-.571c0-.208.045-.405.137-.591s.226-.35.395-.493a1.9 1.9 0 0 1 .62-.337 2.52 2.52 0 0 1 .806-.122c.423 0 .784.075 1.084.225s.529.35.688.6a1.49 1.49 0 0 1 .24.826h-.904c0-.147-.044-.289-.132-.425a.96.96 0 0 0-.376-.347 1.21 1.21 0 0 0-.6-.137c-.251 0-.454.039-.61.118a.77.77 0 0 0-.337.288c-.069.117-.103.24-.103.371a.67.67 0 0 0 .049.263c.036.075.098.145.185.21s.212.121.372.176a5.71 5.71 0 0 0 .61.166c.433.098.789.215 1.069.352s.489.304.625.503.205.439.205.722c0 .231-.048.443-.146.635a1.45 1.45 0 0 1-.415.498 2.02 2.02 0 0 1-.645.322 2.87 2.87 0 0 1-.835.113c-.465 0-.859-.083-1.181-.249s-.567-.381-.733-.645-.249-.542-.249-.835h.908c.013.248.085.444.215.591a1.1 1.1 0 0 0 .479.308c.189.058.376.087.561.087a1.71 1.71 0 0 0 .62-.097.86.86 0 0 0 .386-.269.62.62 0 0 0 .132-.39zm-37.949 11.14h.937a3 3 0 0 1-.385 1.206c-.209.355-.503.637-.884.845s-.856.308-1.426.308c-.417 0-.796-.078-1.138-.235a2.52 2.52 0 0 1-.874-.664 3.09 3.09 0 0 1-.566-1.04c-.13-.407-.195-.859-.195-1.357v-.708c0-.498.065-.949.195-1.353a3.03 3.03 0 0 1 .571-1.045c.247-.29.552-.512.903-.669a2.9 2.9 0 0 1 1.187-.234c.537 0 .991.101 1.362.303a2.17 2.17 0 0 1 .865.84 3.03 3.03 0 0 1 .385 1.235h-.937c-.046-.332-.13-.617-.254-.855a1.33 1.33 0 0 0-.527-.556c-.228-.13-.526-.196-.894-.196a1.85 1.85 0 0 0-.835.181 1.68 1.68 0 0 0-.601.513c-.159.221-.28.486-.361.796a4.06 4.06 0 0 0-.122 1.03v.718a4.33 4.33 0 0 0 .107.981c.075.306.188.575.337.806a1.68 1.68 0 0 0 .572.547c.231.13.504.195.82.195.4 0 .719-.063.957-.19s.417-.31.537-.547.212-.523.264-.855zm1.846-.322v-.112c0-.381.055-.734.166-1.06s.27-.613.478-.854a2.18 2.18 0 0 1 .757-.567 2.39 2.39 0 0 1 .996-.205c.368 0 .705.069 1.001.205s.553.322.762.567.372.525.483.854a3.28 3.28 0 0 1 .166 1.06v.112c0 .381-.055.734-.166 1.06a2.55 2.55 0 0 1-.483.854 2.21 2.21 0 0 1-.757.566c-.293.134-.625.201-.996.201s-.705-.067-1.001-.201a2.26 2.26 0 0 1-.762-.566c-.208-.244-.368-.529-.478-.854a3.29 3.29 0 0 1-.166-1.06zm.903-.112v.112c0 .264.031.513.093.747a1.94 1.94 0 0 0 .278.615c.127.179.285.321.474.425s.408.151.659.151.464-.05.649-.151a1.37 1.37 0 0 0 .469-.425c.124-.179.216-.384.278-.615a2.78 2.78 0 0 0 .098-.747v-.112a2.72 2.72 0 0 0-.098-.738c-.062-.234-.156-.441-.283-.62s-.28-.325-.469-.429-.403-.157-.654-.157a1.31 1.31 0 0 0-.654.157 1.4 1.4 0 0 0-.469.429c-.124.179-.217.386-.278.62s-.093.477-.093.738zm6.02-4.805v7.5h-.908v-7.5h.908zm2.432 0v7.5h-.908v-7.5h.908zm3.643 7.598a2.59 2.59 0 0 1-1.001-.186c-.297-.127-.552-.304-.767-.532a2.36 2.36 0 0 1-.488-.811c-.114-.312-.171-.654-.171-1.025v-.205c0-.43.063-.812.19-1.148a2.57 2.57 0 0 1 .518-.859 2.21 2.21 0 0 1 .742-.532c.277-.121.563-.181.859-.181.378 0 .703.065.977.195a1.79 1.79 0 0 1 .679.547 2.34 2.34 0 0 1 .39.821c.085.312.127.654.127 1.025v.405h-3.945v-.737h3.042v-.068a2.24 2.24 0 0 0-.147-.684c-.081-.221-.211-.404-.39-.547s-.423-.215-.733-.215c-.205 0-.394.044-.566.132a1.24 1.24 0 0 0-.444.381c-.123.169-.22.376-.288.62s-.103.526-.103.845v.205c0 .251.034.487.103.708a1.74 1.74 0 0 0 .307.576c.133.166.301.296.493.391a1.49 1.49 0 0 0 .664.141c.319 0 .59-.065.811-.195s.415-.304.581-.522l.547.434c-.114.173-.259.337-.435.493a2.05 2.05 0 0 1-.649.381c-.254.098-.555.147-.903.147zm5.224-.743a1.35 1.35 0 0 0 .596-.131 1.23 1.23 0 0 0 .449-.362 1 1 0 0 0 .2-.532h.86a1.61 1.61 0 0 1-.318.874c-.192.267-.444.484-.757.65a2.2 2.2 0 0 1-1.03.244 2.41 2.41 0 0 1-1.04-.21 2.06 2.06 0 0 1-.732-.576 2.6 2.6 0 0 1-.435-.84 3.56 3.56 0 0 1-.141-1.011v-.205a3.51 3.51 0 0 1 .141-1.006c.098-.319.243-.601.435-.845a2.06 2.06 0 0 1 .732-.576 2.41 2.41 0 0 1 1.04-.21c.414 0 .775.085 1.084.254a1.89 1.89 0 0 1 .728.684c.176.29.276.612.293.976h-.86c-.016-.218-.078-.415-.185-.591a1.17 1.17 0 0 0-.43-.42c-.179-.107-.389-.161-.63-.161-.277 0-.509.056-.698.166a1.21 1.21 0 0 0-.444.44 2.03 2.03 0 0 0-.235.61c-.049.224-.068.448-.068.679v.205a3.48 3.48 0 0 0 .068.684c.046.224.122.428.23.61a1.26 1.26 0 0 0 .444.439c.189.108.423.161.703.161zm5.332-4.638v.693h-2.856v-.693h2.856zm-1.889-1.284h.903v5.258c0 .179.028.315.083.406s.127.151.215.18a.87.87 0 0 0 .283.044c.075 0 .153-.006.234-.019l.191-.039.005.737a2.01 2.01 0 0 1-.284.063 2.13 2.13 0 0 1-.415.035c-.221 0-.424-.044-.61-.132s-.334-.235-.444-.44-.161-.488-.161-.839v-5.254zm3.93 1.284V310h-.908v-5.283h.908zm-.976-1.402a.55.55 0 0 1 .131-.371c.092-.101.225-.151.401-.151s.304.05.395.151a.52.52 0 0 1 .142.371.51.51 0 0 1-.142.362c-.091.097-.223.146-.395.146s-.309-.049-.401-.146-.131-.222-.131-.362zm2.187 4.102v-.112c0-.381.055-.734.166-1.06a2.51 2.51 0 0 1 .479-.854c.208-.245.46-.433.757-.567s.628-.205.996-.205.704.069 1.001.205a2.12 2.12 0 0 1 .761.567 2.47 2.47 0 0 1 .484.854c.11.326.166.679.166 1.06v.112c0 .381-.056.734-.166 1.06a2.51 2.51 0 0 1-.484.854c-.212.244-.46.43-.757.566s-.625.201-.996.201-.704-.067-1.001-.201a2.21 2.21 0 0 1-.761-.566c-.211-.241-.368-.529-.479-.854s-.166-.679-.166-1.06zm.903-.112v.112c0 .264.031.513.093.747s.155.436.279.615.284.321.473.425.409.151.659.151a1.34 1.34 0 0 0 .65-.151c.189-.104.345-.246.469-.425s.216-.384.278-.615a2.78 2.78 0 0 0 .098-.747v-.112a2.72 2.72 0 0 0-.098-.738c-.062-.234-.156-.441-.283-.62s-.28-.325-.469-.429-.404-.157-.654-.157a1.32 1.32 0 0 0-.655.157 1.38 1.38 0 0 0-.468.429 1.96 1.96 0 0 0-.279.62c-.062.232-.093.477-.093.738zm5.943-1.46V310h-.903v-5.283h.854l.049 1.128zm-.215 1.313l-.376-.014c.003-.362.057-.695.161-1.001a2.53 2.53 0 0 1 .44-.806 1.94 1.94 0 0 1 .673-.527 1.99 1.99 0 0 1 .874-.191 2.15 2.15 0 0 1 .704.108c.208.068.385.179.532.332a1.52 1.52 0 0 1 .342.595c.079.244.117.536.117.884V310h-.908v-3.472c0-.276-.041-.498-.122-.664s-.201-.291-.357-.366a1.28 1.28 0 0 0-.576-.117c-.225 0-.43.047-.615.141a1.48 1.48 0 0 0-.474.391c-.13.166-.233.357-.308.571a2.11 2.11 0 0 0-.107.674z" fill="#000"/><path d="M25 70.412h409.712" stroke="#ededed" stroke-width=".496"/><g fill="#000"><path d="M174.598 31.953l-2.549 7.395h-1.541l3.211-8.531h.984l-.105 1.137zm2.132 7.395l-2.554-7.395-.112-1.137h.991l3.222 8.531h-1.547zm-.123-3.164v1.166h-4.64v-1.166h4.64zm6.352 1.852v-7.687h1.418v9h-1.283l-.135-1.312zm-4.125-1.787v-.123c0-.48.057-.918.17-1.312s.277-.74.492-1.025a2.17 2.17 0 0 1 .785-.662 2.28 2.28 0 0 1 1.043-.234c.383 0 .719.074 1.008.223s.535.361.738.639.366.602.487.984a6.42 6.42 0 0 1 .257 1.266v.392a6.29 6.29 0 0 1-.257 1.242 3.34 3.34 0 0 1-.487.973 2.1 2.1 0 0 1-.744.633c-.289.148-.627.223-1.014.223a2.22 2.22 0 0 1-1.037-.24 2.3 2.3 0 0 1-.779-.674c-.215-.289-.379-.629-.492-1.02s-.17-.822-.17-1.283zm1.412-.123v.123c0 .289.025.559.076.809a2.24 2.24 0 0 0 .252.662 1.3 1.3 0 0 0 .44.445c.183.105.402.158.656.158.32 0 .584-.07.791-.211s.369-.33.486-.568.203-.512.246-.809v-1.061a2.58 2.58 0 0 0-.146-.645 1.72 1.72 0 0 0-.287-.521c-.121-.152-.272-.27-.451-.352s-.385-.129-.627-.129c-.258 0-.477.055-.657.164s-.328.26-.445.451-.197.414-.252.668-.082.525-.082.814zm7.02-1.828v5.051h-1.412v-6.34h1.33l.082 1.289zm-.229 1.647l-.48-.006c0-.437.054-.842.164-1.213s.269-.693.48-.967.473-.49.785-.639a2.5 2.5 0 0 1 1.096-.229c.289 0 .553.043.791.129a1.57 1.57 0 0 1 .627.393c.18.18.316.41.41.691s.147.621.147 1.02v4.225h-1.412v-4.102c0-.309-.047-.551-.141-.727a.78.78 0 0 0-.393-.375 1.42 1.42 0 0 0-.603-.117 1.41 1.41 0 0 0-.68.152 1.28 1.28 0 0 0-.451.416c-.117.176-.203.379-.258.609s-.082.477-.082.738zm3.932-.375l-.662.146a3.62 3.62 0 0 1 .158-1.084c.109-.344.267-.645.474-.902s.471-.467.78-.615.662-.223 1.06-.223c.325 0 .614.045.867.135a1.59 1.59 0 0 1 .657.41c.179.188.316.432.41.732s.141.656.141 1.078v4.102h-1.418V35.24c0-.32-.047-.568-.141-.744a.73.73 0 0 0-.387-.363c-.168-.07-.369-.105-.603-.105-.219 0-.412.041-.58.123a1.15 1.15 0 0 0-.416.334c-.114.141-.2.303-.258.486s-.082.383-.082.598zm6.849-2.561v6.34H196.4v-6.34h1.418zm-1.511-1.664a.72.72 0 0 1 .211-.533c.144-.145.343-.217.597-.217s.447.072.592.217a.71.71 0 0 1 .217.533c0 .211-.072.387-.217.527s-.342.211-.592.211-.453-.07-.597-.211-.211-.316-.211-.527zm6.615 6.287a.7.7 0 0 0-.106-.381c-.07-.117-.205-.223-.404-.316s-.484-.18-.867-.258a7.46 7.46 0 0 1-.926-.264c-.277-.105-.515-.232-.715-.381s-.353-.324-.463-.527-.164-.437-.164-.703a1.64 1.64 0 0 1 .17-.732c.114-.23.276-.434.487-.609s.466-.315.767-.416.645-.152 1.02-.152c.531 0 .986.09 1.365.27s.676.416.879.721a1.78 1.78 0 0 1 .305 1.02h-1.413a.91.91 0 0 0-.503-.826c-.168-.094-.379-.141-.633-.141-.242 0-.444.039-.604.117s-.273.172-.351.293a.74.74 0 0 0-.112.398c0 .105.02.201.059.287s.113.158.211.229.23.129.398.188a5.71 5.71 0 0 0 .645.17c.484.102.9.233 1.248.393s.621.359.808.609.282.559.282.938a1.66 1.66 0 0 1-.182.773 1.75 1.75 0 0 1-.516.604c-.226.168-.498.299-.814.393s-.664.141-1.055.141c-.574 0-1.06-.102-1.459-.305s-.701-.471-.908-.791-.305-.66-.305-1.008h1.366c.015.262.088.471.216.627.133.152.297.264.493.334a1.93 1.93 0 0 0 .615.1c.254 0 .467-.033.639-.1s.302-.164.392-.281a.67.67 0 0 0 .135-.41zm6.176 0a.71.71 0 0 0-.106-.381c-.07-.117-.205-.223-.404-.316s-.484-.18-.867-.258a7.46 7.46 0 0 1-.926-.264 2.94 2.94 0 0 1-.715-.381c-.199-.148-.353-.324-.463-.527s-.164-.437-.164-.703a1.64 1.64 0 0 1 .17-.732 1.85 1.85 0 0 1 .486-.609c.211-.176.467-.315.768-.416s.644-.152 1.019-.152c.532 0 .987.09 1.366.27s.676.416.879.721a1.78 1.78 0 0 1 .304 1.02h-1.412a.9.9 0 0 0-.129-.469c-.082-.148-.207-.268-.375-.357s-.379-.141-.633-.141c-.242 0-.443.039-.603.117s-.273.172-.352.293a.75.75 0 0 0-.111.398c0 .105.02.201.059.287s.113.158.211.229.23.129.398.188a5.71 5.71 0 0 0 .645.17c.484.102.9.233 1.248.393s.621.359.808.609.281.559.281.938a1.66 1.66 0 0 1-.181.773 1.75 1.75 0 0 1-.516.604c-.226.168-.498.299-.814.393s-.664.141-1.055.141c-.574 0-1.06-.102-1.459-.305s-.701-.471-.908-.791-.305-.66-.305-1.008h1.365c.016.262.088.471.217.627s.297.264.492.334a1.94 1.94 0 0 0 .616.1c.254 0 .466-.033.638-.1a.92.92 0 0 0 .393-.281.67.67 0 0 0 .135-.41zm4.131-4.623v6.34h-1.418v-6.34h1.418zm-1.512-1.664a.72.72 0 0 1 .211-.533c.144-.145.343-.217.597-.217s.448.072.592.217a.71.71 0 0 1 .217.533c0 .211-.072.387-.217.527s-.342.211-.592.211-.453-.07-.597-.211-.211-.316-.211-.527zm2.789 4.904v-.135a3.92 3.92 0 0 1 .199-1.272c.133-.394.324-.736.574-1.025s.563-.52.926-.68.781-.246 1.242-.246.879.082 1.242.246.678.387.932.68a2.97 2.97 0 0 1 .58 1.025 3.92 3.92 0 0 1 .199 1.272v.135a3.92 3.92 0 0 1-.199 1.271c-.133.391-.326.733-.58 1.025a2.68 2.68 0 0 1-.926.68c-.363.16-.775.24-1.236.24a3.09 3.09 0 0 1-1.248-.24 2.69 2.69 0 0 1-.926-.68c-.254-.293-.447-.635-.58-1.025a3.92 3.92 0 0 1-.199-1.271zm1.412-.135v.135c0 .285.029.555.088.809s.15.477.275.668a1.36 1.36 0 0 0 .481.451c.195.109.427.164.697.164.262 0 .488-.055.68-.164s.355-.26.48-.451.217-.414.276-.668a3.4 3.4 0 0 0 .093-.809v-.135a3.3 3.3 0 0 0-.093-.797c-.059-.254-.153-.478-.282-.674s-.285-.348-.48-.457-.42-.17-.686-.17-.496.057-.691.17-.35.262-.475.457a2.11 2.11 0 0 0-.275.674 3.46 3.46 0 0 0-.088.797zm7.066-1.752v4.986h-1.412v-6.34h1.33l.082 1.353zm-.252 1.582l-.457-.006a4.13 4.13 0 0 1 .188-1.236 3.04 3.04 0 0 1 .516-.967 2.27 2.27 0 0 1 .796-.621c.309-.148.653-.223 1.032-.223.304 0 .58.043.826.129s.463.217.638.404c.18.188.317.432.411.733s.14.662.14 1.096v4.096h-1.418v-4.102c0-.305-.045-.545-.134-.721s-.213-.307-.381-.381-.369-.117-.616-.117c-.242 0-.459.051-.65.152s-.353.24-.486.416-.229.379-.299.609a2.53 2.53 0 0 0-.106.738zm11.139 3.404h-1.822l.012-1.166h1.81c.527 0 .969-.115 1.324-.346.36-.23.629-.56.809-.99s.275-.941.275-1.535v-.463c0-.461-.052-.869-.158-1.225s-.254-.654-.457-.896a1.91 1.91 0 0 0-.738-.551c-.289-.125-.623-.187-1.002-.187h-1.91v-1.172h1.91c.566 0 1.084.096 1.553.287a3.4 3.4 0 0 1 1.212.814c.344.355.608.781.791 1.277s.276 1.051.276 1.664v.451c0 .613-.092 1.168-.276 1.664s-.447.922-.791 1.277-.753.623-1.23.814-1.002.281-1.588.281zm-1.008-8.531v8.531h-1.47v-8.531h1.47zm9.803 7.26v-3.023c0-.227-.041-.422-.123-.586a.86.86 0 0 0-.375-.381c-.164-.09-.371-.135-.621-.135-.231 0-.43.039-.598.117a.96.96 0 0 0-.392.316.76.76 0 0 0-.141.451h-1.406c0-.25.06-.492.181-.727s.297-.443.528-.627.506-.328.826-.434.68-.158 1.078-.158c.477 0 .898.08 1.266.24s.662.402.873.727.322.723.322 1.207v2.818c0 .289.02.549.059.779s.103.424.181.592v.094h-1.447a2.52 2.52 0 0 1-.158-.58 4.76 4.76 0 0 1-.053-.691zm.205-2.584l.012.873h-1.014c-.262 0-.492.025-.691.076s-.366.117-.498.211a.91.91 0 0 0-.299.34c-.067.133-.1.283-.1.451a.94.94 0 0 0 .117.463.83.83 0 0 0 .34.322c.153.078.336.117.551.117.289 0 .541-.059.756-.176s.391-.268.516-.439.191-.342.199-.498l.457.627a2.16 2.16 0 0 1-.24.516c-.114.184-.262.359-.446.527s-.396.299-.65.404-.539.158-.867.158c-.414 0-.784-.082-1.108-.246s-.578-.393-.761-.674-.276-.607-.276-.967c0-.336.063-.633.188-.891s.316-.48.562-.656.555-.309.914-.398a4.9 4.9 0 0 1 1.231-.141h1.107zm6.246 2.139a.71.71 0 0 0-.105-.381c-.071-.117-.205-.223-.405-.316s-.484-.18-.867-.258a7.51 7.51 0 0 1-.926-.264c-.277-.105-.515-.232-.714-.381a1.59 1.59 0 0 1-.463-.527c-.11-.203-.164-.437-.164-.703a1.63 1.63 0 0 1 .17-.732 1.85 1.85 0 0 1 .486-.609c.211-.176.467-.315.767-.416.305-.102.645-.152 1.02-.152.531 0 .986.09 1.365.27s.676.416.879.721a1.78 1.78 0 0 1 .305 1.02h-1.412a.9.9 0 0 0-.129-.469c-.082-.148-.207-.268-.375-.357s-.379-.141-.633-.141c-.242 0-.443.039-.604.117s-.273.172-.351.293a.75.75 0 0 0-.111.398c0 .105.019.201.058.287s.113.158.211.229.231.129.399.188a5.63 5.63 0 0 0 .644.17c.484.102.9.233 1.248.393s.621.359.809.609.281.559.281.938a1.66 1.66 0 0 1-.182.773c-.117.231-.289.432-.515.604a2.59 2.59 0 0 1-.815.393 3.66 3.66 0 0 1-1.054.141c-.575 0-1.061-.102-1.459-.305s-.702-.471-.909-.791-.304-.66-.304-1.008h1.365c.016.262.088.471.217.627s.297.264.492.334a1.93 1.93 0 0 0 .615.1c.254 0 .467-.033.639-.1a.91.91 0 0 0 .392-.281.67.67 0 0 0 .135-.41zm4.014-7.283v9h-1.406v-9h1.406zm-.246 5.596l-.457-.006c.004-.437.064-.842.181-1.213s.289-.693.504-.967a2.25 2.25 0 0 1 .785-.639c.305-.152.643-.229 1.014-.229.313 0 .594.043.844.129s.473.225.656.416.322.434.416.738.147.668.147 1.102v4.072h-1.418v-4.084c0-.305-.045-.547-.135-.727a.78.78 0 0 0-.381-.387c-.168-.082-.373-.123-.615-.123-.254 0-.479.051-.674.152a1.41 1.41 0 0 0-.481.416c-.128.176-.226.379-.292.609a2.79 2.79 0 0 0-.094.738zm5.525-5.596h1.412v7.646l-.134 1.354h-1.278v-9zm5.549 5.771v.123c0 .469-.053.9-.158 1.295s-.258.73-.469 1.02-.465.514-.773.674-.659.234-1.061.234c-.394 0-.738-.074-1.031-.223s-.539-.359-.738-.633a3.49 3.49 0 0 1-.475-.978c-.121-.379-.207-.797-.258-1.254v-.393c.051-.461.137-.879.258-1.254s.279-.705.475-.978a2.04 2.04 0 0 1 .732-.639c.293-.148.635-.223 1.025-.223.407 0 .764.078 1.073.234s.572.379.779.668a2.99 2.99 0 0 1 .463 1.02c.105.395.158.83.158 1.307zm-1.412.123v-.123c0-.285-.024-.553-.07-.803s-.125-.477-.235-.668-.25-.342-.433-.451-.405-.17-.674-.17c-.25 0-.465.043-.645.129a1.3 1.3 0 0 0-.451.352c-.121.148-.217.32-.287.516a2.94 2.94 0 0 0-.135.633v1.06a2.69 2.69 0 0 0 .223.809 1.5 1.5 0 0 0 .492.586c.211.145.482.217.814.217.262 0 .483-.053.663-.158s.322-.252.427-.439.188-.414.235-.668.076-.527.076-.82zm2.338.006v-.135a3.92 3.92 0 0 1 .199-1.272c.133-.394.324-.736.574-1.025s.563-.52.926-.68.781-.246 1.242-.246.879.082 1.242.246.678.387.932.68a2.97 2.97 0 0 1 .58 1.025 3.92 3.92 0 0 1 .199 1.272v.135a3.92 3.92 0 0 1-.199 1.271c-.133.391-.326.733-.58 1.025a2.68 2.68 0 0 1-.926.68c-.363.16-.775.24-1.236.24a3.09 3.09 0 0 1-1.248-.24 2.69 2.69 0 0 1-.926-.68c-.254-.293-.447-.635-.58-1.025a3.92 3.92 0 0 1-.199-1.271zm1.412-.135v.135c0 .285.029.555.088.809s.15.477.275.668a1.36 1.36 0 0 0 .481.451c.195.109.427.164.697.164.262 0 .488-.055.68-.164s.355-.26.48-.451.217-.414.275-.668a3.35 3.35 0 0 0 .094-.809v-.135a3.25 3.25 0 0 0-.094-.797 2.03 2.03 0 0 0-.281-.674c-.125-.195-.285-.348-.48-.457s-.42-.17-.686-.17-.496.057-.691.17-.35.262-.475.457a2.11 2.11 0 0 0-.275.674 3.46 3.46 0 0 0-.088.797zm9.24 1.963v-3.023c0-.227-.041-.422-.123-.586a.86.86 0 0 0-.375-.381c-.164-.09-.371-.135-.621-.135-.23 0-.43.039-.598.117a.96.96 0 0 0-.392.316.76.76 0 0 0-.141.451h-1.406c0-.25.06-.492.181-.727a1.95 1.95 0 0 1 .528-.627c.23-.184.506-.328.826-.434s.68-.158 1.078-.158c.477 0 .899.08 1.266.24s.662.402.873.727.322.723.322 1.207v2.818c0 .289.02.549.059.779s.103.424.181.592v.094h-1.447a2.52 2.52 0 0 1-.158-.58 4.76 4.76 0 0 1-.053-.691zm.205-2.584l.012.873h-1.014c-.261 0-.492.025-.691.076s-.365.117-.498.211a.91.91 0 0 0-.299.34 1 1 0 0 0-.1.451.93.93 0 0 0 .118.463.82.82 0 0 0 .339.322c.153.078.336.117.551.117.289 0 .541-.059.756-.176s.391-.268.516-.439.191-.342.199-.498l.457.627a2.16 2.16 0 0 1-.24.516c-.114.184-.262.359-.446.527-.179.164-.396.299-.65.404s-.539.158-.867.158c-.414 0-.783-.082-1.108-.246s-.578-.393-.761-.674-.276-.607-.276-.967c0-.336.063-.633.188-.891s.316-.48.562-.656.555-.309.914-.398a4.9 4.9 0 0 1 1.231-.141h1.107zm4.108-1.277v5.133h-1.412v-6.34h1.347l.065 1.207zm1.939-1.248l-.012 1.313c-.086-.016-.179-.027-.281-.035l-.293-.012c-.242 0-.455.035-.639.105s-.337.164-.462.293-.215.277-.282.457-.105.381-.117.603l-.322.023c0-.398.039-.768.117-1.107s.195-.639.352-.897.359-.459.597-.603.522-.217.838-.217a1.75 1.75 0 0 1 .276.024c.101.016.177.033.228.053zm4.635 5.068v-7.687h1.418v9h-1.283l-.135-1.312zm-4.125-1.787v-.123a4.72 4.72 0 0 1 .17-1.312c.113-.398.277-.74.492-1.025a2.17 2.17 0 0 1 .785-.662c.309-.156.656-.234 1.043-.234s.719.074 1.008.223.535.361.738.639a3.31 3.31 0 0 1 .486.984c.122.379.208.801.258 1.266v.392c-.05.453-.136.867-.258 1.242s-.283.699-.486.973a2.1 2.1 0 0 1-.744.633c-.289.148-.627.223-1.014.223a2.22 2.22 0 0 1-1.037-.24 2.3 2.3 0 0 1-.779-.674c-.215-.289-.379-.629-.492-1.02s-.17-.822-.17-1.283zm1.412-.123v.123c0 .289.025.559.076.809a2.24 2.24 0 0 0 .252.662c.113.188.26.336.44.445s.402.158.656.158c.32 0 .584-.07.791-.211s.369-.33.486-.568.203-.512.246-.809v-1.061a2.58 2.58 0 0 0-.146-.645c-.071-.199-.166-.373-.287-.521a1.21 1.21 0 0 0-.452-.352c-.175-.086-.384-.129-.627-.129-.257 0-.476.055-.656.164s-.328.26-.445.451-.197.414-.252.668-.082.525-.082.814z"/><path d="M30.625 221.803c0-.176-.027-.332-.082-.469s-.143-.262-.275-.375-.32-.223-.562-.328c-.238-.11-.543-.221-.914-.334a10.21 10.21 0 0 1-1.125-.416c-.34-.156-.637-.336-.891-.539s-.451-.444-.592-.709c-.141-.27-.211-.58-.211-.932a2.07 2.07 0 0 1 .217-.949c.148-.285.357-.531.627-.738s.596-.373.967-.487.781-.175 1.23-.175c.633 0 1.178.117 1.635.351s.815.549 1.061.943.375.831.375 1.307h-1.459a1.49 1.49 0 0 0-.182-.744 1.23 1.23 0 0 0-.539-.516c-.238-.125-.541-.187-.908-.187-.348 0-.637.053-.867.158s-.402.248-.516.428-.17.383-.17.609a.89.89 0 0 0 .111.44 1.22 1.22 0 0 0 .34.363c.152.109.344.213.574.31a7.17 7.17 0 0 0 .814.282c.473.14.885.297 1.236.468a3.56 3.56 0 0 1 .879.575c.234.215.41.459.527.732s.176.576.176.92c0 .359-.072.684-.217.973a2.1 2.1 0 0 1-.621.732 2.97 2.97 0 0 1-.961.463c-.371.105-.785.158-1.242.158-.41 0-.814-.055-1.213-.164a3.56 3.56 0 0 1-1.078-.498 2.57 2.57 0 0 1-.773-.844c-.191-.34-.287-.736-.287-1.189h1.471c0 .277.047.514.141.709a1.31 1.31 0 0 0 .404.48c.172.121.371.211.598.27s.477.088.738.088c.344 0 .631-.049.861-.147a1.13 1.13 0 0 0 .527-.41c.117-.176.176-.379.176-.609zm5.543-4.143v1.031h-3.574v-1.031h3.574zm-2.543-1.553h1.412v6.141c0 .195.027.346.082.451s.139.17.24.205.221.053.357.053a2.12 2.12 0 0 0 .281-.018l.217-.035.006 1.078a3.36 3.36 0 0 1-.41.094 2.95 2.95 0 0 1-.527.041c-.324 0-.611-.056-.861-.17s-.445-.306-.586-.568-.211-.609-.211-1.043v-6.229zm7.207 6.622v-3.024c0-.226-.041-.422-.123-.586s-.207-.291-.375-.381-.371-.134-.621-.134c-.23 0-.43.039-.598.117s-.299.183-.392.316-.141.283-.141.451h-1.406a1.56 1.56 0 0 1 .182-.726 1.93 1.93 0 0 1 .527-.627c.23-.184.506-.328.826-.434a3.45 3.45 0 0 1 1.078-.158c.477 0 .898.08 1.266.24s.662.403.873.727.322.722.322 1.207v2.818a4.68 4.68 0 0 0 .059.779c.043.227.104.424.182.592V224h-1.447c-.066-.152-.119-.346-.158-.58a4.73 4.73 0 0 1-.053-.691zm.205-2.584l.012.873h-1.014c-.262 0-.492.025-.691.076s-.365.117-.498.211a.91.91 0 0 0-.299.34c-.066.132-.1.283-.1.451s.039.322.117.463.191.244.34.322.336.117.551.117c.289 0 .541-.059.756-.176a1.55 1.55 0 0 0 .516-.439c.125-.176.191-.342.199-.498l.457.627c-.047.16-.127.332-.24.515a2.49 2.49 0 0 1-.445.528c-.18.164-.396.299-.65.404s-.539.158-.867.158c-.414 0-.783-.082-1.107-.246s-.578-.392-.762-.674-.275-.607-.275-.967c0-.335.063-.632.188-.89s.316-.481.563-.656.555-.309.914-.399a4.88 4.88 0 0 1 1.23-.14h1.107zm5.596-2.485v1.031h-3.574v-1.031h3.574zm-2.543-1.553h1.412v6.141c0 .195.027.346.082.451s.139.17.24.205.221.053.357.053c.098 0 .191-.006.281-.018l.217-.035.006 1.078a3.36 3.36 0 0 1-.41.094 2.95 2.95 0 0 1-.527.041c-.324 0-.611-.056-.861-.17s-.445-.306-.586-.568-.211-.609-.211-1.043v-6.229zm5.145 1.553V224h-1.418v-6.34h1.418zm-1.512-1.664c0-.215.07-.392.211-.533s.344-.217.598-.217.447.072.592.217a.71.71 0 0 1 .217.533c0 .211-.072.387-.217.527s-.342.211-.592.211-.453-.07-.598-.211-.211-.316-.211-.527zm6.615 6.287a.71.71 0 0 0-.105-.381c-.07-.117-.205-.222-.404-.316s-.484-.18-.867-.258c-.336-.074-.645-.162-.926-.264s-.516-.232-.715-.38-.354-.325-.463-.528-.164-.437-.164-.703c0-.258.057-.502.17-.732s.275-.434.486-.61a2.39 2.39 0 0 1 .768-.416c.305-.101.645-.152 1.02-.152.531 0 .986.09 1.365.269s.676.417.879.721a1.78 1.78 0 0 1 .305 1.02h-1.412a.9.9 0 0 0-.129-.469c-.082-.148-.207-.268-.375-.357s-.379-.141-.633-.141c-.242 0-.443.039-.603.117s-.273.172-.352.293a.75.75 0 0 0-.111.399c0 .105.019.201.059.287s.113.158.211.228.231.129.399.188.387.115.645.17a5.86 5.86 0 0 1 1.248.392c.352.156.621.36.809.61s.281.558.281.937c0 .281-.06.539-.182.773s-.289.432-.516.604-.498.299-.814.393-.664.14-1.055.14c-.574 0-1.06-.101-1.459-.305s-.701-.47-.908-.791-.305-.66-.305-1.007h1.365c.016.261.088.47.217.627s.297.263.492.334.404.099.615.099c.254 0 .467-.033.639-.099s.303-.164.393-.282a.67.67 0 0 0 .135-.41zm5.525-4.623v1.031h-3.574v-1.031h3.574zm-2.543-1.553h1.412v6.141c0 .195.027.346.082.451s.139.17.24.205.221.053.357.053c.098 0 .191-.006.281-.018l.217-.035.006 1.078c-.117.036-.254.067-.41.094a2.95 2.95 0 0 1-.527.041c-.324 0-.611-.056-.861-.17s-.445-.306-.586-.568-.211-.609-.211-1.043v-6.229zm5.144 1.553V224h-1.418v-6.34h1.418zm-1.512-1.664c0-.215.07-.392.211-.533s.344-.217.598-.217.447.072.592.217.217.318.217.533-.072.387-.217.527-.342.211-.592.211-.453-.07-.598-.211-.211-.316-.211-.527zm5.649 6.996c.23 0 .438-.045.621-.135a1.17 1.17 0 0 0 .451-.386c.117-.164.182-.354.193-.569h1.33c-.008.41-.129.784-.363 1.119s-.545.604-.932.803-.814.293-1.283.293c-.484 0-.906-.082-1.266-.246a2.5 2.5 0 0 1-.897-.691c-.238-.293-.418-.631-.539-1.014s-.176-.793-.176-1.23v-.206c0-.437.059-.847.176-1.23s.301-.727.539-1.02.537-.521.897-.685.779-.252 1.26-.252c.508 0 .953.102 1.336.305s.684.478.902.838c.223.355.338.769.346 1.242h-1.33c-.012-.235-.07-.446-.176-.633a1.16 1.16 0 0 0-.434-.457c-.184-.113-.404-.17-.662-.17-.285 0-.521.059-.709.176a1.18 1.18 0 0 0-.439.468c-.105.196-.182.417-.228.663a4.31 4.31 0 0 0-.064.755v.206c0 .261.021.515.064.761s.117.467.223.662a1.29 1.29 0 0 0 .445.463c.188.114.426.17.715.17zm7.236-.709a.71.71 0 0 0-.106-.381c-.07-.117-.205-.222-.404-.316s-.484-.18-.867-.258c-.336-.074-.644-.162-.926-.264s-.516-.232-.715-.38-.353-.325-.463-.528-.164-.437-.164-.703c0-.258.057-.502.17-.732s.275-.434.486-.61a2.39 2.39 0 0 1 .768-.416c.305-.101.645-.152 1.02-.152.531 0 .986.09 1.365.269s.676.417.879.721a1.78 1.78 0 0 1 .305 1.02h-1.412a.9.9 0 0 0-.129-.469c-.082-.148-.207-.268-.375-.357s-.379-.141-.633-.141c-.242 0-.443.039-.604.117s-.273.172-.352.293a.75.75 0 0 0-.111.399c0 .105.019.201.059.287s.113.158.211.228.231.129.398.188.387.115.645.17a5.86 5.86 0 0 1 1.248.392c.352.156.621.36.809.61s.281.558.281.937c0 .281-.06.539-.182.773s-.289.432-.516.604-.498.299-.814.393-.664.14-1.055.14c-.574 0-1.061-.101-1.459-.305s-.701-.47-.908-.791-.305-.66-.305-1.007h1.365c.016.261.088.47.217.627s.297.263.492.334.404.099.615.099c.254 0 .467-.033.639-.099s.303-.164.393-.282a.67.67 0 0 0 .135-.41z"/></g><circle cx="18.369" cy="18.368" r="2.396" fill="#ff5f57"/><circle cx="27.517" cy="18.368" r="2.396" fill="#febc2e"/><circle cx="36.665" cy="18.368" r="2.396" fill="#28c840"/><g fill="#1da1f2"><rect opacity=".1" x="25" y="95" width="90" height="90" rx="20"/><path d="M78 122h-8c-.55 0-1 .45-1 1v1.61l5.01 4.51c.63.56.99 1.38.99 2.23v.65h2v2h-2v2h2v2h-2v2h3c.55 0 1-.45 1-1v-16c0-.55-.45-1-1-1zm-5 4h-2v-2h2v2zm4 4h-2v-2h2v2zm0-4h-2v-2h2v2zm-4 13v-7.65a1 1 0 0 0-.33-.74l-5-4.5a.96.96 0 0 0-.67-.26 1.01 1.01 0 0 0-.67.26l-5 4.5a.97.97 0 0 0-.33.74V139c0 .55.45 1 1 1h2c.55 0 1-.45 1-1v-4h4v4c0 .55.45 1 1 1h2c.55 0 1-.45 1-1z"/></g><g fill="#000"><path d="M39.031 150.891V158h-.942v-7.109h.942zm2.48 2.954V158h-.903v-5.283h.854l.049 1.128zm-.215 1.313l-.376-.014c.003-.362.057-.695.161-1.001s.251-.578.44-.806.413-.404.674-.527.555-.191.874-.191c.261 0 .495.036.703.108a1.27 1.27 0 0 1 .532.332c.15.153.264.351.342.595s.117.536.117.884V158h-.908v-3.472c0-.276-.041-.498-.122-.664a.75.75 0 0 0-.356-.366c-.156-.078-.348-.117-.576-.117s-.43.047-.615.141a1.48 1.48 0 0 0-.474.391c-.13.166-.233.357-.308.571s-.107.437-.107.674zm7.915 1.441a.76.76 0 0 0-.088-.362c-.055-.114-.171-.216-.347-.307s-.433-.176-.781-.244c-.293-.062-.558-.136-.796-.22s-.435-.187-.601-.308-.288-.262-.376-.425a1.18 1.18 0 0 1-.132-.571c0-.208.046-.405.137-.591a1.59 1.59 0 0 1 .396-.493 1.94 1.94 0 0 1 .62-.337c.241-.081.509-.122.806-.122.423 0 .785.075 1.084.225s.529.35.688.6.239.523.239.826h-.903c0-.147-.044-.289-.132-.425s-.21-.256-.376-.347-.363-.137-.601-.137c-.251 0-.454.039-.61.118-.153.074-.265.17-.337.288s-.102.24-.102.371a.68.68 0 0 0 .049.263.58.58 0 0 0 .186.21c.088.062.212.121.371.176s.363.111.61.166c.433.098.789.215 1.069.352s.488.304.625.503a1.24 1.24 0 0 1 .205.722 1.38 1.38 0 0 1-.146.635 1.41 1.41 0 0 1-.415.498c-.179.137-.394.244-.645.322s-.526.113-.835.113c-.465 0-.859-.083-1.182-.249s-.566-.381-.732-.645-.249-.542-.249-.835h.908c.013.248.085.444.215.591a1.1 1.1 0 0 0 .479.308c.189.058.376.087.561.087.247 0 .454-.032.62-.097s.298-.155.386-.269a.62.62 0 0 0 .132-.39zm4.302-3.882v.693h-2.856v-.693h2.856zm-1.89-1.284h.903v5.258c0 .179.028.315.083.406s.127.151.215.18a.87.87 0 0 0 .283.044c.075 0 .153-.006.234-.019l.19-.039.005.737a2.01 2.01 0 0 1-.283.063 2.13 2.13 0 0 1-.415.035c-.221 0-.425-.044-.61-.132s-.334-.235-.444-.44-.161-.488-.161-.839v-5.254zm3.931 1.284V158h-.908v-5.283h.908zm-.977-1.402c0-.146.044-.27.132-.371s.225-.151.4-.151.304.05.395.151.142.225.142.371a.51.51 0 0 1-.142.362c-.091.097-.223.146-.395.146s-.309-.049-.4-.146-.132-.222-.132-.362zm4.639 1.402v.693H56.36v-.693h2.856zm-1.89-1.284h.903v5.258c0 .179.028.315.083.406s.127.151.215.18a.87.87 0 0 0 .283.044c.075 0 .153-.006.234-.019l.19-.039.005.737a2.01 2.01 0 0 1-.283.063 2.13 2.13 0 0 1-.415.035c-.221 0-.425-.044-.61-.132s-.334-.235-.444-.44-.161-.488-.161-.839v-5.254zm6.182 5.346v-4.062h.908V158h-.864l-.044-1.221zm.171-1.113l.376-.01c0 .352-.038.677-.112.977s-.189.553-.352.771-.376.389-.64.513-.584.181-.962.181c-.257 0-.493-.038-.708-.113s-.394-.19-.547-.346-.272-.36-.356-.611-.122-.551-.122-.903v-3.408h.903v3.418c0 .237.026.434.078.591s.129.275.22.366a.8.8 0 0 0 .313.185c.117.036.238.054.361.054.384 0 .689-.073.913-.22a1.25 1.25 0 0 0 .483-.6 2.27 2.27 0 0 0 .151-.845zm4.326-2.949v.693h-2.856v-.693h2.856zm-1.89-1.284h.903v5.258c0 .179.028.315.083.406s.127.151.215.18a.87.87 0 0 0 .283.044c.075 0 .153-.006.234-.019l.19-.039.005.737a2.01 2.01 0 0 1-.283.063 2.13 2.13 0 0 1-.415.035c-.221 0-.425-.044-.61-.132s-.334-.235-.444-.44-.161-.488-.161-.839v-5.254zm5.142 6.665c-.368 0-.702-.062-1.001-.186a2.27 2.27 0 0 1-.767-.532c-.212-.228-.374-.498-.488-.811s-.171-.654-.171-1.025v-.205c0-.43.063-.812.19-1.148s.299-.625.518-.859.465-.412.742-.532.563-.181.859-.181c.378 0 .703.065.977.195a1.79 1.79 0 0 1 .679.547c.176.231.306.505.391.821s.127.654.127 1.025v.405h-3.945v-.737h3.042v-.068c-.013-.235-.062-.463-.147-.684a1.23 1.23 0 0 0-.391-.547c-.179-.143-.423-.215-.732-.215a1.23 1.23 0 0 0-.566.132c-.172.085-.321.212-.444.381s-.22.376-.288.62-.103.526-.103.845v.205a2.38 2.38 0 0 0 .103.708c.072.218.174.41.308.576s.301.296.493.391.417.141.664.141c.319 0 .589-.065.811-.195s.415-.304.581-.522l.547.434c-.114.173-.259.337-.435.493s-.392.284-.649.381-.555.147-.903.147zm9.517-1.895a1.15 1.15 0 0 0-.078-.439c-.049-.131-.137-.248-.264-.352s-.296-.203-.518-.298-.495-.19-.83-.288a7.6 7.6 0 0 1-.952-.347c-.283-.13-.526-.278-.728-.444a1.75 1.75 0 0 1-.464-.571c-.107-.215-.161-.461-.161-.737a1.73 1.73 0 0 1 .171-.767 1.79 1.79 0 0 1 .488-.61 2.37 2.37 0 0 1 .767-.411c.296-.097.627-.146.991-.146.534 0 .986.103 1.357.308s.659.467.855.795a2 2 0 0 1 .293 1.045h-.937c0-.267-.057-.503-.171-.708s-.287-.371-.518-.488-.524-.181-.879-.181c-.335 0-.612.051-.83.152s-.381.237-.488.41a1.12 1.12 0 0 0-.156.591c0 .15.031.286.093.41a1.1 1.1 0 0 0 .298.337c.137.104.309.2.518.288a6.69 6.69 0 0 0 .757.254c.404.114.752.241 1.045.381s.534.298.723.473.334.37.425.591.142.466.142.742a1.73 1.73 0 0 1-.176.786c-.117.235-.285.435-.503.601s-.48.295-.786.386-.641.132-1.016.132c-.329 0-.653-.046-.972-.137a2.9 2.9 0 0 1-.864-.41c-.257-.183-.464-.407-.62-.674a1.87 1.87 0 0 1-.23-.938h.938a1.31 1.31 0 0 0 .142.63 1.25 1.25 0 0 0 .386.43 1.79 1.79 0 0 0 .561.254 2.75 2.75 0 0 0 .659.078c.329 0 .607-.046.835-.137s.4-.221.518-.39.181-.37.181-.601zm4.204 1.895c-.368 0-.701-.062-1.001-.186a2.27 2.27 0 0 1-.767-.532c-.212-.228-.374-.498-.488-.811s-.171-.654-.171-1.025v-.205c0-.43.063-.812.19-1.148s.3-.625.518-.859.466-.412.742-.532a2.12 2.12 0 0 1 .859-.181c.378 0 .703.065.977.195a1.79 1.79 0 0 1 .679.547c.176.231.306.505.391.821s.127.654.127 1.025v.405h-3.945v-.737h3.042v-.068c-.013-.235-.062-.463-.147-.684a1.23 1.23 0 0 0-.391-.547c-.179-.143-.423-.215-.733-.215a1.23 1.23 0 0 0-.566.132c-.172.085-.321.212-.444.381s-.22.376-.288.62-.103.526-.103.845v.205a2.38 2.38 0 0 0 .103.708c.072.218.174.41.308.576s.301.296.493.391.417.141.664.141c.319 0 .589-.065.811-.195s.415-.304.581-.522l.547.434c-.114.173-.259.337-.435.493s-.392.284-.649.381-.555.147-.903.147zm5.322-5.381v.693h-2.856v-.693h2.856zm-1.89-1.284h.903v5.258c0 .179.028.315.083.406s.127.151.215.18a.87.87 0 0 0 .283.044c.075 0 .153-.006.234-.019l.19-.039.005.737a2.01 2.01 0 0 1-.283.063 2.13 2.13 0 0 1-.415.035c-.221 0-.425-.044-.61-.132s-.334-.235-.444-.44-.161-.488-.161-.839v-5.254zm6.182 5.346v-4.062h.908V158h-.864l-.044-1.221zm.171-1.113l.376-.01c0 .352-.037.677-.112.977s-.189.553-.352.771-.376.389-.64.513-.584.181-.962.181c-.257 0-.493-.038-.708-.113s-.394-.19-.547-.346-.272-.36-.356-.611-.122-.551-.122-.903v-3.408h.903v3.418c0 .237.026.434.078.591s.129.275.22.366a.8.8 0 0 0 .313.185c.117.036.238.054.361.054.384 0 .689-.073.913-.22a1.25 1.25 0 0 0 .483-.6 2.27 2.27 0 0 0 .151-.845zm3.017-1.934v6.299h-.908v-7.314h.83l.078 1.015zm3.56 1.582v.103a3.99 3.99 0 0 1-.137 1.069 2.64 2.64 0 0 1-.4.85 1.82 1.82 0 0 1-.64.561c-.254.134-.545.201-.874.201-.335 0-.632-.056-.889-.166s-.475-.272-.654-.484a2.46 2.46 0 0 1-.43-.761 4.42 4.42 0 0 1-.215-1.001v-.547c.039-.391.112-.741.22-1.05s.249-.573.425-.791a1.74 1.74 0 0 1 .649-.503 2.08 2.08 0 0 1 .879-.176c.332 0 .627.065.884.195a1.79 1.79 0 0 1 .65.547c.175.238.307.523.395.855s.137.695.137 1.098zm-.908.103v-.103a3.2 3.2 0 0 0-.083-.742c-.056-.234-.142-.439-.259-.615s-.261-.319-.44-.42-.392-.156-.64-.156c-.228 0-.426.039-.596.117a1.29 1.29 0 0 0-.425.317 1.69 1.69 0 0 0-.288.45c-.072.166-.125.338-.161.517v1.265a2.8 2.8 0 0 0 .273.644 1.42 1.42 0 0 0 .469.484c.195.12.441.18.737.18.244 0 .454-.05.63-.151s.326-.246.44-.425.203-.384.259-.615.083-.483.083-.747z"/><path d="M58.29 290.891V298h-.928v-7.109h.928zm2.285 0v.771h-5.493v-.771h5.493zm.19 4.526v-.112c0-.381.055-.734.166-1.06s.27-.613.479-.854.461-.433.757-.567a2.36 2.36 0 0 1 .996-.205c.371 0 .705.069 1.001.205s.553.322.762.567a2.47 2.47 0 0 1 .483.854c.111.326.166.679.166 1.06v.112c0 .381-.055.734-.166 1.06s-.272.61-.483.854-.461.43-.757.566-.625.201-.996.201-.705-.067-1.001-.201a2.25 2.25 0 0 1-.762-.566 2.58 2.58 0 0 1-.479-.854c-.111-.326-.166-.679-.166-1.06zm.903-.112v.112c0 .264.031.513.093.747s.155.436.278.615a1.41 1.41 0 0 0 .474.425c.189.101.408.151.659.151s.464-.05.649-.151.345-.246.469-.425.216-.384.278-.615.098-.483.098-.747v-.112c0-.261-.033-.506-.098-.738a1.9 1.9 0 0 0-.283-.62c-.124-.182-.28-.325-.469-.429s-.404-.157-.654-.157-.465.052-.654.157-.342.247-.469.429-.216.386-.278.62a2.85 2.85 0 0 0-.093.738zm7.251-2.588v.693h-2.856v-.693h2.856zm-1.89-1.284h.903v5.258c0 .179.028.315.083.406s.127.151.215.18a.87.87 0 0 0 .283.044c.075 0 .153-.006.234-.019l.191-.039.005.737a2.01 2.01 0 0 1-.283.063 2.13 2.13 0 0 1-.415.035c-.221 0-.425-.044-.61-.132s-.334-.235-.444-.44-.161-.488-.161-.839v-5.254zm6.064 5.664v-2.72c0-.208-.042-.389-.127-.542a.83.83 0 0 0-.371-.361 1.34 1.34 0 0 0-.615-.127c-.228 0-.428.039-.6.117s-.303.181-.4.307-.142.264-.142.411h-.903c0-.189.049-.376.146-.562s.238-.353.42-.503a2.1 2.1 0 0 1 .664-.361 2.62 2.62 0 0 1 .869-.137c.384 0 .723.065 1.016.195a1.53 1.53 0 0 1 .693.591c.169.261.254.588.254.982v2.461a3.85 3.85 0 0 0 .044.561c.032.199.08.37.142.513V298h-.942c-.046-.104-.081-.243-.107-.415s-.039-.339-.039-.488zm.156-2.3l.01.635h-.913c-.257 0-.487.021-.689.063s-.371.099-.508.181a.86.86 0 0 0-.312.307c-.072.121-.108.262-.108.425s.038.318.112.454a.81.81 0 0 0 .337.327c.153.079.34.118.561.118.277 0 .521-.059.732-.176s.379-.261.503-.43.195-.333.205-.493l.386.435c-.023.136-.085.288-.186.454a2.17 2.17 0 0 1-.405.478c-.166.15-.365.275-.596.376s-.485.147-.771.147a2.02 2.02 0 0 1-.942-.21c-.267-.14-.475-.327-.625-.562s-.22-.503-.22-.796a1.61 1.61 0 0 1 .166-.747 1.44 1.44 0 0 1 .478-.542c.208-.146.459-.257.752-.332a3.96 3.96 0 0 1 .981-.112h1.05zM76.4 290.5v7.5h-.908v-7.5h.908zm-30.625 13.021L43.422 310h-.962l2.71-7.109h.62l-.015.63zM47.748 310l-2.358-6.479-.015-.63h.62l2.72 7.109h-.967zm-.122-2.632v.772h-3.994v-.772h3.994zm5.234 1.607V302.5h.908v7.5h-.83l-.078-1.025zm-3.555-1.558v-.103c0-.403.049-.769.146-1.098s.243-.617.425-.855a1.93 1.93 0 0 1 .659-.547c.257-.13.544-.195.859-.195.332 0 .622.059.869.176s.462.281.635.503.314.482.415.791a4.98 4.98 0 0 1 .21 1.05v.449c-.036.387-.106.736-.21 1.045s-.239.573-.415.791-.384.386-.635.503-.544.171-.879.171a1.81 1.81 0 0 1-.85-.201c-.254-.133-.474-.32-.659-.561s-.324-.524-.425-.85-.146-.685-.146-1.069zm.908-.103v.103c0 .264.026.511.078.742s.14.435.254.611a1.27 1.27 0 0 0 .435.415c.176.097.386.146.63.146.299 0 .545-.063.737-.19s.351-.295.469-.503a2.92 2.92 0 0 0 .273-.679v-1.177c-.039-.179-.096-.351-.171-.517a1.6 1.6 0 0 0-.283-.45c-.114-.133-.255-.239-.425-.317s-.363-.117-.591-.117c-.247 0-.461.052-.64.156s-.321.241-.435.42-.199.381-.254.615a3.37 3.37 0 0 0-.078.742zm5.859-1.547V310h-.908v-5.283h.859l.049 1.05zm-.185 1.391l-.42-.014a3.6 3.6 0 0 1 .142-1.001 2.37 2.37 0 0 1 .405-.806c.179-.228.402-.404.669-.527s.576-.191.928-.191a2.08 2.08 0 0 1 .684.108 1.37 1.37 0 0 1 .542.327c.153.149.272.342.356.576s.127.517.127.849V310h-.903v-3.477c0-.276-.047-.498-.142-.664a.81.81 0 0 0-.391-.361c-.169-.078-.368-.117-.596-.117-.267 0-.49.047-.669.141s-.322.225-.43.391-.185.357-.234.571a3.2 3.2 0 0 0-.068.674zm3.423-.498l-.605.186c.003-.29.05-.568.142-.835s.23-.505.405-.713.399-.373.659-.493.558-.186.894-.186c.283 0 .534.038.752.112s.407.191.557.347.268.35.347.591.117.527.117.859V310h-.908v-3.481c0-.297-.047-.526-.142-.689a.74.74 0 0 0-.391-.347c-.166-.068-.365-.102-.596-.102-.199 0-.374.034-.527.102s-.282.163-.386.284-.184.252-.239.405-.078.316-.078.488zm5.615-1.943V310h-.908v-5.283h.908zm-.977-1.402c0-.146.044-.27.132-.371s.225-.151.4-.151.304.05.396.151.142.225.142.371a.51.51 0 0 1-.142.362c-.091.097-.223.146-.396.146s-.309-.049-.4-.146-.132-.222-.132-.362zm5.503 5.284a.76.76 0 0 0-.088-.362c-.055-.114-.171-.216-.347-.307s-.433-.176-.781-.244c-.293-.062-.558-.136-.796-.22a2.41 2.41 0 0 1-.601-.308c-.163-.12-.288-.262-.376-.425s-.132-.353-.132-.571c0-.208.046-.405.137-.591s.226-.35.395-.493a1.94 1.94 0 0 1 .62-.337c.241-.081.509-.122.806-.122.423 0 .784.075 1.084.225s.529.35.689.6.239.523.239.826h-.903c0-.147-.044-.289-.132-.425s-.21-.256-.376-.347-.363-.137-.601-.137c-.251 0-.454.039-.61.118s-.265.17-.337.288a.72.72 0 0 0-.103.371c0 .097.016.185.049.263a.58.58 0 0 0 .185.21c.088.062.212.121.371.176a5.73 5.73 0 0 0 .61.166c.433.098.789.215 1.069.352s.488.304.625.503a1.24 1.24 0 0 1 .205.722 1.38 1.38 0 0 1-.147.635 1.41 1.41 0 0 1-.415.498c-.179.137-.394.244-.644.322s-.526.113-.835.113c-.465 0-.859-.083-1.182-.249s-.566-.381-.732-.645-.249-.542-.249-.835h.908c.013.248.085.444.215.591a1.1 1.1 0 0 0 .478.308c.189.058.376.087.562.087.247 0 .454-.032.62-.097s.298-.155.386-.269a.62.62 0 0 0 .132-.39zm5.166 0a.76.76 0 0 0-.088-.362c-.055-.114-.171-.216-.347-.307s-.433-.176-.781-.244c-.293-.062-.558-.136-.796-.22s-.434-.187-.6-.308-.288-.262-.376-.425-.132-.353-.132-.571c0-.208.046-.405.137-.591s.226-.35.395-.493a1.94 1.94 0 0 1 .62-.337c.241-.081.509-.122.806-.122.423 0 .784.075 1.084.225s.529.35.688.6.239.523.239.826h-.903c0-.147-.044-.289-.132-.425a.97.97 0 0 0-.376-.347c-.163-.091-.363-.137-.6-.137-.251 0-.454.039-.61.118s-.265.17-.337.288a.72.72 0 0 0-.103.371c0 .097.016.185.049.263a.58.58 0 0 0 .186.21c.088.062.212.121.371.176a5.73 5.73 0 0 0 .61.166c.433.098.789.215 1.069.352s.488.304.625.503a1.24 1.24 0 0 1 .205.722 1.38 1.38 0 0 1-.147.635c-.094.192-.233.358-.415.498s-.394.244-.645.322-.526.113-.835.113c-.466 0-.859-.083-1.182-.249s-.566-.381-.732-.645-.249-.542-.249-.835h.908c.013.248.085.444.215.591a1.1 1.1 0 0 0 .478.308c.189.058.376.087.562.087.247 0 .454-.032.62-.097s.298-.155.386-.269a.62.62 0 0 0 .132-.39zm3.071-3.882V310h-.908v-5.283h.908zm-.977-1.402c0-.146.044-.27.132-.371s.225-.151.4-.151.304.05.396.151.142.225.142.371a.51.51 0 0 1-.142.362c-.091.097-.223.146-.396.146s-.309-.049-.4-.146-.132-.222-.132-.362zm2.188 4.102v-.112c0-.381.055-.734.166-1.06s.27-.613.478-.854.461-.433.757-.567a2.36 2.36 0 0 1 .996-.205c.371 0 .705.069 1.001.205a2.12 2.12 0 0 1 .762.567 2.47 2.47 0 0 1 .483.854c.111.326.166.679.166 1.06v.112c0 .381-.055.734-.166 1.06s-.272.61-.483.854-.461.43-.757.566-.625.201-.996.201-.705-.067-1.001-.201-.55-.325-.762-.566-.368-.529-.478-.854-.166-.679-.166-1.06zm.903-.112v.112a2.91 2.91 0 0 0 .093.747c.062.231.155.436.278.615a1.41 1.41 0 0 0 .474.425c.189.101.409.151.659.151s.464-.05.649-.151.345-.246.469-.425.217-.384.278-.615.098-.483.098-.747v-.112c0-.261-.033-.506-.098-.738a1.9 1.9 0 0 0-.283-.62c-.124-.182-.28-.325-.469-.429s-.404-.157-.654-.157-.465.052-.654.157-.342.247-.469.429-.217.386-.278.62-.093.477-.093.738zm5.942-1.46V310h-.903v-5.283h.855l.049 1.128zm-.215 1.313l-.376-.014c.003-.362.057-.695.161-1.001s.251-.578.439-.806.413-.404.674-.527.555-.191.874-.191c.26 0 .495.036.703.108a1.27 1.27 0 0 1 .532.332 1.48 1.48 0 0 1 .342.595c.078.241.117.536.117.884V310h-.908v-3.472c0-.276-.041-.498-.122-.664a.75.75 0 0 0-.356-.366c-.156-.078-.348-.117-.576-.117a1.34 1.34 0 0 0-.615.141 1.48 1.48 0 0 0-.474.391c-.13.166-.233.357-.308.571s-.108.437-.108.674z"/></g><g fill="#febc2e"><rect opacity=".1" x="132" y="95" width="90" height="90" rx="20"/><path d="M181.5 131c1.38 0 2.49-1.12 2.49-2.5s-1.11-2.5-2.49-2.5a2.5 2.5 0 1 0 0 5zm-7.5-1c1.66 0 2.99-1.34 2.99-3s-1.33-3-2.99-3-3 1.34-3 3 1.34 3 3 3zm7.5 3c-1.83 0-5.5.92-5.5 2.75V137c0 .55.45 1 1 1h9c.55 0 1-.45 1-1v-1.25c0-1.83-3.67-2.75-5.5-2.75zm-7.5-1c-2.33 0-7 1.17-7 3.5v1.5c0 .55.45 1 1 1h6v-2.25c0-.85.33-2.34 2.37-3.47-.87-.18-1.71-.28-2.37-.28z"/></g><path d="M155.196 155.739h.938a3 3 0 0 1-.386 1.206 2.25 2.25 0 0 1-.884.845c-.381.205-.856.308-1.426.308-.416 0-.795-.078-1.137-.235s-.63-.377-.874-.664a3.11 3.11 0 0 1-.567-1.04c-.13-.407-.195-.859-.195-1.357v-.708c0-.498.065-.949.195-1.353s.324-.755.572-1.045.551-.512.903-.669.747-.234 1.186-.234c.538 0 .992.101 1.363.303s.659.481.864.84a3.03 3.03 0 0 1 .386 1.235h-.938c-.045-.332-.13-.617-.254-.855s-.299-.426-.527-.556-.526-.196-.894-.196c-.315 0-.594.061-.834.181a1.68 1.68 0 0 0-.601.513 2.36 2.36 0 0 0-.361.796c-.082.309-.122.652-.122 1.03v.718c0 .348.035.675.107.981s.187.575.337.806.34.413.571.547.505.195.82.195c.401 0 .72-.063.958-.19s.416-.31.537-.547.211-.523.263-.855zm3.067-5.239v7.5h-.909v-7.5h.909zm4.565 6.597v-2.72a1.1 1.1 0 0 0-.127-.542c-.081-.156-.205-.277-.371-.361a1.34 1.34 0 0 0-.615-.127c-.228 0-.428.039-.601.117s-.302.181-.4.307a.67.67 0 0 0-.142.411h-.903c0-.189.049-.376.146-.562a1.66 1.66 0 0 1 .42-.503c.186-.153.407-.273.664-.361a2.63 2.63 0 0 1 .87-.137 2.48 2.48 0 0 1 1.015.195c.296.131.528.328.694.591s.253.588.253.982v2.461c0 .175.015.363.044.561a2.2 2.2 0 0 0 .142.513V158h-.942c-.046-.104-.082-.243-.108-.415a3.36 3.36 0 0 1-.039-.488zm.156-2.3l.01.635h-.913c-.257 0-.487.021-.688.063s-.372.099-.508.181-.241.184-.313.307-.107.262-.107.425.037.318.112.454.187.246.337.327.34.118.562.118a1.49 1.49 0 0 0 .732-.176c.212-.117.379-.261.503-.43s.195-.333.205-.493l.386.435a1.32 1.32 0 0 1-.186.454c-.101.166-.236.325-.405.478s-.365.275-.596.376-.485.147-.771.147c-.358 0-.672-.07-.943-.21a1.61 1.61 0 0 1-.625-.562 1.49 1.49 0 0 1-.219-.796c0-.283.055-.532.166-.747s.27-.399.478-.542.459-.257.752-.332.62-.112.982-.112h1.049zm5.245 1.802a.77.77 0 0 0-.088-.362c-.056-.114-.171-.216-.347-.307s-.433-.176-.781-.244a6.29 6.29 0 0 1-.796-.22 2.4 2.4 0 0 1-.601-.308c-.163-.12-.288-.262-.376-.425a1.18 1.18 0 0 1-.132-.571 1.33 1.33 0 0 1 .137-.591c.095-.185.226-.35.396-.493s.379-.255.62-.337.509-.122.805-.122c.424 0 .785.075 1.084.225s.529.35.689.6a1.5 1.5 0 0 1 .239.826h-.903c0-.147-.044-.289-.132-.425s-.21-.256-.376-.347-.363-.137-.601-.137c-.25 0-.454.039-.61.118-.153.074-.265.17-.337.288s-.102.24-.102.371a.69.69 0 0 0 .048.263.58.58 0 0 0 .186.21c.088.062.212.121.371.176s.363.111.61.166c.433.098.79.215 1.07.352s.488.304.625.503.205.439.205.722c0 .231-.049.443-.147.635s-.232.358-.415.498-.394.244-.644.322-.526.113-.835.113c-.466 0-.86-.083-1.182-.249s-.566-.381-.732-.645-.249-.542-.249-.835h.908c.013.248.085.444.215.591s.289.246.478.308.376.087.562.087c.247 0 .454-.032.62-.097s.298-.155.386-.269a.62.62 0 0 0 .132-.39zm5.166 0a.77.77 0 0 0-.088-.362c-.056-.114-.171-.216-.347-.307s-.433-.176-.781-.244a6.29 6.29 0 0 1-.796-.22 2.4 2.4 0 0 1-.601-.308c-.163-.12-.288-.262-.376-.425a1.18 1.18 0 0 1-.132-.571 1.33 1.33 0 0 1 .137-.591c.095-.185.226-.35.396-.493s.379-.255.62-.337.509-.122.805-.122c.424 0 .785.075 1.084.225s.529.35.689.6a1.5 1.5 0 0 1 .239.826h-.903c0-.147-.044-.289-.132-.425s-.21-.256-.376-.347-.363-.137-.601-.137c-.25 0-.454.039-.61.118-.153.074-.265.17-.337.288s-.102.24-.102.371a.69.69 0 0 0 .048.263.58.58 0 0 0 .186.21c.088.062.212.121.371.176s.363.111.61.166c.433.098.79.215 1.07.352s.488.304.625.503.205.439.205.722c0 .231-.049.443-.147.635s-.232.358-.415.498-.394.244-.644.322-.526.113-.835.113c-.466 0-.86-.083-1.182-.249s-.566-.381-.732-.645-.249-.542-.249-.835h.908c.013.248.085.444.215.591a1.1 1.1 0 0 0 .478.308c.189.058.376.087.562.087.247 0 .454-.032.62-.097s.298-.155.386-.269a.62.62 0 0 0 .132-.39zm8.496-.396a1.13 1.13 0 0 0-.079-.439c-.048-.131-.136-.248-.263-.352a2.09 2.09 0 0 0-.518-.298 7.38 7.38 0 0 0-.83-.288 7.62 7.62 0 0 1-.952-.347 3.33 3.33 0 0 1-.728-.444c-.201-.166-.356-.356-.463-.571a1.62 1.62 0 0 1-.162-.737 1.73 1.73 0 0 1 .171-.767 1.79 1.79 0 0 1 .489-.61 2.37 2.37 0 0 1 .766-.411c.296-.097.627-.146.991-.146.534 0 .987.103 1.358.308a2.15 2.15 0 0 1 .854.795 1.99 1.99 0 0 1 .293 1.045h-.937c0-.267-.057-.503-.171-.708s-.286-.371-.518-.488-.524-.181-.879-.181c-.335 0-.612.051-.83.152s-.38.237-.488.41-.156.369-.156.591a.9.9 0 0 0 .093.41 1.1 1.1 0 0 0 .297.337c.137.104.31.2.518.288a6.73 6.73 0 0 0 .757.254c.404.114.752.241 1.045.381s.534.298.722.473c.193.173.334.37.425.591s.142.466.142.742c0 .29-.059.552-.176.786s-.285.435-.503.601-.48.295-.786.386-.641.132-1.016.132c-.328 0-.652-.046-.971-.137s-.604-.228-.865-.41-.463-.407-.62-.674a1.87 1.87 0 0 1-.229-.938h.937c0 .245.048.455.142.63s.223.316.386.43a1.79 1.79 0 0 0 .561.254 2.76 2.76 0 0 0 .659.078c.329 0 .608-.046.835-.137s.401-.221.518-.39.181-.37.181-.601zm4.204 1.895a2.59 2.59 0 0 1-1.001-.186c-.296-.127-.552-.304-.767-.532s-.374-.498-.488-.811-.171-.654-.171-1.025v-.205c0-.43.063-.812.19-1.148a2.57 2.57 0 0 1 .518-.859 2.21 2.21 0 0 1 .742-.532c.277-.121.563-.181.86-.181.377 0 .703.065.976.195a1.79 1.79 0 0 1 .679.547c.176.231.306.505.39.821s.127.654.127 1.025v.405h-3.945v-.737h3.042v-.068c-.013-.235-.062-.463-.146-.684s-.212-.404-.391-.547-.423-.215-.732-.215a1.23 1.23 0 0 0-.567.132 1.21 1.21 0 0 0-.444.381c-.124.169-.22.376-.288.62s-.103.526-.103.845v.205c0 .251.034.487.103.708s.174.41.307.576.301.296.493.391.417.141.665.141c.319 0 .589-.065.81-.195s.415-.304.581-.522l.547.434c-.114.173-.259.337-.435.493a2.04 2.04 0 0 1-.649.381c-.254.098-.555.147-.903.147zm5.322-5.381v.693h-2.856v-.693h2.856zm-1.89-1.284h.904v5.258c0 .179.027.315.083.406s.127.151.215.18.182.044.283.044c.075 0 .153-.006.234-.019l.191-.039.004.737c-.071.023-.166.044-.283.063a2.13 2.13 0 0 1-.415.035c-.221 0-.425-.044-.61-.132s-.334-.235-.445-.44-.161-.488-.161-.839v-5.254zm6.182 5.346v-4.062h.908V158h-.864l-.044-1.221zm.171-1.113l.376-.01a4.07 4.07 0 0 1-.112.977 2.1 2.1 0 0 1-.352.771c-.163.218-.376.389-.64.513s-.584.181-.962.181c-.257 0-.493-.038-.708-.113a1.42 1.42 0 0 1-.546-.346c-.153-.157-.272-.36-.357-.611s-.122-.551-.122-.903v-3.408h.903v3.418c0 .237.026.434.078.591a.99.99 0 0 0 .22.366c.095.088.199.15.313.185a1.22 1.22 0 0 0 .361.054c.384 0 .689-.073.913-.22a1.25 1.25 0 0 0 .484-.6 2.29 2.29 0 0 0 .151-.845zm3.017-1.934v6.299h-.908v-7.314h.83l.078 1.015zm3.56 1.582v.103a3.99 3.99 0 0 1-.137 1.069 2.62 2.62 0 0 1-.4.85 1.82 1.82 0 0 1-.64.561c-.254.134-.545.201-.874.201a2.24 2.24 0 0 1-.888-.166 1.75 1.75 0 0 1-.655-.484c-.179-.211-.322-.465-.429-.761a4.37 4.37 0 0 1-.215-1.001v-.547a4.61 4.61 0 0 1 .219-1.05c.108-.309.25-.573.425-.791a1.74 1.74 0 0 1 .65-.503 2.08 2.08 0 0 1 .879-.176c.332 0 .626.065.883.195a1.78 1.78 0 0 1 .65.547c.176.238.307.523.395.855s.137.695.137 1.098zm-.908.103v-.103a3.2 3.2 0 0 0-.083-.742c-.056-.234-.142-.439-.259-.615s-.26-.319-.439-.42-.393-.156-.64-.156c-.228 0-.427.039-.596.117a1.3 1.3 0 0 0-.425.317c-.117.131-.213.28-.288.45a2.63 2.63 0 0 0-.161.517v1.265c.065.228.156.443.274.644s.273.36.468.484.441.18.738.18c.244 0 .454-.05.63-.151s.325-.246.439-.425.203-.384.259-.615.083-.483.083-.747z" fill="#000"/><g fill="#ff8a8a"><rect opacity=".1" x="238" y="95" width="90" height="90" rx="20"/><path d="M277 137h12c.55 0 1 .45 1 1s-.45 1-1 1h-12c-.55 0-1-.45-1-1s.45-1 1-1zm5.01-4.1a2 2 0 0 1-2.82-.01L277 130.7c-.55-.55-.54-1.44.03-1.97.54-.52 1.4-.5 1.92.02l1.65 1.65 6.43-6.43c.54-.54 1.41-.54 1.95 0l.04.04a1.38 1.38 0 0 1-.01 1.96l-7 6.93z"/></g><path d="M253.481 150.891h.914l2.329 5.796 2.324-5.796h.918L257.075 158h-.713l-2.881-7.109zm-.297 0h.805l.132 4.336V158h-.937v-7.109zm6.269 0h.806V158h-.938v-2.773l.132-4.336zm5.44 6.206v-2.72a1.11 1.11 0 0 0-.127-.542.83.83 0 0 0-.371-.361c-.166-.085-.372-.127-.616-.127a1.44 1.44 0 0 0-.6.117c-.17.078-.303.181-.401.307s-.141.264-.141.411h-.904c0-.189.049-.376.147-.562a1.66 1.66 0 0 1 .42-.503c.185-.153.407-.273.664-.361a2.62 2.62 0 0 1 .869-.137c.384 0 .723.065 1.016.195a1.53 1.53 0 0 1 .693.591c.169.261.254.588.254.982v2.461c0 .175.015.363.044.561s.08.37.141.513V158h-.942c-.046-.104-.081-.243-.107-.415a3.36 3.36 0 0 1-.039-.488zm.156-2.3l.01.635h-.913a3.4 3.4 0 0 0-.689.063 1.56 1.56 0 0 0-.508.181.85.85 0 0 0-.312.307c-.072.121-.108.262-.108.425s.038.318.113.454.187.246.337.327.34.118.561.118c.277 0 .521-.059.732-.176s.38-.261.503-.43.196-.333.205-.493l.386.435c-.023.136-.084.288-.185.454s-.236.325-.406.478a2.18 2.18 0 0 1-.595.376c-.228.098-.485.147-.772.147-.358 0-.672-.07-.942-.21a1.61 1.61 0 0 1-.625-.562 1.48 1.48 0 0 1-.22-.796c0-.283.055-.532.166-.747a1.44 1.44 0 0 1 .479-.542c.208-.146.459-.257.752-.332a3.96 3.96 0 0 1 .981-.112h1.05zm5.244 1.802c0-.131-.029-.251-.088-.362s-.171-.216-.347-.307-.433-.176-.781-.244c-.293-.062-.558-.136-.796-.22a2.41 2.41 0 0 1-.6-.308c-.163-.12-.288-.262-.376-.425a1.18 1.18 0 0 1-.132-.571c0-.208.045-.405.137-.591s.226-.35.395-.493.379-.255.62-.337a2.52 2.52 0 0 1 .806-.122c.423 0 .784.075 1.084.225s.529.35.688.6a1.49 1.49 0 0 1 .24.826h-.904c0-.147-.044-.289-.132-.425s-.21-.256-.376-.347-.363-.137-.6-.137c-.251 0-.454.039-.61.118a.77.77 0 0 0-.337.288c-.069.117-.103.24-.103.371a.67.67 0 0 0 .049.263c.036.075.098.145.185.21s.212.121.372.176.362.111.61.166c.433.098.789.215 1.069.352s.488.304.625.503.205.439.205.722a1.39 1.39 0 0 1-.146.635c-.095.192-.233.358-.415.498s-.394.244-.645.322a2.87 2.87 0 0 1-.835.113c-.465 0-.859-.083-1.181-.249s-.567-.381-.733-.645-.249-.542-.249-.835h.908c.013.248.085.444.215.591a1.1 1.1 0 0 0 .479.308c.189.058.376.087.561.087a1.71 1.71 0 0 0 .62-.097.86.86 0 0 0 .386-.269.62.62 0 0 0 .132-.39zm4.302-3.882v.693h-2.857v-.693h2.857zm-1.89-1.284h.903v5.258c0 .179.028.315.083.406s.127.151.215.18.183.044.283.044c.075 0 .153-.006.235-.019l.19-.039.005.737c-.071.023-.166.044-.283.063a2.13 2.13 0 0 1-.415.035c-.221 0-.425-.044-.61-.132s-.334-.235-.445-.44-.161-.488-.161-.839v-5.254zm5.142 6.665a2.59 2.59 0 0 1-1.001-.186c-.297-.127-.552-.304-.767-.532s-.374-.498-.488-.811-.171-.654-.171-1.025v-.205c0-.43.063-.812.19-1.148a2.57 2.57 0 0 1 .518-.859 2.21 2.21 0 0 1 .742-.532c.277-.121.563-.181.859-.181.378 0 .704.065.977.195a1.79 1.79 0 0 1 .679.547c.176.231.306.505.39.821s.127.654.127 1.025v.405h-3.945v-.737h3.042v-.068c-.013-.235-.062-.463-.146-.684s-.212-.404-.391-.547-.423-.215-.733-.215a1.23 1.23 0 0 0-.566.132 1.21 1.21 0 0 0-.444.381c-.124.169-.22.376-.288.62s-.103.526-.103.845v.205c0 .251.034.487.103.708s.174.41.307.576.301.296.493.391.417.141.665.141c.319 0 .589-.065.81-.195s.415-.304.581-.522l.547.434c-.114.173-.259.337-.435.493a2.04 2.04 0 0 1-.649.381c-.254.098-.555.147-.903.147zm4.013-4.551V158h-.903v-5.283h.879l.024.83zm1.651-.859l-.005.839c-.075-.016-.147-.026-.215-.029l-.225-.01a1.45 1.45 0 0 0-.551.098c-.16.065-.295.156-.406.273a1.34 1.34 0 0 0-.263.42 2 2 0 0 0-.122.528l-.254.146a4.21 4.21 0 0 1 .092-.898c.066-.28.165-.528.298-.743a1.46 1.46 0 0 1 .508-.507c.208-.124.456-.186.742-.186a1.16 1.16 0 0 1 .225.025.64.64 0 0 1 .176.044zm4.394-1.797V158h-.942v-7.109h.942zm2.979 3.198v.771H287.7v-.771h3.184zm.483-3.198v.771H287.7v-.771h3.667zm1.968 1.826V158h-.908v-5.283h.908zm-.977-1.402c0-.146.044-.27.132-.371s.225-.151.401-.151.304.05.395.151a.52.52 0 0 1 .142.371.51.51 0 0 1-.142.362c-.091.097-.223.146-.395.146s-.31-.049-.401-.146-.132-.222-.132-.362zm4.62 6.783a2.59 2.59 0 0 1-1.001-.186c-.297-.127-.552-.304-.767-.532a2.36 2.36 0 0 1-.488-.811c-.114-.312-.171-.654-.171-1.025v-.205c0-.43.063-.812.19-1.148a2.57 2.57 0 0 1 .518-.859 2.21 2.21 0 0 1 .742-.532c.277-.121.563-.181.859-.181.378 0 .703.065.977.195a1.79 1.79 0 0 1 .679.547 2.34 2.34 0 0 1 .39.821c.085.312.127.654.127 1.025v.405h-3.945v-.737h3.042v-.068a2.24 2.24 0 0 0-.147-.684c-.081-.221-.211-.404-.39-.547s-.423-.215-.733-.215c-.205 0-.394.044-.566.132s-.321.212-.444.381-.22.376-.288.62-.103.526-.103.845v.205c0 .251.034.487.103.708s.174.41.307.576.301.296.493.391.417.141.664.141c.319 0 .59-.065.811-.195s.415-.304.581-.522l.547.434c-.114.173-.259.337-.435.493a2.05 2.05 0 0 1-.649.381c-.254.098-.555.147-.903.147zm4.091-7.598v7.5h-.908v-7.5h.908zm4.781 6.475V150.5h.908v7.5h-.83l-.078-1.025zm-3.555-1.558v-.103c0-.403.049-.769.146-1.098s.243-.617.425-.855.405-.42.659-.547.544-.195.86-.195c.332 0 .622.059.869.176a1.67 1.67 0 0 1 .635.503c.175.218.314.482.415.791s.171.659.21 1.05v.449c-.036.387-.106.736-.21 1.045s-.24.573-.415.791a1.74 1.74 0 0 1-.635.503c-.251.114-.544.171-.879.171-.309 0-.592-.067-.85-.201a2 2 0 0 1-.659-.561c-.182-.241-.324-.524-.425-.85a3.76 3.76 0 0 1-.146-1.069zm.908-.103v.103a3.37 3.37 0 0 0 .078.742c.056.231.14.435.254.611a1.27 1.27 0 0 0 .435.415c.176.097.385.146.63.146.299 0 .545-.063.737-.19s.351-.295.469-.503.208-.435.273-.679v-1.177a2.59 2.59 0 0 0-.171-.517 1.59 1.59 0 0 0-.283-.45 1.23 1.23 0 0 0-.425-.317c-.166-.078-.363-.117-.591-.117a1.25 1.25 0 0 0-.639.156c-.176.101-.321.241-.435.42a1.96 1.96 0 0 0-.254.615c-.052.231-.078.479-.078.742zm8.037 1.285c0-.131-.029-.251-.088-.362s-.171-.216-.346-.307-.433-.176-.782-.244a6.27 6.27 0 0 1-.795-.22 2.4 2.4 0 0 1-.601-.308c-.163-.12-.288-.262-.376-.425a1.18 1.18 0 0 1-.132-.571 1.33 1.33 0 0 1 .137-.591c.094-.185.226-.35.395-.493s.38-.255.62-.337a2.52 2.52 0 0 1 .806-.122c.423 0 .785.075 1.084.225s.529.35.689.6a1.5 1.5 0 0 1 .239.826h-.903c0-.147-.044-.289-.132-.425s-.21-.256-.376-.347-.363-.137-.601-.137c-.251 0-.454.039-.61.118a.77.77 0 0 0-.337.288c-.069.117-.103.24-.103.371a.69.69 0 0 0 .049.263.58.58 0 0 0 .186.21 1.5 1.5 0 0 0 .371.176 5.71 5.71 0 0 0 .61.166c.433.098.79.215 1.069.352s.489.304.625.503.206.439.206.722c0 .231-.049.443-.147.635s-.233.358-.415.498-.394.244-.644.322-.526.113-.835.113c-.466 0-.86-.083-1.182-.249s-.567-.381-.733-.645-.249-.542-.249-.835h.909c.013.248.084.444.214.591s.29.246.479.308.376.087.562.087c.247 0 .454-.032.62-.097s.298-.155.385-.269a.62.62 0 0 0 .132-.39z" fill="#000"/><g fill="#36b37e"><rect opacity=".1" x="345" y="95" width="90" height="90" rx="20"/><path d="M397.43 131.98c.04-.32.07-.64.07-.98s-.03-.66-.07-.98l2.11-1.65c.19-.15.24-.42.12-.64l-2-3.46c-.12-.22-.39-.3-.61-.22l-2.49 1c-.52-.4-1.08-.73-1.69-.98l-.38-2.65c-.03-.24-.24-.42-.49-.42h-4c-.25 0-.46.18-.49.42l-.38 2.65c-.61.25-1.17.59-1.69.98l-2.49-1c-.23-.09-.49 0-.61.22l-2 3.46c-.13.22-.07.49.12.64l2.11 1.65a7.93 7.93 0 0 0-.07.98 7.93 7.93 0 0 0 .07.98l-2.11 1.65c-.19.15-.24.42-.12.64l2 3.46c.12.22.39.3.61.22l2.49-1c.52.4 1.08.73 1.69.98l.38 2.65c.03.24.24.42.49.42h4c.25 0 .46-.18.49-.42l.38-2.65c.61-.25 1.17-.59 1.69-.98l2.49 1c.23.09.49 0 .61-.22l2-3.46c.12-.22.07-.49-.12-.64l-2.11-1.65zM390 134.5c-1.93 0-3.5-1.57-3.5-3.5s1.57-3.5 3.5-3.5 3.5 1.57 3.5 3.5-1.57 3.5-3.5 3.5z"/></g><path d="M365.525 155.212h-1.899v-.767h1.899c.368 0 .666-.058.894-.175s.394-.28.498-.489.161-.446.161-.713c0-.244-.054-.473-.161-.688s-.27-.387-.498-.518-.526-.2-.894-.2h-1.679V158h-.943v-7.109h2.622c.537 0 .992.092 1.363.278s.652.443.844.771.289.699.289 1.119c0 .455-.097.844-.289 1.167s-.473.568-.844.737-.826.249-1.363.249zm3.243.205v-.112c0-.381.055-.734.166-1.06s.27-.613.478-.854.461-.433.757-.567.628-.205.996-.205.705.069 1.001.205.553.322.762.567.372.525.483.854.166.679.166 1.06v.112c0 .381-.055.734-.166 1.06a2.55 2.55 0 0 1-.483.854 2.21 2.21 0 0 1-.757.566c-.293.134-.625.201-.996.201s-.705-.067-1.001-.201a2.26 2.26 0 0 1-.762-.566c-.208-.244-.368-.529-.478-.854s-.166-.679-.166-1.06zm.903-.112v.112c0 .264.031.513.093.747s.154.436.278.615.285.321.474.425.408.151.659.151.464-.05.649-.151.345-.246.469-.425.216-.384.278-.615a2.78 2.78 0 0 0 .098-.747v-.112a2.72 2.72 0 0 0-.098-.738c-.062-.234-.156-.441-.283-.62s-.28-.325-.469-.429-.403-.157-.654-.157-.465.052-.654.157a1.4 1.4 0 0 0-.469.429 1.96 1.96 0 0 0-.278.62c-.062.232-.093.477-.093.738zm5.942-1.758V158h-.903v-5.283h.879l.024.83zm1.651-.859l-.005.839c-.075-.016-.147-.026-.215-.029l-.225-.01a1.45 1.45 0 0 0-.551.098c-.16.065-.295.156-.406.273a1.34 1.34 0 0 0-.263.42 2 2 0 0 0-.122.528l-.254.146a4.21 4.21 0 0 1 .092-.898c.066-.28.165-.528.298-.743a1.46 1.46 0 0 1 .508-.507c.208-.124.456-.186.742-.186a1.16 1.16 0 0 1 .225.025.64.64 0 0 1 .176.044zm3.291.029v.693h-2.857v-.693h2.857zm-1.89-1.284h.903v5.258c0 .179.028.315.083.406s.127.151.215.18.183.044.283.044c.075 0 .153-.006.235-.019l.19-.039.005.737c-.072.023-.166.044-.283.063a2.13 2.13 0 0 1-.415.035c-.221 0-.425-.044-.61-.132s-.334-.235-.445-.44-.161-.488-.161-.839v-5.254zm6.064 5.664v-2.72a1.11 1.11 0 0 0-.126-.542c-.082-.156-.206-.277-.372-.361a1.34 1.34 0 0 0-.615-.127 1.44 1.44 0 0 0-.6.117c-.17.078-.303.181-.401.307s-.141.264-.141.411h-.904c0-.189.049-.376.147-.562s.237-.353.42-.503.407-.273.664-.361a2.62 2.62 0 0 1 .869-.137c.384 0 .723.065 1.016.195a1.53 1.53 0 0 1 .693.591c.169.261.254.588.254.982v2.461c0 .175.014.363.044.561s.08.37.141.513V158h-.942c-.046-.104-.081-.243-.107-.415a3.37 3.37 0 0 1-.04-.488zm.157-2.3l.01.635h-.914c-.257 0-.486.021-.688.063a1.56 1.56 0 0 0-.508.181.85.85 0 0 0-.312.307c-.072.121-.108.262-.108.425s.038.318.113.454a.81.81 0 0 0 .336.327c.153.079.341.118.562.118.277 0 .521-.059.732-.176s.38-.261.503-.43.196-.333.205-.493l.386.435c-.023.136-.085.288-.185.454s-.236.325-.406.478a2.18 2.18 0 0 1-.595.376c-.228.098-.485.147-.772.147-.358 0-.672-.07-.942-.21s-.476-.327-.625-.562a1.48 1.48 0 0 1-.22-.796c0-.283.055-.532.166-.747a1.44 1.44 0 0 1 .479-.542c.208-.146.459-.257.751-.332s.621-.112.982-.112h1.05zm3.149-4.297v7.5h-.908v-7.5h.908zm7.857 5.703a1.13 1.13 0 0 0-.079-.439c-.048-.131-.136-.248-.263-.352a2.09 2.09 0 0 0-.518-.298 7.38 7.38 0 0 0-.83-.288 7.62 7.62 0 0 1-.952-.347 3.33 3.33 0 0 1-.728-.444c-.201-.166-.356-.356-.463-.571a1.62 1.62 0 0 1-.162-.737 1.73 1.73 0 0 1 .171-.767 1.79 1.79 0 0 1 .489-.61 2.36 2.36 0 0 1 .766-.411c.296-.097.627-.146.991-.146.534 0 .987.103 1.358.308a2.15 2.15 0 0 1 .854.795 1.99 1.99 0 0 1 .293 1.045h-.937c0-.267-.057-.503-.171-.708a1.18 1.18 0 0 0-.518-.488c-.231-.12-.524-.181-.879-.181-.335 0-.612.051-.83.152s-.38.237-.488.41-.156.369-.156.591a.9.9 0 0 0 .093.41 1.1 1.1 0 0 0 .297.337c.137.104.31.2.518.288a6.73 6.73 0 0 0 .757.254c.404.114.752.241 1.045.381s.534.298.722.473.334.37.425.591.142.466.142.742c0 .29-.059.552-.176.786s-.285.435-.503.601-.48.295-.786.386-.641.132-1.016.132c-.328 0-.652-.046-.971-.137s-.604-.228-.865-.41-.463-.407-.62-.674a1.87 1.87 0 0 1-.229-.938h.937c0 .245.048.455.142.63s.223.316.386.43a1.79 1.79 0 0 0 .561.254 2.76 2.76 0 0 0 .659.078c.329 0 .607-.046.835-.137s.401-.221.518-.39.181-.37.181-.601zm4.204 1.895a2.59 2.59 0 0 1-1.001-.186c-.296-.127-.552-.304-.767-.532s-.374-.498-.488-.811-.171-.654-.171-1.025v-.205c0-.43.063-.812.19-1.148a2.57 2.57 0 0 1 .518-.859 2.21 2.21 0 0 1 .742-.532c.277-.121.563-.181.86-.181.377 0 .703.065.976.195a1.79 1.79 0 0 1 .679.547c.176.231.306.505.39.821s.127.654.127 1.025v.405h-3.945v-.737h3.042v-.068c-.013-.235-.062-.463-.146-.684s-.212-.404-.391-.547-.423-.215-.732-.215a1.23 1.23 0 0 0-.567.132 1.21 1.21 0 0 0-.444.381c-.124.169-.22.376-.288.62s-.103.526-.103.845v.205c0 .251.034.487.103.708s.174.41.307.576.301.296.493.391.417.141.665.141c.319 0 .589-.065.81-.195s.415-.304.581-.522l.547.434c-.114.173-.259.337-.435.493a2.04 2.04 0 0 1-.649.381c-.254.098-.555.147-.903.147zm5.322-5.381v.693h-2.856v-.693h2.856zm-1.89-1.284h.904v5.258c0 .179.027.315.083.406s.127.151.214.18.183.044.284.044c.075 0 .153-.006.234-.019l.191-.039.004.737c-.071.023-.166.044-.283.063a2.13 2.13 0 0 1-.415.035c-.221 0-.425-.044-.61-.132s-.334-.235-.445-.44-.161-.488-.161-.839v-5.254zm6.182 5.346v-4.062h.908V158h-.864l-.044-1.221zm.171-1.113l.376-.01a4.07 4.07 0 0 1-.112.977 2.1 2.1 0 0 1-.352.771c-.163.218-.376.389-.64.513s-.584.181-.962.181c-.257 0-.493-.038-.708-.113a1.42 1.42 0 0 1-.546-.346c-.153-.157-.272-.36-.357-.611s-.122-.551-.122-.903v-3.408h.903v3.418c0 .237.026.434.078.591a.99.99 0 0 0 .22.366c.095.088.199.15.313.185a1.22 1.22 0 0 0 .361.054c.384 0 .688-.073.913-.22s.386-.35.483-.6a2.27 2.27 0 0 0 .152-.845zm3.017-1.934v6.299h-.908v-7.314h.83l.078 1.015zm3.56 1.582v.103a3.99 3.99 0 0 1-.137 1.069 2.62 2.62 0 0 1-.4.85 1.82 1.82 0 0 1-.64.561c-.254.134-.545.201-.874.201a2.24 2.24 0 0 1-.888-.166 1.75 1.75 0 0 1-.655-.484c-.179-.211-.322-.465-.429-.761a4.37 4.37 0 0 1-.215-1.001v-.547a4.61 4.61 0 0 1 .219-1.05c.108-.309.249-.573.425-.791a1.74 1.74 0 0 1 .65-.503 2.08 2.08 0 0 1 .879-.176c.332 0 .626.065.883.195a1.78 1.78 0 0 1 .65.547c.176.238.307.523.395.855s.137.695.137 1.098zm-.908.103v-.103a3.2 3.2 0 0 0-.083-.742c-.056-.234-.142-.439-.259-.615s-.26-.319-.439-.42-.393-.156-.64-.156c-.228 0-.427.039-.596.117a1.3 1.3 0 0 0-.425.317c-.117.131-.213.28-.288.45a2.63 2.63 0 0 0-.161.517v1.265c.065.228.156.443.274.644s.273.36.468.484.441.18.738.18c.244 0 .454-.05.63-.151s.325-.246.439-.425.203-.384.259-.615.083-.483.083-.747z" fill="#000"/><defs><linearGradient id="A" x1="-43.414" y1="-16.372" x2="23.568" y2="429.207" gradientUnits="userSpaceOnUse"><stop stop-color="#eee"/><stop offset="1" stop-color="#eee" stop-opacity="0"/></linearGradient></defs></svg>