<svg width="329" height="532" viewBox="0 0 329 532" fill="none" xmlns="http://www.w3.org/2000/svg">
<g filter="url(#filter0_d_1484_15407)">
<rect x="18" y="18" width="249" height="452" rx="20" fill="#F5FBF8"/>
</g>
<path d="M20 68C20 56.9543 28.9543 48 40 48H245C256.046 48 265 56.9543 265 68V448C265 459.046 256.046 468 245 468H40C28.9543 468 20 459.046 20 448V68Z" fill="white"/>
<path d="M120.741 74.3763H122.125C122.08 74.904 121.933 75.3745 121.682 75.7878C121.431 76.1974 121.078 76.5203 120.625 76.7564C120.171 76.9926 119.619 77.1107 118.969 77.1107C118.471 77.1107 118.023 77.0221 117.624 76.845C117.226 76.6642 116.885 76.4096 116.6 76.0811C116.316 75.749 116.098 75.3486 115.947 74.88C115.8 74.4113 115.726 73.8873 115.726 73.308V72.6382C115.726 72.0588 115.801 71.5348 115.953 71.0662C116.108 70.5975 116.329 70.1971 116.617 69.865C116.905 69.5292 117.25 69.2727 117.652 69.0956C118.058 68.9185 118.514 68.8299 119.019 68.8299C119.661 68.8299 120.204 68.948 120.647 69.1842C121.089 69.4203 121.433 69.7469 121.676 70.1639C121.923 70.5809 122.075 71.0588 122.13 71.5976H120.746C120.709 71.2507 120.628 70.9536 120.503 70.7064C120.381 70.4591 120.2 70.2709 119.96 70.1418C119.72 70.0089 119.407 69.9425 119.019 69.9425C118.702 69.9425 118.425 70.0015 118.189 70.1196C117.953 70.2377 117.755 70.4112 117.597 70.6399C117.438 70.8687 117.318 71.151 117.237 71.4868C117.159 71.819 117.121 72.1991 117.121 72.6271V73.308C117.121 73.7139 117.156 74.0829 117.226 74.415C117.3 74.7434 117.41 75.0257 117.558 75.2619C117.709 75.4981 117.901 75.6808 118.134 75.8099C118.366 75.9391 118.645 76.0036 118.969 76.0036C119.364 76.0036 119.684 75.9409 119.927 75.8154C120.174 75.69 120.361 75.5073 120.486 75.2675C120.615 75.0239 120.7 74.7268 120.741 74.3763ZM124.682 68.4978V77H123.342V68.4978H124.682ZM129.52 75.7988V72.9426C129.52 72.7286 129.481 72.5441 129.403 72.3891C129.326 72.2341 129.208 72.1142 129.049 72.0293C128.894 71.9444 128.699 71.902 128.462 71.902C128.245 71.902 128.057 71.9389 127.898 72.0127C127.739 72.0865 127.616 72.1861 127.527 72.3116C127.438 72.4371 127.394 72.5791 127.394 72.7378H126.066C126.066 72.5017 126.123 72.2729 126.237 72.0514C126.352 71.83 126.518 71.6326 126.735 71.4592C126.953 71.2857 127.213 71.1492 127.516 71.0496C127.819 70.9499 128.158 70.9001 128.534 70.9001C128.985 70.9001 129.383 70.9758 129.73 71.1271C130.081 71.2784 130.356 71.5071 130.555 71.8134C130.758 72.116 130.859 72.4961 130.859 72.9537V75.6162C130.859 75.8893 130.878 76.1346 130.915 76.3524C130.955 76.5664 131.012 76.7528 131.086 76.9114V77H129.719C129.656 76.8561 129.606 76.6734 129.57 76.452C129.536 76.2269 129.52 76.0092 129.52 75.7988ZM129.713 73.3578L129.725 74.1825H128.767C128.52 74.1825 128.302 74.2065 128.114 74.2545C127.926 74.2988 127.769 74.3652 127.643 74.4538C127.518 74.5423 127.424 74.6493 127.361 74.7748C127.298 74.9003 127.267 75.0424 127.267 75.201C127.267 75.3597 127.304 75.5055 127.378 75.6383C127.451 75.7675 127.558 75.869 127.699 75.9428C127.843 76.0166 128.016 76.0535 128.219 76.0535C128.492 76.0535 128.73 75.9981 128.933 75.8874C129.14 75.773 129.302 75.6346 129.42 75.4723C129.538 75.3062 129.601 75.1494 129.608 75.0018L130.04 75.594C129.996 75.7453 129.92 75.9077 129.813 76.0811C129.706 76.2546 129.566 76.4206 129.392 76.5793C129.223 76.7343 129.018 76.8616 128.778 76.9613C128.542 77.0609 128.269 77.1107 127.959 77.1107C127.568 77.1107 127.219 77.0332 126.913 76.8782C126.606 76.7195 126.366 76.5074 126.193 76.2417C126.02 75.9723 125.933 75.6678 125.933 75.3283C125.933 75.011 125.992 74.7305 126.11 74.487C126.232 74.2397 126.409 74.0331 126.641 73.867C126.878 73.701 127.165 73.5755 127.505 73.4906C127.844 73.4021 128.232 73.3578 128.667 73.3578H129.713ZM135.614 75.3782C135.614 75.2453 135.581 75.1254 135.514 75.0184C135.448 74.9077 135.321 74.808 135.133 74.7195C134.948 74.6309 134.675 74.5497 134.313 74.4759C133.996 74.4058 133.704 74.3228 133.439 74.2268C133.177 74.1272 132.952 74.0073 132.763 73.867C132.575 73.7268 132.429 73.5607 132.326 73.3688C132.223 73.177 132.171 72.9555 132.171 72.7046C132.171 72.4611 132.225 72.2304 132.332 72.0127C132.439 71.795 132.592 71.6031 132.791 71.437C132.99 71.271 133.232 71.14 133.516 71.044C133.804 70.9481 134.125 70.9001 134.479 70.9001C134.981 70.9001 135.411 70.985 135.769 71.1547C136.131 71.3208 136.407 71.5477 136.599 71.8356C136.791 72.1197 136.887 72.4408 136.887 72.7987H135.553C135.553 72.64 135.513 72.4924 135.431 72.3559C135.354 72.2157 135.236 72.1031 135.077 72.0182C134.918 71.9297 134.719 71.8854 134.479 71.8854C134.251 71.8854 134.061 71.9223 133.909 71.9961C133.762 72.0662 133.651 72.1585 133.577 72.2729C133.507 72.3873 133.472 72.5127 133.472 72.6493C133.472 72.7489 133.49 72.8393 133.527 72.9205C133.568 72.998 133.634 73.0699 133.727 73.1364C133.819 73.1991 133.944 73.2581 134.103 73.3135C134.265 73.3688 134.468 73.4224 134.712 73.474C135.169 73.57 135.562 73.6936 135.891 73.8449C136.223 73.9925 136.478 74.1844 136.655 74.4206C136.832 74.653 136.92 74.9483 136.92 75.3062C136.92 75.5719 136.863 75.8154 136.749 76.0369C136.638 76.2546 136.476 76.4446 136.262 76.607C136.048 76.7657 135.791 76.8893 135.492 76.9779C135.197 77.0664 134.865 77.1107 134.496 77.1107C133.954 77.1107 133.494 77.0148 133.118 76.8229C132.741 76.6273 132.455 76.3782 132.26 76.0756C132.068 75.7693 131.972 75.452 131.972 75.1235H133.262C133.276 75.3708 133.345 75.5682 133.466 75.7158C133.592 75.8597 133.747 75.9649 133.931 76.0313C134.12 76.0941 134.313 76.1254 134.513 76.1254C134.752 76.1254 134.954 76.0941 135.116 76.0313C135.278 75.9649 135.402 75.8763 135.487 75.7656C135.572 75.6512 135.614 75.5221 135.614 75.3782ZM141.448 75.3782C141.448 75.2453 141.415 75.1254 141.349 75.0184C141.282 74.9077 141.155 74.808 140.967 74.7195C140.782 74.6309 140.509 74.5497 140.147 74.4759C139.83 74.4058 139.539 74.3228 139.273 74.2268C139.011 74.1272 138.786 74.0073 138.598 73.867C138.409 73.7268 138.264 73.5607 138.16 73.3688C138.057 73.177 138.005 72.9555 138.005 72.7046C138.005 72.4611 138.059 72.2304 138.166 72.0127C138.273 71.795 138.426 71.6031 138.625 71.437C138.825 71.271 139.066 71.14 139.35 71.044C139.638 70.9481 139.959 70.9001 140.314 70.9001C140.815 70.9001 141.245 70.985 141.603 71.1547C141.965 71.3208 142.242 71.5477 142.434 71.8356C142.625 72.1197 142.721 72.4408 142.721 72.7987H141.387C141.387 72.64 141.347 72.4924 141.266 72.3559C141.188 72.2157 141.07 72.1031 140.911 72.0182C140.753 71.9297 140.553 71.8854 140.314 71.8854C140.085 71.8854 139.895 71.9223 139.743 71.9961C139.596 72.0662 139.485 72.1585 139.411 72.2729C139.341 72.3873 139.306 72.5127 139.306 72.6493C139.306 72.7489 139.325 72.8393 139.361 72.9205C139.402 72.998 139.469 73.0699 139.561 73.1364C139.653 73.1991 139.778 73.2581 139.937 73.3135C140.1 73.3688 140.302 73.4224 140.546 73.474C141.004 73.57 141.397 73.6936 141.725 73.8449C142.057 73.9925 142.312 74.1844 142.489 74.4206C142.666 74.653 142.755 74.9483 142.755 75.3062C142.755 75.5719 142.697 75.8154 142.583 76.0369C142.472 76.2546 142.31 76.4446 142.096 76.607C141.882 76.7657 141.625 76.8893 141.327 76.9779C141.031 77.0664 140.699 77.1107 140.33 77.1107C139.788 77.1107 139.328 77.0148 138.952 76.8229C138.575 76.6273 138.289 76.3782 138.094 76.0756C137.902 75.7693 137.806 75.452 137.806 75.1235H139.096C139.111 75.3708 139.179 75.5682 139.301 75.7158C139.426 75.8597 139.581 75.9649 139.766 76.0313C139.954 76.0941 140.147 76.1254 140.347 76.1254C140.587 76.1254 140.788 76.0941 140.95 76.0313C141.112 75.9649 141.236 75.8763 141.321 75.7656C141.406 75.6512 141.448 75.5221 141.448 75.3782ZM145.262 72.1511V77H143.928V71.0108H145.201L145.262 72.1511ZM147.094 70.9721L147.083 72.212C147.002 72.1972 146.913 72.1861 146.818 72.1788C146.725 72.1714 146.633 72.1677 146.541 72.1677C146.312 72.1677 146.111 72.2009 145.937 72.2673C145.764 72.3301 145.618 72.4223 145.5 72.5441C145.386 72.6622 145.297 72.8061 145.234 72.9758C145.172 73.1456 145.135 73.3356 145.124 73.546L144.819 73.5681C144.819 73.1917 144.856 72.843 144.93 72.5219C145.004 72.2009 145.115 71.9186 145.262 71.675C145.413 71.4315 145.602 71.2414 145.827 71.1049C146.056 70.9684 146.319 70.9001 146.618 70.9001C146.699 70.9001 146.786 70.9075 146.878 70.9222C146.974 70.937 147.046 70.9536 147.094 70.9721ZM147.532 74.0718V73.9445C147.532 73.5128 147.594 73.1124 147.72 72.7434C147.845 72.3706 148.026 72.0478 148.262 71.7747C148.502 71.4979 148.794 71.2839 149.137 71.1326C149.484 70.9776 149.875 70.9001 150.31 70.9001C150.749 70.9001 151.141 70.9776 151.484 71.1326C151.831 71.2839 152.124 71.4979 152.364 71.7747C152.604 72.0478 152.786 72.3706 152.912 72.7434C153.037 73.1124 153.1 73.5128 153.1 73.9445V74.0718C153.1 74.5036 153.037 74.904 152.912 75.273C152.786 75.642 152.604 75.9649 152.364 76.2417C152.124 76.5147 151.833 76.7288 151.489 76.8838C151.146 77.0351 150.757 77.1107 150.321 77.1107C149.882 77.1107 149.489 77.0351 149.142 76.8838C148.799 76.7288 148.508 76.5147 148.268 76.2417C148.028 75.9649 147.845 75.642 147.72 75.273C147.594 74.904 147.532 74.5036 147.532 74.0718ZM148.866 73.9445V74.0718C148.866 74.3412 148.893 74.5958 148.949 74.8357C149.004 75.0756 149.091 75.2859 149.209 75.4667C149.327 75.6475 149.478 75.7896 149.663 75.8929C149.847 75.9963 150.067 76.0479 150.321 76.0479C150.569 76.0479 150.783 75.9963 150.963 75.8929C151.148 75.7896 151.299 75.6475 151.417 75.4667C151.535 75.2859 151.622 75.0756 151.678 74.8357C151.737 74.5958 151.766 74.3412 151.766 74.0718V73.9445C151.766 73.6788 151.737 73.4279 151.678 73.1917C151.622 72.9519 151.534 72.7397 151.412 72.5552C151.294 72.3706 151.142 72.2267 150.958 72.1234C150.777 72.0164 150.561 71.9629 150.31 71.9629C150.059 71.9629 149.842 72.0164 149.657 72.1234C149.476 72.2267 149.327 72.3706 149.209 72.5552C149.091 72.7397 149.004 72.9519 148.949 73.1917C148.893 73.4279 148.866 73.6788 148.866 73.9445ZM153.964 74.0718V73.9445C153.964 73.5128 154.026 73.1124 154.152 72.7434C154.277 72.3706 154.458 72.0478 154.694 71.7747C154.934 71.4979 155.226 71.2839 155.569 71.1326C155.916 70.9776 156.307 70.9001 156.742 70.9001C157.181 70.9001 157.573 70.9776 157.916 71.1326C158.263 71.2839 158.556 71.4979 158.796 71.7747C159.036 72.0478 159.218 72.3706 159.344 72.7434C159.469 73.1124 159.532 73.5128 159.532 73.9445V74.0718C159.532 74.5036 159.469 74.904 159.344 75.273C159.218 75.642 159.036 75.9649 158.796 76.2417C158.556 76.5147 158.265 76.7288 157.921 76.8838C157.578 77.0351 157.189 77.1107 156.753 77.1107C156.314 77.1107 155.921 77.0351 155.574 76.8838C155.231 76.7288 154.94 76.5147 154.7 76.2417C154.46 75.9649 154.277 75.642 154.152 75.273C154.026 74.904 153.964 74.5036 153.964 74.0718ZM155.298 73.9445V74.0718C155.298 74.3412 155.325 74.5958 155.381 74.8357C155.436 75.0756 155.523 75.2859 155.641 75.4667C155.759 75.6475 155.91 75.7896 156.095 75.8929C156.279 75.9963 156.499 76.0479 156.753 76.0479C157.001 76.0479 157.215 75.9963 157.395 75.8929C157.58 75.7896 157.731 75.6475 157.849 75.4667C157.967 75.2859 158.054 75.0756 158.11 74.8357C158.169 74.5958 158.198 74.3412 158.198 74.0718V73.9445C158.198 73.6788 158.169 73.4279 158.11 73.1917C158.054 72.9519 157.966 72.7397 157.844 72.5552C157.726 72.3706 157.574 72.2267 157.39 72.1234C157.209 72.0164 156.993 71.9629 156.742 71.9629C156.491 71.9629 156.274 72.0164 156.089 72.1234C155.908 72.2267 155.759 72.3706 155.641 72.5552C155.523 72.7397 155.436 72.9519 155.381 73.1917C155.325 73.4279 155.298 73.6788 155.298 73.9445ZM161.984 72.2286V77H160.65V71.0108H161.907L161.984 72.2286ZM161.768 73.784L161.314 73.7785C161.314 73.3652 161.366 72.9832 161.469 72.6327C161.573 72.2821 161.724 71.9776 161.923 71.7193C162.123 71.4573 162.37 71.2562 162.665 71.116C162.964 70.9721 163.309 70.9001 163.7 70.9001C163.973 70.9001 164.222 70.9407 164.447 71.0219C164.676 71.0994 164.874 71.223 165.04 71.3927C165.209 71.5625 165.339 71.7802 165.427 72.0459C165.519 72.3116 165.566 72.6327 165.566 73.0091V77H164.232V73.1253C164.232 72.8338 164.187 72.605 164.099 72.4389C164.014 72.2729 163.89 72.1548 163.728 72.0847C163.569 72.0109 163.379 71.974 163.158 71.974C162.907 71.974 162.693 72.0219 162.516 72.1179C162.342 72.2138 162.2 72.3448 162.089 72.5109C161.979 72.6769 161.898 72.8688 161.846 73.0865C161.794 73.3043 161.768 73.5368 161.768 73.784ZM165.483 73.4297L164.857 73.5681C164.857 73.2065 164.907 72.8651 165.007 72.5441C165.11 72.2194 165.259 71.9352 165.455 71.6917C165.654 71.4444 165.9 71.2507 166.191 71.1104C166.483 70.9702 166.817 70.9001 167.193 70.9001C167.499 70.9001 167.772 70.9425 168.012 71.0274C168.256 71.1086 168.462 71.2378 168.632 71.4149C168.802 71.592 168.931 71.8227 169.02 72.1068C169.108 72.3873 169.152 72.7268 169.152 73.1253V77H167.813V73.1198C167.813 72.8172 167.769 72.5828 167.68 72.4168C167.595 72.2507 167.473 72.1363 167.315 72.0736C167.156 72.0072 166.966 71.974 166.745 71.974C166.538 71.974 166.355 72.0127 166.197 72.0902C166.042 72.164 165.911 72.2692 165.804 72.4057C165.697 72.5386 165.615 72.6917 165.56 72.8651C165.508 73.0386 165.483 73.2268 165.483 73.4297Z" fill="black"/>
<rect x="125" y="28" width="35" height="4" rx="2" fill="#DDECE5"/>
<path d="M40 137C40 125.954 48.9543 117 60 117H75C86.0457 117 95 125.954 95 137V152C95 163.045 86.0457 172 75 172H60C48.9543 172 40 163.045 40 152V137Z" fill="#F7F9FC"/>
<path d="M71 144H68C67.45 144 67 144.45 67 145V148C67 148.55 67.45 149 68 149H71C71.55 149 72 148.55 72 148V145C72 144.45 71.55 144 71 144ZM71 134V135H63V134C63 133.45 62.55 133 62 133C61.45 133 61 133.45 61 134V135H60C58.89 135 58.01 135.9 58.01 137L58 151C58 152.1 58.89 153 60 153H74C75.1 153 76 152.1 76 151V137C76 135.9 75.1 135 74 135H73V134C73 133.45 72.55 133 72 133C71.45 133 71 133.45 71 134ZM73 151H61C60.45 151 60 150.55 60 150V140H74V150C74 150.55 73.55 151 73 151Z" fill="#E78B7F"/>
<path d="M45.4785 184.52L43.125 191H42.1631L44.873 183.89H45.4932L45.4785 184.52ZM47.4512 191L45.0928 184.52L45.0781 183.89H45.6982L48.418 191H47.4512ZM47.3291 188.368V189.139H43.335V188.368H47.3291ZM51.3574 185.717V186.41H48.501V185.717H51.3574ZM49.4678 184.432H50.3711V189.691C50.3711 189.87 50.3988 190.005 50.4541 190.096C50.5094 190.188 50.5811 190.248 50.6689 190.277C50.7568 190.306 50.8512 190.321 50.9521 190.321C51.027 190.321 51.1051 190.315 51.1865 190.302C51.2712 190.285 51.3346 190.272 51.377 190.262L51.3818 191C51.3102 191.023 51.2158 191.044 51.0986 191.063C50.9847 191.086 50.8464 191.097 50.6836 191.097C50.4622 191.097 50.2588 191.053 50.0732 190.966C49.8877 190.878 49.7396 190.731 49.6289 190.526C49.5215 190.318 49.4678 190.038 49.4678 189.686V184.432ZM54.6289 185.717V186.41H51.7725V185.717H54.6289ZM52.7393 184.432H53.6426V189.691C53.6426 189.87 53.6702 190.005 53.7256 190.096C53.7809 190.188 53.8525 190.248 53.9404 190.277C54.0283 190.306 54.1227 190.321 54.2236 190.321C54.2985 190.321 54.3766 190.315 54.458 190.302C54.5426 190.285 54.6061 190.272 54.6484 190.262L54.6533 191C54.5817 191.023 54.4873 191.044 54.3701 191.063C54.2562 191.086 54.1178 191.097 53.9551 191.097C53.7337 191.097 53.5303 191.053 53.3447 190.966C53.1592 190.878 53.0111 190.731 52.9004 190.526C52.793 190.318 52.7393 190.038 52.7393 189.686V184.432ZM57.8809 191.097C57.513 191.097 57.1794 191.036 56.8799 190.912C56.5837 190.785 56.3281 190.608 56.1133 190.38C55.9017 190.152 55.7389 189.882 55.625 189.569C55.5111 189.257 55.4541 188.915 55.4541 188.544V188.339C55.4541 187.909 55.5176 187.526 55.6445 187.191C55.7715 186.853 55.944 186.566 56.1621 186.332C56.3802 186.097 56.6276 185.92 56.9043 185.8C57.181 185.679 57.4674 185.619 57.7637 185.619C58.1413 185.619 58.4668 185.684 58.7402 185.814C59.0169 185.944 59.2432 186.127 59.4189 186.361C59.5947 186.592 59.7249 186.866 59.8096 187.181C59.8942 187.494 59.9365 187.836 59.9365 188.207V188.612H55.9912V187.875H59.0332V187.806C59.0202 187.572 58.9714 187.344 58.8867 187.123C58.8053 186.901 58.6751 186.719 58.4961 186.576C58.3171 186.433 58.0729 186.361 57.7637 186.361C57.5586 186.361 57.3698 186.405 57.1973 186.493C57.0247 186.578 56.8766 186.705 56.7529 186.874C56.6292 187.043 56.5332 187.25 56.4648 187.494C56.3965 187.738 56.3623 188.02 56.3623 188.339V188.544C56.3623 188.794 56.3965 189.03 56.4648 189.252C56.5365 189.47 56.639 189.662 56.7725 189.828C56.9092 189.994 57.0736 190.124 57.2656 190.219C57.4609 190.313 57.6823 190.36 57.9297 190.36C58.2487 190.36 58.5189 190.295 58.7402 190.165C58.9616 190.035 59.1553 189.86 59.3213 189.642L59.8682 190.077C59.7542 190.249 59.6094 190.414 59.4336 190.57C59.2578 190.726 59.0413 190.853 58.7842 190.951C58.5303 191.049 58.2292 191.097 57.8809 191.097ZM61.8945 186.844V191H60.9912V185.717H61.8457L61.8945 186.844ZM61.6797 188.158L61.3037 188.143C61.307 187.782 61.3607 187.448 61.4648 187.142C61.569 186.833 61.7155 186.565 61.9043 186.337C62.0931 186.109 62.3177 185.933 62.5781 185.809C62.8418 185.682 63.1331 185.619 63.4521 185.619C63.7126 185.619 63.9469 185.655 64.1553 185.726C64.3636 185.795 64.541 185.905 64.6875 186.058C64.8372 186.211 64.9512 186.41 65.0293 186.654C65.1074 186.895 65.1465 187.19 65.1465 187.538V191H64.2383V187.528C64.2383 187.251 64.1976 187.03 64.1162 186.864C64.0348 186.695 63.916 186.573 63.7598 186.498C63.6035 186.42 63.4115 186.381 63.1836 186.381C62.959 186.381 62.7539 186.428 62.5684 186.522C62.3861 186.617 62.2282 186.747 62.0947 186.913C61.9645 187.079 61.862 187.269 61.7871 187.484C61.7155 187.696 61.6797 187.92 61.6797 188.158ZM69.8486 189.974V183.5H70.7568V191H69.9268L69.8486 189.974ZM66.2939 188.417V188.314C66.2939 187.911 66.3428 187.544 66.4404 187.216C66.5413 186.884 66.6829 186.599 66.8652 186.361C67.0508 186.123 67.2705 185.941 67.5244 185.814C67.7816 185.684 68.068 185.619 68.3838 185.619C68.7158 185.619 69.0055 185.677 69.2529 185.795C69.5036 185.909 69.7152 186.076 69.8877 186.298C70.0635 186.516 70.2018 186.779 70.3027 187.089C70.4036 187.398 70.4736 187.748 70.5127 188.138V188.588C70.4769 188.975 70.4069 189.323 70.3027 189.633C70.2018 189.942 70.0635 190.205 69.8877 190.424C69.7152 190.642 69.5036 190.809 69.2529 190.927C69.0023 191.04 68.7093 191.097 68.374 191.097C68.0648 191.097 67.7816 191.031 67.5244 190.897C67.2705 190.764 67.0508 190.577 66.8652 190.336C66.6829 190.095 66.5413 189.812 66.4404 189.486C66.3428 189.157 66.2939 188.801 66.2939 188.417ZM67.2021 188.314V188.417C67.2021 188.68 67.2282 188.928 67.2803 189.159C67.3356 189.39 67.4202 189.594 67.5342 189.769C67.6481 189.945 67.793 190.083 67.9688 190.184C68.1445 190.282 68.3545 190.331 68.5986 190.331C68.8981 190.331 69.1439 190.267 69.3359 190.14C69.5312 190.013 69.6875 189.846 69.8047 189.637C69.9219 189.429 70.013 189.203 70.0781 188.959V187.782C70.0391 187.603 69.9821 187.43 69.9072 187.264C69.8356 187.095 69.7412 186.945 69.624 186.815C69.5101 186.682 69.3685 186.576 69.1992 186.498C69.0332 186.42 68.8363 186.381 68.6084 186.381C68.361 186.381 68.1478 186.433 67.9688 186.537C67.793 186.638 67.6481 186.778 67.5342 186.957C67.4202 187.133 67.3356 187.338 67.2803 187.572C67.2282 187.803 67.2021 188.051 67.2021 188.314ZM75.2783 190.096V187.377C75.2783 187.168 75.236 186.988 75.1514 186.835C75.07 186.678 74.9463 186.558 74.7803 186.473C74.6143 186.389 74.4092 186.346 74.165 186.346C73.9372 186.346 73.737 186.385 73.5645 186.464C73.3952 186.542 73.2617 186.644 73.1641 186.771C73.0697 186.898 73.0225 187.035 73.0225 187.181H72.1191C72.1191 186.993 72.168 186.805 72.2656 186.62C72.3633 186.434 72.5033 186.267 72.6855 186.117C72.8711 185.964 73.0924 185.844 73.3496 185.756C73.61 185.664 73.8997 185.619 74.2188 185.619C74.6029 185.619 74.9414 185.684 75.2344 185.814C75.5306 185.944 75.7617 186.141 75.9277 186.405C76.097 186.665 76.1816 186.993 76.1816 187.386V189.847C76.1816 190.023 76.1963 190.21 76.2256 190.409C76.2581 190.608 76.3053 190.778 76.3672 190.922V191H75.4248C75.3792 190.896 75.3434 190.757 75.3174 190.585C75.2913 190.409 75.2783 190.246 75.2783 190.096ZM75.4346 187.797L75.4443 188.431H74.5312C74.2741 188.431 74.0446 188.453 73.8428 188.495C73.641 188.534 73.4717 188.594 73.335 188.676C73.1982 188.757 73.0941 188.859 73.0225 188.983C72.9508 189.104 72.915 189.245 72.915 189.408C72.915 189.574 72.9525 189.725 73.0273 189.862C73.1022 189.999 73.2145 190.108 73.3643 190.189C73.5173 190.267 73.7044 190.306 73.9258 190.306C74.2025 190.306 74.4466 190.248 74.6582 190.131C74.8698 190.013 75.0374 189.87 75.1611 189.701C75.2881 189.532 75.3564 189.367 75.3662 189.208L75.752 189.642C75.7292 189.779 75.6673 189.93 75.5664 190.096C75.4655 190.262 75.3304 190.422 75.1611 190.575C74.9951 190.725 74.7965 190.85 74.5654 190.951C74.3376 191.049 74.0804 191.097 73.7939 191.097C73.4359 191.097 73.1217 191.027 72.8516 190.887C72.5846 190.747 72.3763 190.56 72.2266 190.326C72.0801 190.088 72.0068 189.823 72.0068 189.53C72.0068 189.247 72.0622 188.998 72.1729 188.783C72.2835 188.565 72.443 188.384 72.6514 188.241C72.8597 188.094 73.1104 187.984 73.4033 187.909C73.6963 187.834 74.0234 187.797 74.3848 187.797H75.4346ZM78.5059 186.844V191H77.6025V185.717H78.457L78.5059 186.844ZM78.291 188.158L77.915 188.143C77.9183 187.782 77.972 187.448 78.0762 187.142C78.1803 186.833 78.3268 186.565 78.5156 186.337C78.7044 186.109 78.929 185.933 79.1895 185.809C79.4531 185.682 79.7445 185.619 80.0635 185.619C80.3239 185.619 80.5583 185.655 80.7666 185.726C80.9749 185.795 81.1523 185.905 81.2988 186.058C81.4486 186.211 81.5625 186.41 81.6406 186.654C81.7188 186.895 81.7578 187.19 81.7578 187.538V191H80.8496V187.528C80.8496 187.251 80.8089 187.03 80.7275 186.864C80.6462 186.695 80.5273 186.573 80.3711 186.498C80.2148 186.42 80.0228 186.381 79.7949 186.381C79.5703 186.381 79.3652 186.428 79.1797 186.522C78.9974 186.617 78.8395 186.747 78.7061 186.913C78.5758 187.079 78.4733 187.269 78.3984 187.484C78.3268 187.696 78.291 187.92 78.291 188.158ZM85.2441 190.355C85.459 190.355 85.6576 190.311 85.8398 190.223C86.0221 190.135 86.1719 190.015 86.2891 189.862C86.4062 189.706 86.473 189.528 86.4893 189.33H87.3486C87.3324 189.642 87.2266 189.934 87.0312 190.204C86.8392 190.471 86.5869 190.687 86.2744 190.853C85.9619 191.016 85.6185 191.097 85.2441 191.097C84.847 191.097 84.5003 191.027 84.2041 190.887C83.9111 190.747 83.667 190.555 83.4717 190.311C83.2796 190.067 83.1348 189.787 83.0371 189.471C82.9427 189.152 82.8955 188.816 82.8955 188.461V188.256C82.8955 187.901 82.9427 187.566 83.0371 187.25C83.1348 186.931 83.2796 186.649 83.4717 186.405C83.667 186.161 83.9111 185.969 84.2041 185.829C84.5003 185.689 84.847 185.619 85.2441 185.619C85.6576 185.619 86.0189 185.704 86.3281 185.873C86.6374 186.039 86.8799 186.267 87.0557 186.556C87.2347 186.843 87.3324 187.168 87.3486 187.533H86.4893C86.473 187.315 86.4111 187.118 86.3037 186.942C86.1995 186.766 86.0563 186.626 85.874 186.522C85.695 186.415 85.485 186.361 85.2441 186.361C84.9674 186.361 84.7347 186.416 84.5459 186.527C84.3604 186.635 84.2122 186.781 84.1016 186.967C83.9941 187.149 83.916 187.352 83.8672 187.577C83.8216 187.798 83.7988 188.024 83.7988 188.256V188.461C83.7988 188.692 83.8216 188.92 83.8672 189.144C83.9128 189.369 83.9893 189.572 84.0967 189.755C84.2074 189.937 84.3555 190.083 84.541 190.194C84.7298 190.302 84.9642 190.355 85.2441 190.355ZM90.5566 191.097C90.1888 191.097 89.8551 191.036 89.5557 190.912C89.2594 190.785 89.0039 190.608 88.7891 190.38C88.5775 190.152 88.4147 189.882 88.3008 189.569C88.1868 189.257 88.1299 188.915 88.1299 188.544V188.339C88.1299 187.909 88.1934 187.526 88.3203 187.191C88.4473 186.853 88.6198 186.566 88.8379 186.332C89.056 186.097 89.3034 185.92 89.5801 185.8C89.8568 185.679 90.1432 185.619 90.4395 185.619C90.8171 185.619 91.1426 185.684 91.416 185.814C91.6927 185.944 91.9189 186.127 92.0947 186.361C92.2705 186.592 92.4007 186.866 92.4854 187.181C92.57 187.494 92.6123 187.836 92.6123 188.207V188.612H88.667V187.875H91.709V187.806C91.696 187.572 91.6471 187.344 91.5625 187.123C91.4811 186.901 91.3509 186.719 91.1719 186.576C90.9928 186.433 90.7487 186.361 90.4395 186.361C90.2344 186.361 90.0456 186.405 89.873 186.493C89.7005 186.578 89.5524 186.705 89.4287 186.874C89.305 187.043 89.209 187.25 89.1406 187.494C89.0723 187.738 89.0381 188.02 89.0381 188.339V188.544C89.0381 188.794 89.0723 189.03 89.1406 189.252C89.2122 189.47 89.3148 189.662 89.4482 189.828C89.585 189.994 89.7493 190.124 89.9414 190.219C90.1367 190.313 90.3581 190.36 90.6055 190.36C90.9245 190.36 91.1947 190.295 91.416 190.165C91.6374 190.035 91.8311 189.86 91.9971 189.642L92.5439 190.077C92.43 190.249 92.2852 190.414 92.1094 190.57C91.9336 190.726 91.7171 190.853 91.46 190.951C91.2061 191.049 90.9049 191.097 90.5566 191.097Z" fill="black"/>
<path d="M48.6719 293.947V294.714H44.8242V293.947H48.6719ZM44.9707 290.891V298H44.0283V290.891H44.9707ZM49.4922 290.891V298H48.5547V290.891H49.4922ZM50.791 295.417V295.305C50.791 294.924 50.8464 294.571 50.957 294.245C51.0677 293.916 51.2272 293.632 51.4355 293.391C51.6439 293.146 51.8962 292.958 52.1924 292.824C52.4886 292.688 52.8206 292.619 53.1885 292.619C53.5596 292.619 53.8932 292.688 54.1895 292.824C54.4889 292.958 54.7428 293.146 54.9512 293.391C55.1628 293.632 55.3239 293.916 55.4346 294.245C55.5452 294.571 55.6006 294.924 55.6006 295.305V295.417C55.6006 295.798 55.5452 296.151 55.4346 296.477C55.3239 296.802 55.1628 297.087 54.9512 297.331C54.7428 297.572 54.4906 297.761 54.1943 297.897C53.9014 298.031 53.5693 298.098 53.1982 298.098C52.8271 298.098 52.4935 298.031 52.1973 297.897C51.901 297.761 51.6471 297.572 51.4355 297.331C51.2272 297.087 51.0677 296.802 50.957 296.477C50.8464 296.151 50.791 295.798 50.791 295.417ZM51.6943 295.305V295.417C51.6943 295.681 51.7253 295.93 51.7871 296.164C51.849 296.395 51.9417 296.6 52.0654 296.779C52.1924 296.958 52.3503 297.1 52.5391 297.204C52.7279 297.305 52.9476 297.355 53.1982 297.355C53.4456 297.355 53.6621 297.305 53.8477 297.204C54.0365 297.1 54.1927 296.958 54.3164 296.779C54.4401 296.6 54.5329 296.395 54.5947 296.164C54.6598 295.93 54.6924 295.681 54.6924 295.417V295.305C54.6924 295.044 54.6598 294.799 54.5947 294.567C54.5329 294.333 54.4385 294.126 54.3115 293.947C54.1878 293.765 54.0316 293.622 53.8428 293.518C53.6572 293.413 53.4391 293.361 53.1885 293.361C52.9411 293.361 52.723 293.413 52.5342 293.518C52.3486 293.622 52.1924 293.765 52.0654 293.947C51.9417 294.126 51.849 294.333 51.7871 294.567C51.7253 294.799 51.6943 295.044 51.6943 295.305ZM57.6318 293.767V298H56.7236V292.717H57.583L57.6318 293.767ZM57.4463 295.158L57.0264 295.144C57.0296 294.782 57.0768 294.449 57.168 294.143C57.2591 293.833 57.3942 293.565 57.5732 293.337C57.7523 293.109 57.9753 292.933 58.2422 292.81C58.5091 292.683 58.8184 292.619 59.1699 292.619C59.4173 292.619 59.6452 292.655 59.8535 292.727C60.0618 292.795 60.2425 292.904 60.3955 293.054C60.5485 293.203 60.6673 293.396 60.752 293.63C60.8366 293.864 60.8789 294.147 60.8789 294.479V298H59.9756V294.523C59.9756 294.247 59.9284 294.025 59.834 293.859C59.7428 293.693 59.6126 293.573 59.4434 293.498C59.2741 293.42 59.0755 293.381 58.8477 293.381C58.5807 293.381 58.3577 293.428 58.1787 293.522C57.9997 293.617 57.8564 293.747 57.749 293.913C57.6416 294.079 57.5635 294.27 57.5146 294.484C57.4691 294.696 57.4463 294.921 57.4463 295.158ZM60.8691 294.66L60.2637 294.846C60.2669 294.556 60.3141 294.278 60.4053 294.011C60.4997 293.744 60.6348 293.506 60.8105 293.298C60.9896 293.09 61.2093 292.925 61.4697 292.805C61.7301 292.681 62.028 292.619 62.3633 292.619C62.6465 292.619 62.8971 292.657 63.1152 292.731C63.3366 292.806 63.5221 292.922 63.6719 293.078C63.8249 293.231 63.9404 293.428 64.0186 293.669C64.0967 293.91 64.1357 294.196 64.1357 294.528V298H63.2275V294.519C63.2275 294.222 63.1803 293.993 63.0859 293.83C62.9948 293.664 62.8646 293.549 62.6953 293.483C62.5293 293.415 62.3307 293.381 62.0996 293.381C61.901 293.381 61.7253 293.415 61.5723 293.483C61.4193 293.552 61.2907 293.646 61.1865 293.767C61.0824 293.884 61.0026 294.019 60.9473 294.172C60.8952 294.325 60.8691 294.488 60.8691 294.66ZM67.6953 298.098C67.3275 298.098 66.9938 298.036 66.6943 297.912C66.3981 297.785 66.1426 297.608 65.9277 297.38C65.7161 297.152 65.5534 296.882 65.4395 296.569C65.3255 296.257 65.2686 295.915 65.2686 295.544V295.339C65.2686 294.909 65.332 294.527 65.459 294.191C65.5859 293.853 65.7585 293.566 65.9766 293.332C66.1947 293.098 66.4421 292.92 66.7188 292.8C66.9954 292.679 67.2819 292.619 67.5781 292.619C67.9557 292.619 68.2812 292.684 68.5547 292.814C68.8314 292.945 69.0576 293.127 69.2334 293.361C69.4092 293.592 69.5394 293.866 69.624 294.182C69.7087 294.494 69.751 294.836 69.751 295.207V295.612H65.8057V294.875H68.8477V294.807C68.8346 294.572 68.7858 294.344 68.7012 294.123C68.6198 293.902 68.4896 293.719 68.3105 293.576C68.1315 293.433 67.8874 293.361 67.5781 293.361C67.373 293.361 67.1842 293.405 67.0117 293.493C66.8392 293.578 66.6911 293.705 66.5674 293.874C66.4437 294.043 66.3477 294.25 66.2793 294.494C66.2109 294.738 66.1768 295.02 66.1768 295.339V295.544C66.1768 295.795 66.2109 296.031 66.2793 296.252C66.3509 296.47 66.4535 296.662 66.5869 296.828C66.7236 296.994 66.888 297.124 67.0801 297.219C67.2754 297.313 67.4967 297.36 67.7441 297.36C68.0632 297.36 68.3333 297.295 68.5547 297.165C68.776 297.035 68.9697 296.861 69.1357 296.643L69.6826 297.077C69.5687 297.25 69.4238 297.414 69.248 297.57C69.0723 297.727 68.8558 297.854 68.5986 297.951C68.3447 298.049 68.0436 298.098 67.6953 298.098ZM72.1436 297.062L73.501 292.717H74.0967L73.9795 293.581L72.5977 298H72.0166L72.1436 297.062ZM71.2305 292.717L72.3877 297.111L72.4707 298H71.8604L70.3271 292.717H71.2305ZM75.3955 297.077L76.499 292.717H77.3975L75.8643 298H75.2588L75.3955 297.077ZM74.2285 292.717L75.5566 296.989L75.708 298H75.1318L73.7109 293.571L73.5938 292.717H74.2285ZM78.0859 295.417V295.305C78.0859 294.924 78.1413 294.571 78.252 294.245C78.3626 293.916 78.5221 293.632 78.7305 293.391C78.9388 293.146 79.1911 292.958 79.4873 292.824C79.7835 292.688 80.1156 292.619 80.4834 292.619C80.8545 292.619 81.1882 292.688 81.4844 292.824C81.7839 292.958 82.0378 293.146 82.2461 293.391C82.4577 293.632 82.6188 293.916 82.7295 294.245C82.8402 294.571 82.8955 294.924 82.8955 295.305V295.417C82.8955 295.798 82.8402 296.151 82.7295 296.477C82.6188 296.802 82.4577 297.087 82.2461 297.331C82.0378 297.572 81.7855 297.761 81.4893 297.897C81.1963 298.031 80.8643 298.098 80.4932 298.098C80.1221 298.098 79.7884 298.031 79.4922 297.897C79.196 297.761 78.9421 297.572 78.7305 297.331C78.5221 297.087 78.3626 296.802 78.252 296.477C78.1413 296.151 78.0859 295.798 78.0859 295.417ZM78.9893 295.305V295.417C78.9893 295.681 79.0202 295.93 79.082 296.164C79.1439 296.395 79.2367 296.6 79.3604 296.779C79.4873 296.958 79.6452 297.1 79.834 297.204C80.0228 297.305 80.2425 297.355 80.4932 297.355C80.7406 297.355 80.957 297.305 81.1426 297.204C81.3314 297.1 81.4876 296.958 81.6113 296.779C81.735 296.6 81.8278 296.395 81.8896 296.164C81.9548 295.93 81.9873 295.681 81.9873 295.417V295.305C81.9873 295.044 81.9548 294.799 81.8896 294.567C81.8278 294.333 81.7334 294.126 81.6064 293.947C81.4827 293.765 81.3265 293.622 81.1377 293.518C80.9521 293.413 80.734 293.361 80.4834 293.361C80.236 293.361 80.0179 293.413 79.8291 293.518C79.6436 293.622 79.4873 293.765 79.3604 293.947C79.2367 294.126 79.1439 294.333 79.082 294.567C79.0202 294.799 78.9893 295.044 78.9893 295.305ZM84.9316 293.547V298H84.0283V292.717H84.9072L84.9316 293.547ZM86.582 292.688L86.5771 293.527C86.5023 293.511 86.4307 293.501 86.3623 293.498C86.2972 293.492 86.2223 293.488 86.1377 293.488C85.9294 293.488 85.7454 293.521 85.5859 293.586C85.4264 293.651 85.2913 293.742 85.1807 293.859C85.07 293.977 84.9821 294.117 84.917 294.279C84.8551 294.439 84.8145 294.615 84.7949 294.807L84.541 294.953C84.541 294.634 84.5719 294.335 84.6338 294.055C84.6989 293.775 84.7982 293.527 84.9316 293.312C85.0651 293.094 85.2344 292.925 85.4395 292.805C85.6478 292.681 85.8952 292.619 86.1816 292.619C86.2467 292.619 86.3216 292.627 86.4062 292.644C86.4909 292.657 86.5495 292.671 86.582 292.688ZM88.3252 290.5V298H87.417V290.5H88.3252ZM91.5527 292.717L89.248 295.183L87.959 296.521L87.8857 295.559L88.8086 294.455L90.4492 292.717H91.5527ZM90.7275 298L88.8428 295.48L89.3115 294.675L91.792 298H90.7275Z" fill="black"/>
<path d="M45.8691 397.891H48.2227C48.7565 397.891 49.2074 397.972 49.5752 398.135C49.9463 398.298 50.2279 398.538 50.4199 398.857C50.6152 399.173 50.7129 399.562 50.7129 400.024C50.7129 400.35 50.6462 400.648 50.5127 400.918C50.3825 401.185 50.1937 401.413 49.9463 401.602C49.7021 401.787 49.4092 401.925 49.0674 402.017L48.8037 402.119H46.5918L46.582 401.353H48.252C48.5905 401.353 48.8721 401.294 49.0967 401.177C49.3213 401.056 49.4906 400.895 49.6045 400.693C49.7184 400.492 49.7754 400.269 49.7754 400.024C49.7754 399.751 49.7217 399.512 49.6143 399.307C49.5068 399.102 49.3376 398.944 49.1064 398.833C48.8786 398.719 48.584 398.662 48.2227 398.662H46.8115V405H45.8691V397.891ZM50.0244 405L48.2959 401.777L49.2773 401.772L51.0303 404.941V405H50.0244ZM54.0869 405.098C53.7191 405.098 53.3854 405.036 53.0859 404.912C52.7897 404.785 52.5342 404.608 52.3193 404.38C52.1077 404.152 51.945 403.882 51.8311 403.569C51.7171 403.257 51.6602 402.915 51.6602 402.544V402.339C51.6602 401.909 51.7236 401.527 51.8506 401.191C51.9775 400.853 52.1501 400.566 52.3682 400.332C52.5863 400.098 52.8337 399.92 53.1104 399.8C53.387 399.679 53.6735 399.619 53.9697 399.619C54.3473 399.619 54.6729 399.684 54.9463 399.814C55.223 399.945 55.4492 400.127 55.625 400.361C55.8008 400.592 55.931 400.866 56.0156 401.182C56.1003 401.494 56.1426 401.836 56.1426 402.207V402.612H52.1973V401.875H55.2393V401.807C55.2262 401.572 55.1774 401.344 55.0928 401.123C55.0114 400.902 54.8812 400.719 54.7021 400.576C54.5231 400.433 54.279 400.361 53.9697 400.361C53.7646 400.361 53.5758 400.405 53.4033 400.493C53.2308 400.578 53.0827 400.705 52.959 400.874C52.8353 401.043 52.7393 401.25 52.6709 401.494C52.6025 401.738 52.5684 402.02 52.5684 402.339V402.544C52.5684 402.795 52.6025 403.031 52.6709 403.252C52.7425 403.47 52.8451 403.662 52.9785 403.828C53.1152 403.994 53.2796 404.124 53.4717 404.219C53.667 404.313 53.8883 404.36 54.1357 404.36C54.4548 404.36 54.7249 404.295 54.9463 404.165C55.1676 404.035 55.3613 403.861 55.5273 403.643L56.0742 404.077C55.9603 404.25 55.8154 404.414 55.6396 404.57C55.4639 404.727 55.2474 404.854 54.9902 404.951C54.7363 405.049 54.4352 405.098 54.0869 405.098ZM59.3115 404.355C59.5264 404.355 59.7249 404.312 59.9072 404.224C60.0895 404.136 60.2393 404.015 60.3564 403.862C60.4736 403.706 60.5404 403.529 60.5566 403.33H61.416C61.3997 403.643 61.2939 403.934 61.0986 404.204C60.9066 404.471 60.6543 404.688 60.3418 404.854C60.0293 405.016 59.6859 405.098 59.3115 405.098C58.9144 405.098 58.5677 405.028 58.2715 404.888C57.9785 404.748 57.7344 404.556 57.5391 404.312C57.347 404.067 57.2021 403.787 57.1045 403.472C57.0101 403.153 56.9629 402.816 56.9629 402.461V402.256C56.9629 401.901 57.0101 401.566 57.1045 401.25C57.2021 400.931 57.347 400.649 57.5391 400.405C57.7344 400.161 57.9785 399.969 58.2715 399.829C58.5677 399.689 58.9144 399.619 59.3115 399.619C59.7249 399.619 60.0863 399.704 60.3955 399.873C60.7048 400.039 60.9473 400.267 61.123 400.557C61.3021 400.843 61.3997 401.169 61.416 401.533H60.5566C60.5404 401.315 60.4785 401.118 60.3711 400.942C60.2669 400.767 60.1237 400.627 59.9414 400.522C59.7624 400.415 59.5524 400.361 59.3115 400.361C59.0348 400.361 58.8021 400.417 58.6133 400.527C58.4277 400.635 58.2796 400.781 58.1689 400.967C58.0615 401.149 57.9834 401.353 57.9346 401.577C57.889 401.799 57.8662 402.025 57.8662 402.256V402.461C57.8662 402.692 57.889 402.92 57.9346 403.145C57.9801 403.369 58.0566 403.573 58.1641 403.755C58.2747 403.937 58.4229 404.084 58.6084 404.194C58.7972 404.302 59.0316 404.355 59.3115 404.355ZM62.1924 402.417V402.305C62.1924 401.924 62.2477 401.571 62.3584 401.245C62.4691 400.916 62.6286 400.632 62.8369 400.391C63.0452 400.146 63.2975 399.958 63.5938 399.824C63.89 399.688 64.222 399.619 64.5898 399.619C64.9609 399.619 65.2946 399.688 65.5908 399.824C65.8903 399.958 66.1442 400.146 66.3525 400.391C66.5641 400.632 66.7253 400.916 66.8359 401.245C66.9466 401.571 67.002 401.924 67.002 402.305V402.417C67.002 402.798 66.9466 403.151 66.8359 403.477C66.7253 403.802 66.5641 404.087 66.3525 404.331C66.1442 404.572 65.8919 404.761 65.5957 404.897C65.3027 405.031 64.9707 405.098 64.5996 405.098C64.2285 405.098 63.8949 405.031 63.5986 404.897C63.3024 404.761 63.0485 404.572 62.8369 404.331C62.6286 404.087 62.4691 403.802 62.3584 403.477C62.2477 403.151 62.1924 402.798 62.1924 402.417ZM63.0957 402.305V402.417C63.0957 402.681 63.1266 402.93 63.1885 403.164C63.2503 403.395 63.3431 403.6 63.4668 403.779C63.5938 403.958 63.7516 404.1 63.9404 404.204C64.1292 404.305 64.349 404.355 64.5996 404.355C64.847 404.355 65.0635 404.305 65.249 404.204C65.4378 404.1 65.5941 403.958 65.7178 403.779C65.8415 403.6 65.9342 403.395 65.9961 403.164C66.0612 402.93 66.0938 402.681 66.0938 402.417V402.305C66.0938 402.044 66.0612 401.799 65.9961 401.567C65.9342 401.333 65.8398 401.126 65.7129 400.947C65.5892 400.765 65.4329 400.622 65.2441 400.518C65.0586 400.413 64.8405 400.361 64.5898 400.361C64.3424 400.361 64.1243 400.413 63.9355 400.518C63.75 400.622 63.5938 400.765 63.4668 400.947C63.3431 401.126 63.2503 401.333 63.1885 401.567C63.1266 401.799 63.0957 402.044 63.0957 402.305ZM69.0381 400.547V405H68.1348V399.717H69.0137L69.0381 400.547ZM70.6885 399.688L70.6836 400.527C70.6087 400.511 70.5371 400.501 70.4688 400.498C70.4036 400.492 70.3288 400.488 70.2441 400.488C70.0358 400.488 69.8519 400.521 69.6924 400.586C69.5329 400.651 69.3978 400.742 69.2871 400.859C69.1764 400.977 69.0885 401.117 69.0234 401.279C68.9616 401.439 68.9209 401.615 68.9014 401.807L68.6475 401.953C68.6475 401.634 68.6784 401.335 68.7402 401.055C68.8053 400.775 68.9046 400.527 69.0381 400.312C69.1715 400.094 69.3408 399.925 69.5459 399.805C69.7542 399.681 70.0016 399.619 70.2881 399.619C70.3532 399.619 70.4281 399.627 70.5127 399.644C70.5973 399.657 70.6559 399.671 70.6885 399.688ZM74.7559 403.975V397.5H75.6641V405H74.834L74.7559 403.975ZM71.2012 402.417V402.314C71.2012 401.911 71.25 401.545 71.3477 401.216C71.4486 400.884 71.5902 400.599 71.7725 400.361C71.958 400.124 72.1777 399.941 72.4316 399.814C72.6888 399.684 72.9753 399.619 73.291 399.619C73.623 399.619 73.9128 399.678 74.1602 399.795C74.4108 399.909 74.6224 400.076 74.7949 400.298C74.9707 400.516 75.109 400.78 75.21 401.089C75.3109 401.398 75.3809 401.748 75.4199 402.139V402.588C75.3841 402.975 75.3141 403.324 75.21 403.633C75.109 403.942 74.9707 404.206 74.7949 404.424C74.6224 404.642 74.4108 404.81 74.1602 404.927C73.9095 405.041 73.6165 405.098 73.2812 405.098C72.972 405.098 72.6888 405.031 72.4316 404.897C72.1777 404.764 71.958 404.577 71.7725 404.336C71.5902 404.095 71.4486 403.812 71.3477 403.486C71.25 403.158 71.2012 402.801 71.2012 402.417ZM72.1094 402.314V402.417C72.1094 402.681 72.1354 402.928 72.1875 403.159C72.2428 403.39 72.3275 403.594 72.4414 403.77C72.5553 403.945 72.7002 404.084 72.876 404.185C73.0518 404.282 73.2617 404.331 73.5059 404.331C73.8053 404.331 74.0511 404.268 74.2432 404.141C74.4385 404.014 74.5947 403.846 74.7119 403.638C74.8291 403.429 74.9202 403.203 74.9854 402.959V401.782C74.9463 401.603 74.8893 401.431 74.8145 401.265C74.7428 401.095 74.6484 400.946 74.5312 400.815C74.4173 400.682 74.2757 400.576 74.1064 400.498C73.9404 400.42 73.7435 400.381 73.5156 400.381C73.2682 400.381 73.055 400.433 72.876 400.537C72.7002 400.638 72.5553 400.778 72.4414 400.957C72.3275 401.133 72.2428 401.338 72.1875 401.572C72.1354 401.803 72.1094 402.051 72.1094 402.314ZM78.0518 399.717V405H77.1436V399.717H78.0518ZM77.0752 398.315C77.0752 398.169 77.1191 398.045 77.207 397.944C77.2982 397.843 77.4316 397.793 77.6074 397.793C77.7799 397.793 77.9118 397.843 78.0029 397.944C78.0973 398.045 78.1445 398.169 78.1445 398.315C78.1445 398.455 78.0973 398.576 78.0029 398.677C77.9118 398.774 77.7799 398.823 77.6074 398.823C77.4316 398.823 77.2982 398.774 77.207 398.677C77.1191 398.576 77.0752 398.455 77.0752 398.315ZM80.4053 400.845V405H79.502V399.717H80.3564L80.4053 400.845ZM80.1904 402.158L79.8145 402.144C79.8177 401.782 79.8714 401.449 79.9756 401.143C80.0798 400.833 80.2262 400.565 80.415 400.337C80.6038 400.109 80.8285 399.933 81.0889 399.81C81.3525 399.683 81.6439 399.619 81.9629 399.619C82.2233 399.619 82.4577 399.655 82.666 399.727C82.8743 399.795 83.0518 399.906 83.1982 400.059C83.348 400.212 83.4619 400.41 83.54 400.654C83.6182 400.895 83.6572 401.19 83.6572 401.538V405H82.749V401.528C82.749 401.252 82.7083 401.03 82.627 400.864C82.5456 400.695 82.4268 400.573 82.2705 400.498C82.1143 400.42 81.9222 400.381 81.6943 400.381C81.4697 400.381 81.2646 400.428 81.0791 400.522C80.8968 400.617 80.7389 400.747 80.6055 400.913C80.4753 401.079 80.3727 401.27 80.2979 401.484C80.2262 401.696 80.1904 401.921 80.1904 402.158ZM88.4521 399.717H89.2725V404.888C89.2725 405.353 89.1781 405.75 88.9893 406.079C88.8005 406.408 88.5368 406.657 88.1982 406.826C87.863 406.999 87.4756 407.085 87.0361 407.085C86.8538 407.085 86.639 407.056 86.3916 406.997C86.1475 406.942 85.9066 406.846 85.6689 406.709C85.4346 406.576 85.2376 406.395 85.0781 406.167L85.5518 405.63C85.7731 405.897 86.0042 406.082 86.2451 406.187C86.4893 406.291 86.7301 406.343 86.9678 406.343C87.2542 406.343 87.5016 406.289 87.71 406.182C87.9183 406.074 88.0794 405.915 88.1934 405.703C88.3105 405.495 88.3691 405.238 88.3691 404.932V400.879L88.4521 399.717ZM84.8145 402.417V402.314C84.8145 401.911 84.8617 401.545 84.9561 401.216C85.0537 400.884 85.1921 400.599 85.3711 400.361C85.5534 400.124 85.7731 399.941 86.0303 399.814C86.2874 399.684 86.5771 399.619 86.8994 399.619C87.2314 399.619 87.5212 399.678 87.7686 399.795C88.0192 399.909 88.2308 400.076 88.4033 400.298C88.5791 400.516 88.7174 400.78 88.8184 401.089C88.9193 401.398 88.9893 401.748 89.0283 402.139V402.588C88.9925 402.975 88.9225 403.324 88.8184 403.633C88.7174 403.942 88.5791 404.206 88.4033 404.424C88.2308 404.642 88.0192 404.81 87.7686 404.927C87.5179 405.041 87.2249 405.098 86.8896 405.098C86.5739 405.098 86.2874 405.031 86.0303 404.897C85.7764 404.764 85.5583 404.577 85.376 404.336C85.1937 404.095 85.0537 403.812 84.9561 403.486C84.8617 403.158 84.8145 402.801 84.8145 402.417ZM85.7178 402.314V402.417C85.7178 402.681 85.7438 402.928 85.7959 403.159C85.8512 403.39 85.9342 403.594 86.0449 403.77C86.1589 403.945 86.3037 404.084 86.4795 404.185C86.6553 404.282 86.8652 404.331 87.1094 404.331C87.4089 404.331 87.6562 404.268 87.8516 404.141C88.0469 404.014 88.2015 403.846 88.3154 403.638C88.4326 403.429 88.5238 403.203 88.5889 402.959V401.782C88.5531 401.603 88.4977 401.431 88.4229 401.265C88.3512 401.095 88.2568 400.946 88.1396 400.815C88.0257 400.682 87.8841 400.576 87.7148 400.498C87.5456 400.42 87.347 400.381 87.1191 400.381C86.8717 400.381 86.6585 400.433 86.4795 400.537C86.3037 400.638 86.1589 400.778 86.0449 400.957C85.9342 401.133 85.8512 401.338 85.7959 401.572C85.7438 401.803 85.7178 402.051 85.7178 402.314Z" fill="black"/>
<path d="M115 138C115 126.954 123.954 118 135 118H150C161.046 118 170 126.954 170 138V153C170 164.045 161.046 173 150 173H135C123.954 173 115 164.045 115 153V138Z" fill="#F7F9FC"/>
<path d="M149 136H144.82C144.4 134.84 143.3 134 142 134C140.7 134 139.6 134.84 139.18 136H135C133.9 136 133 136.9 133 138V152C133 153.1 133.9 154 135 154H149C150.1 154 151 153.1 151 152V138C151 136.9 150.1 136 149 136ZM142 136C142.55 136 143 136.45 143 137C143 137.55 142.55 138 142 138C141.45 138 141 137.55 141 137C141 136.45 141.45 136 142 136ZM143 150H138C137.45 150 137 149.55 137 149C137 148.45 137.45 148 138 148H143C143.55 148 144 148.45 144 149C144 149.55 143.55 150 143 150ZM146 146H138C137.45 146 137 145.55 137 145C137 144.45 137.45 144 138 144H146C146.55 144 147 144.45 147 145C147 145.55 146.55 146 146 146ZM146 142H138C137.45 142 137 141.55 137 141C137 140.45 137.45 140 138 140H146C146.55 140 147 140.45 147 141C147 141.55 146.55 142 146 142Z" fill="#78CADB"/>
<path d="M135.843 184.89V192H134.915V184.89H135.843ZM138.128 184.89V185.662H132.635V184.89H138.128ZM140.75 192.097C140.382 192.097 140.049 192.036 139.749 191.912C139.453 191.785 139.197 191.608 138.982 191.38C138.771 191.152 138.608 190.882 138.494 190.569C138.38 190.257 138.323 189.915 138.323 189.544V189.339C138.323 188.909 138.387 188.526 138.514 188.191C138.641 187.853 138.813 187.566 139.031 187.332C139.249 187.097 139.497 186.92 139.773 186.8C140.05 186.679 140.337 186.619 140.633 186.619C141.01 186.619 141.336 186.684 141.609 186.814C141.886 186.944 142.112 187.127 142.288 187.361C142.464 187.592 142.594 187.866 142.679 188.181C142.763 188.494 142.806 188.836 142.806 189.207V189.612H138.86V188.875H141.902V188.806C141.889 188.572 141.84 188.344 141.756 188.123C141.674 187.901 141.544 187.719 141.365 187.576C141.186 187.433 140.942 187.361 140.633 187.361C140.428 187.361 140.239 187.405 140.066 187.493C139.894 187.578 139.746 187.705 139.622 187.874C139.498 188.043 139.402 188.25 139.334 188.494C139.266 188.738 139.231 189.02 139.231 189.339V189.544C139.231 189.794 139.266 190.03 139.334 190.252C139.406 190.47 139.508 190.662 139.642 190.828C139.778 190.994 139.943 191.124 140.135 191.219C140.33 191.313 140.551 191.36 140.799 191.36C141.118 191.36 141.388 191.295 141.609 191.165C141.831 191.035 142.024 190.86 142.19 190.642L142.737 191.077C142.623 191.249 142.479 191.414 142.303 191.57C142.127 191.726 141.91 191.853 141.653 191.951C141.399 192.049 141.098 192.097 140.75 192.097ZM146.937 190.598C146.937 190.468 146.907 190.348 146.849 190.237C146.793 190.123 146.678 190.021 146.502 189.929C146.329 189.835 146.069 189.754 145.721 189.685C145.428 189.623 145.162 189.55 144.925 189.466C144.69 189.381 144.49 189.278 144.324 189.158C144.161 189.038 144.036 188.896 143.948 188.733C143.86 188.57 143.816 188.38 143.816 188.162C143.816 187.954 143.862 187.757 143.953 187.571C144.048 187.385 144.179 187.221 144.349 187.078C144.521 186.935 144.728 186.822 144.969 186.741C145.21 186.66 145.478 186.619 145.774 186.619C146.198 186.619 146.559 186.694 146.858 186.844C147.158 186.993 147.387 187.193 147.547 187.444C147.706 187.691 147.786 187.967 147.786 188.269H146.883C146.883 188.123 146.839 187.981 146.751 187.844C146.666 187.705 146.541 187.589 146.375 187.498C146.212 187.407 146.012 187.361 145.774 187.361C145.524 187.361 145.32 187.4 145.164 187.478C145.011 187.553 144.899 187.649 144.827 187.766C144.759 187.884 144.725 188.007 144.725 188.137C144.725 188.235 144.741 188.323 144.773 188.401C144.809 188.476 144.871 188.546 144.959 188.611C145.047 188.673 145.171 188.732 145.33 188.787C145.49 188.842 145.693 188.898 145.94 188.953C146.373 189.051 146.73 189.168 147.01 189.304C147.29 189.441 147.498 189.609 147.635 189.807C147.771 190.006 147.84 190.247 147.84 190.53C147.84 190.761 147.791 190.973 147.693 191.165C147.599 191.357 147.461 191.523 147.278 191.663C147.099 191.8 146.884 191.907 146.634 191.985C146.386 192.06 146.108 192.097 145.799 192.097C145.333 192.097 144.939 192.014 144.617 191.848C144.295 191.682 144.051 191.468 143.885 191.204C143.719 190.94 143.636 190.662 143.636 190.369H144.544C144.557 190.616 144.629 190.813 144.759 190.96C144.889 191.103 145.049 191.205 145.237 191.267C145.426 191.326 145.613 191.355 145.799 191.355C146.046 191.355 146.253 191.323 146.419 191.258C146.588 191.192 146.717 191.103 146.805 190.989C146.893 190.875 146.937 190.745 146.937 190.598ZM151.238 186.717V187.41H148.382V186.717H151.238ZM149.349 185.432H150.252V190.691C150.252 190.87 150.28 191.005 150.335 191.096C150.39 191.188 150.462 191.248 150.55 191.277C150.638 191.306 150.732 191.321 150.833 191.321C150.908 191.321 150.986 191.315 151.067 191.302C151.152 191.285 151.215 191.272 151.258 191.262L151.263 192C151.191 192.023 151.097 192.044 150.979 192.063C150.866 192.086 150.727 192.097 150.564 192.097C150.343 192.097 150.14 192.053 149.954 191.966C149.769 191.878 149.62 191.731 149.51 191.526C149.402 191.318 149.349 191.038 149.349 190.686V185.432Z" fill="black"/>
<path d="M120.645 297.203C120.645 297.037 120.618 296.891 120.566 296.764C120.518 296.633 120.43 296.516 120.303 296.412C120.179 296.308 120.007 296.209 119.785 296.114C119.567 296.02 119.29 295.924 118.955 295.826C118.604 295.722 118.286 295.606 118.003 295.479C117.72 295.349 117.477 295.201 117.275 295.035C117.074 294.869 116.919 294.679 116.812 294.464C116.704 294.249 116.65 294.003 116.65 293.727C116.65 293.45 116.707 293.194 116.821 292.96C116.935 292.726 117.098 292.522 117.31 292.35C117.524 292.174 117.78 292.037 118.076 291.939C118.372 291.842 118.703 291.793 119.067 291.793C119.601 291.793 120.054 291.896 120.425 292.101C120.799 292.302 121.084 292.568 121.279 292.896C121.475 293.222 121.572 293.57 121.572 293.941H120.635C120.635 293.674 120.578 293.438 120.464 293.233C120.35 293.025 120.177 292.862 119.946 292.745C119.715 292.625 119.422 292.564 119.067 292.564C118.732 292.564 118.455 292.615 118.237 292.716C118.019 292.817 117.856 292.953 117.749 293.126C117.645 293.299 117.593 293.495 117.593 293.717C117.593 293.867 117.624 294.003 117.686 294.127C117.751 294.247 117.85 294.36 117.983 294.464C118.12 294.568 118.293 294.664 118.501 294.752C118.713 294.84 118.965 294.924 119.258 295.006C119.661 295.12 120.01 295.247 120.303 295.387C120.596 295.527 120.837 295.685 121.025 295.86C121.217 296.033 121.359 296.23 121.45 296.451C121.545 296.669 121.592 296.917 121.592 297.193C121.592 297.483 121.533 297.745 121.416 297.979C121.299 298.214 121.131 298.414 120.913 298.58C120.695 298.746 120.433 298.875 120.127 298.966C119.824 299.054 119.486 299.098 119.111 299.098C118.783 299.098 118.459 299.052 118.14 298.961C117.824 298.87 117.536 298.733 117.275 298.551C117.018 298.368 116.812 298.144 116.655 297.877C116.502 297.607 116.426 297.294 116.426 296.939H117.363C117.363 297.184 117.41 297.394 117.505 297.569C117.599 297.742 117.728 297.885 117.891 297.999C118.057 298.113 118.244 298.198 118.452 298.253C118.664 298.305 118.883 298.331 119.111 298.331C119.44 298.331 119.718 298.285 119.946 298.194C120.174 298.103 120.347 297.973 120.464 297.804C120.584 297.634 120.645 297.434 120.645 297.203ZM124.868 293.717V294.41H122.012V293.717H124.868ZM122.979 292.433H123.882V297.691C123.882 297.87 123.91 298.006 123.965 298.097C124.02 298.188 124.092 298.248 124.18 298.277C124.268 298.307 124.362 298.321 124.463 298.321C124.538 298.321 124.616 298.315 124.697 298.302C124.782 298.285 124.845 298.272 124.888 298.263L124.893 299C124.821 299.023 124.727 299.044 124.609 299.063C124.495 299.086 124.357 299.098 124.194 299.098C123.973 299.098 123.77 299.054 123.584 298.966C123.398 298.878 123.25 298.731 123.14 298.526C123.032 298.318 122.979 298.038 122.979 297.687V292.433ZM129.16 297.779V293.717H130.068V299H129.204L129.16 297.779ZM129.331 296.666L129.707 296.656C129.707 297.008 129.67 297.333 129.595 297.633C129.523 297.929 129.406 298.186 129.243 298.404C129.08 298.622 128.867 298.793 128.604 298.917C128.34 299.037 128.019 299.098 127.642 299.098C127.384 299.098 127.148 299.06 126.934 298.985C126.722 298.91 126.54 298.795 126.387 298.639C126.234 298.482 126.115 298.279 126.03 298.028C125.949 297.778 125.908 297.477 125.908 297.125V293.717H126.812V297.135C126.812 297.372 126.838 297.569 126.89 297.726C126.945 297.879 127.018 298.001 127.109 298.092C127.204 298.18 127.308 298.242 127.422 298.277C127.539 298.313 127.66 298.331 127.783 298.331C128.167 298.331 128.472 298.258 128.696 298.111C128.921 297.962 129.082 297.761 129.18 297.511C129.281 297.257 129.331 296.975 129.331 296.666ZM134.775 297.975V291.5H135.684V299H134.854L134.775 297.975ZM131.221 296.417V296.314C131.221 295.911 131.27 295.545 131.367 295.216C131.468 294.884 131.61 294.599 131.792 294.361C131.978 294.124 132.197 293.941 132.451 293.814C132.708 293.684 132.995 293.619 133.311 293.619C133.643 293.619 133.932 293.678 134.18 293.795C134.43 293.909 134.642 294.076 134.814 294.298C134.99 294.516 135.129 294.78 135.229 295.089C135.33 295.398 135.4 295.748 135.439 296.139V296.588C135.404 296.975 135.334 297.324 135.229 297.633C135.129 297.942 134.99 298.206 134.814 298.424C134.642 298.642 134.43 298.81 134.18 298.927C133.929 299.041 133.636 299.098 133.301 299.098C132.992 299.098 132.708 299.031 132.451 298.897C132.197 298.764 131.978 298.577 131.792 298.336C131.61 298.095 131.468 297.812 131.367 297.486C131.27 297.158 131.221 296.801 131.221 296.417ZM132.129 296.314V296.417C132.129 296.681 132.155 296.928 132.207 297.159C132.262 297.39 132.347 297.594 132.461 297.77C132.575 297.945 132.72 298.084 132.896 298.185C133.071 298.282 133.281 298.331 133.525 298.331C133.825 298.331 134.071 298.268 134.263 298.141C134.458 298.014 134.614 297.846 134.731 297.638C134.849 297.429 134.94 297.203 135.005 296.959V295.782C134.966 295.603 134.909 295.431 134.834 295.265C134.762 295.095 134.668 294.946 134.551 294.815C134.437 294.682 134.295 294.576 134.126 294.498C133.96 294.42 133.763 294.381 133.535 294.381C133.288 294.381 133.075 294.433 132.896 294.537C132.72 294.638 132.575 294.778 132.461 294.957C132.347 295.133 132.262 295.338 132.207 295.572C132.155 295.803 132.129 296.051 132.129 296.314ZM138.574 298.453L140.044 293.717H141.011L138.892 299.815C138.843 299.946 138.778 300.086 138.696 300.235C138.618 300.388 138.517 300.533 138.394 300.67C138.27 300.807 138.12 300.917 137.944 301.002C137.772 301.09 137.565 301.134 137.324 301.134C137.253 301.134 137.161 301.124 137.051 301.104C136.94 301.085 136.862 301.069 136.816 301.056L136.812 300.323C136.838 300.326 136.878 300.33 136.934 300.333C136.992 300.34 137.033 300.343 137.056 300.343C137.261 300.343 137.435 300.315 137.578 300.26C137.721 300.208 137.842 300.118 137.939 299.991C138.04 299.868 138.127 299.697 138.198 299.479L138.574 298.453ZM137.495 293.717L138.867 297.818L139.102 298.771L138.452 299.103L136.509 293.717H137.495ZM144.741 291.891H145.654L147.983 297.687L150.308 291.891H151.226L148.335 299H147.622L144.741 291.891ZM144.443 291.891H145.249L145.381 296.227V299H144.443V291.891ZM150.713 291.891H151.519V299H150.581V296.227L150.713 291.891ZM156.152 298.097V295.377C156.152 295.169 156.11 294.988 156.025 294.835C155.944 294.679 155.82 294.558 155.654 294.474C155.488 294.389 155.283 294.347 155.039 294.347C154.811 294.347 154.611 294.386 154.438 294.464C154.269 294.542 154.136 294.645 154.038 294.771C153.944 294.898 153.896 295.035 153.896 295.182H152.993C152.993 294.993 153.042 294.806 153.14 294.62C153.237 294.435 153.377 294.267 153.56 294.117C153.745 293.964 153.966 293.844 154.224 293.756C154.484 293.665 154.774 293.619 155.093 293.619C155.477 293.619 155.815 293.684 156.108 293.814C156.405 293.945 156.636 294.142 156.802 294.405C156.971 294.666 157.056 294.993 157.056 295.387V297.848C157.056 298.023 157.07 298.211 157.1 298.409C157.132 298.608 157.179 298.779 157.241 298.922V299H156.299C156.253 298.896 156.217 298.757 156.191 298.585C156.165 298.409 156.152 298.246 156.152 298.097ZM156.309 295.797L156.318 296.432H155.405C155.148 296.432 154.919 296.453 154.717 296.495C154.515 296.534 154.346 296.594 154.209 296.676C154.072 296.757 153.968 296.86 153.896 296.983C153.825 297.104 153.789 297.245 153.789 297.408C153.789 297.574 153.826 297.726 153.901 297.862C153.976 297.999 154.089 298.108 154.238 298.189C154.391 298.268 154.578 298.307 154.8 298.307C155.076 298.307 155.321 298.248 155.532 298.131C155.744 298.014 155.911 297.87 156.035 297.701C156.162 297.532 156.23 297.368 156.24 297.208L156.626 297.643C156.603 297.779 156.541 297.931 156.44 298.097C156.34 298.263 156.204 298.422 156.035 298.575C155.869 298.725 155.671 298.85 155.439 298.951C155.212 299.049 154.954 299.098 154.668 299.098C154.31 299.098 153.996 299.028 153.726 298.888C153.459 298.748 153.25 298.561 153.101 298.326C152.954 298.089 152.881 297.823 152.881 297.53C152.881 297.247 152.936 296.998 153.047 296.783C153.158 296.565 153.317 296.384 153.525 296.241C153.734 296.095 153.984 295.984 154.277 295.909C154.57 295.834 154.897 295.797 155.259 295.797H156.309ZM160.688 293.717V294.41H157.832V293.717H160.688ZM158.799 292.433H159.702V297.691C159.702 297.87 159.73 298.006 159.785 298.097C159.84 298.188 159.912 298.248 160 298.277C160.088 298.307 160.182 298.321 160.283 298.321C160.358 298.321 160.436 298.315 160.518 298.302C160.602 298.285 160.666 298.272 160.708 298.263L160.713 299C160.641 299.023 160.547 299.044 160.43 299.063C160.316 299.086 160.177 299.098 160.015 299.098C159.793 299.098 159.59 299.054 159.404 298.966C159.219 298.878 159.071 298.731 158.96 298.526C158.853 298.318 158.799 298.038 158.799 297.687V292.433ZM161.763 298.521C161.763 298.368 161.81 298.24 161.904 298.136C162.002 298.028 162.142 297.975 162.324 297.975C162.507 297.975 162.645 298.028 162.739 298.136C162.837 298.24 162.886 298.368 162.886 298.521C162.886 298.671 162.837 298.798 162.739 298.902C162.645 299.007 162.507 299.059 162.324 299.059C162.142 299.059 162.002 299.007 161.904 298.902C161.81 298.798 161.763 298.671 161.763 298.521ZM164.399 298.521C164.399 298.368 164.447 298.24 164.541 298.136C164.639 298.028 164.779 297.975 164.961 297.975C165.143 297.975 165.282 298.028 165.376 298.136C165.474 298.24 165.522 298.368 165.522 298.521C165.522 298.671 165.474 298.798 165.376 298.902C165.282 299.007 165.143 299.059 164.961 299.059C164.779 299.059 164.639 299.007 164.541 298.902C164.447 298.798 164.399 298.671 164.399 298.521ZM167.036 298.521C167.036 298.368 167.083 298.24 167.178 298.136C167.275 298.028 167.415 297.975 167.598 297.975C167.78 297.975 167.918 298.028 168.013 298.136C168.11 298.24 168.159 298.368 168.159 298.521C168.159 298.671 168.11 298.798 168.013 298.902C167.918 299.007 167.78 299.059 167.598 299.059C167.415 299.059 167.275 299.007 167.178 298.902C167.083 298.798 167.036 298.671 167.036 298.521Z" fill="black"/>
<path d="M137.251 403.739H138.188C138.14 404.188 138.011 404.59 137.803 404.945C137.594 405.3 137.3 405.582 136.919 405.79C136.538 405.995 136.063 406.098 135.493 406.098C135.076 406.098 134.697 406.02 134.355 405.863C134.017 405.707 133.726 405.486 133.481 405.199C133.237 404.91 133.049 404.563 132.915 404.159C132.785 403.752 132.72 403.3 132.72 402.802V402.094C132.72 401.596 132.785 401.145 132.915 400.741C133.049 400.334 133.239 399.986 133.486 399.696C133.737 399.407 134.038 399.184 134.39 399.027C134.741 398.871 135.137 398.793 135.576 398.793C136.113 398.793 136.567 398.894 136.938 399.096C137.31 399.298 137.598 399.577 137.803 399.936C138.011 400.29 138.14 400.702 138.188 401.171H137.251C137.205 400.839 137.121 400.554 136.997 400.316C136.873 400.076 136.698 399.89 136.47 399.76C136.242 399.63 135.944 399.564 135.576 399.564C135.26 399.564 134.982 399.625 134.741 399.745C134.504 399.866 134.303 400.036 134.141 400.258C133.981 400.479 133.861 400.744 133.779 401.054C133.698 401.363 133.657 401.706 133.657 402.084V402.802C133.657 403.15 133.693 403.477 133.765 403.783C133.84 404.089 133.952 404.358 134.102 404.589C134.251 404.82 134.442 405.002 134.673 405.136C134.904 405.266 135.177 405.331 135.493 405.331C135.894 405.331 136.213 405.268 136.45 405.141C136.688 405.014 136.867 404.831 136.987 404.594C137.111 404.356 137.199 404.071 137.251 403.739ZM140.239 398.5V406H139.336V398.5H140.239ZM140.024 403.158L139.648 403.144C139.652 402.782 139.705 402.449 139.81 402.143C139.914 401.833 140.06 401.565 140.249 401.337C140.438 401.109 140.662 400.933 140.923 400.81C141.187 400.683 141.478 400.619 141.797 400.619C142.057 400.619 142.292 400.655 142.5 400.727C142.708 400.795 142.886 400.906 143.032 401.059C143.182 401.212 143.296 401.41 143.374 401.654C143.452 401.895 143.491 402.19 143.491 402.538V406H142.583V402.528C142.583 402.252 142.542 402.03 142.461 401.864C142.38 401.695 142.261 401.573 142.104 401.498C141.948 401.42 141.756 401.381 141.528 401.381C141.304 401.381 141.099 401.428 140.913 401.522C140.731 401.617 140.573 401.747 140.439 401.913C140.309 402.079 140.207 402.27 140.132 402.484C140.06 402.696 140.024 402.921 140.024 403.158ZM147.959 405.097V402.377C147.959 402.169 147.917 401.988 147.832 401.835C147.751 401.679 147.627 401.558 147.461 401.474C147.295 401.389 147.09 401.347 146.846 401.347C146.618 401.347 146.418 401.386 146.245 401.464C146.076 401.542 145.942 401.645 145.845 401.771C145.75 401.898 145.703 402.035 145.703 402.182H144.8C144.8 401.993 144.849 401.806 144.946 401.62C145.044 401.435 145.184 401.267 145.366 401.117C145.552 400.964 145.773 400.844 146.03 400.756C146.291 400.665 146.58 400.619 146.899 400.619C147.284 400.619 147.622 400.684 147.915 400.814C148.211 400.945 148.442 401.142 148.608 401.405C148.778 401.666 148.862 401.993 148.862 402.387V404.848C148.862 405.023 148.877 405.211 148.906 405.409C148.939 405.608 148.986 405.779 149.048 405.922V406H148.105C148.06 405.896 148.024 405.757 147.998 405.585C147.972 405.409 147.959 405.246 147.959 405.097ZM148.115 402.797L148.125 403.432H147.212C146.955 403.432 146.725 403.453 146.523 403.495C146.322 403.534 146.152 403.594 146.016 403.676C145.879 403.757 145.775 403.86 145.703 403.983C145.632 404.104 145.596 404.245 145.596 404.408C145.596 404.574 145.633 404.726 145.708 404.862C145.783 404.999 145.895 405.108 146.045 405.189C146.198 405.268 146.385 405.307 146.606 405.307C146.883 405.307 147.127 405.248 147.339 405.131C147.55 405.014 147.718 404.87 147.842 404.701C147.969 404.532 148.037 404.368 148.047 404.208L148.433 404.643C148.41 404.779 148.348 404.931 148.247 405.097C148.146 405.263 148.011 405.422 147.842 405.575C147.676 405.725 147.477 405.85 147.246 405.951C147.018 406.049 146.761 406.098 146.475 406.098C146.117 406.098 145.802 406.028 145.532 405.888C145.265 405.748 145.057 405.561 144.907 405.326C144.761 405.089 144.688 404.823 144.688 404.53C144.688 404.247 144.743 403.998 144.854 403.783C144.964 403.565 145.124 403.384 145.332 403.241C145.54 403.095 145.791 402.984 146.084 402.909C146.377 402.834 146.704 402.797 147.065 402.797H148.115ZM152.495 400.717V401.41H149.639V400.717H152.495ZM150.605 399.433H151.509V404.691C151.509 404.87 151.536 405.006 151.592 405.097C151.647 405.188 151.719 405.248 151.807 405.277C151.895 405.307 151.989 405.321 152.09 405.321C152.165 405.321 152.243 405.315 152.324 405.302C152.409 405.285 152.472 405.272 152.515 405.263L152.52 406C152.448 406.023 152.354 406.044 152.236 406.063C152.122 406.086 151.984 406.098 151.821 406.098C151.6 406.098 151.396 406.054 151.211 405.966C151.025 405.878 150.877 405.731 150.767 405.526C150.659 405.318 150.605 405.038 150.605 404.687V399.433Z" fill="black"/>
<path d="M190 137C190 125.954 198.954 117 210 117H225C236.046 117 245 125.954 245 137V152C245 163.046 236.046 172 225 172H210C198.954 172 190 163.046 190 152V137Z" fill="#F7F9FC"/>
<path d="M224 136H223V135C223 134.45 222.55 134 222 134C221.45 134 221 134.45 221 135V136H213V135C213 134.45 212.55 134 212 134C211.45 134 211 134.45 211 135V136H210C208.89 136 208.01 136.9 208.01 138L208 152C208 153.1 208.89 154 210 154H224C225.1 154 226 153.1 226 152V138C226 136.9 225.1 136 224 136ZM224 151C224 151.55 223.55 152 223 152H211C210.45 152 210 151.55 210 151V141H224V151ZM212 143H214V145H212V143ZM216 143H218V145H216V143ZM220 143H222V145H220V143Z" fill="#C7974F"/>
<path d="M198.687 184.891V192H197.759V184.891H198.687ZM200.972 184.891V185.662H195.479V184.891H200.972ZM202.871 186.717V192H201.963V186.717H202.871ZM201.895 185.315C201.895 185.169 201.938 185.045 202.026 184.944C202.118 184.843 202.251 184.793 202.427 184.793C202.599 184.793 202.731 184.843 202.822 184.944C202.917 185.045 202.964 185.169 202.964 185.315C202.964 185.455 202.917 185.576 202.822 185.677C202.731 185.774 202.599 185.823 202.427 185.823C202.251 185.823 202.118 185.774 202.026 185.677C201.938 185.576 201.895 185.455 201.895 185.315ZM205.22 187.767V192H204.312V186.717H205.171L205.22 187.767ZM205.034 189.158L204.614 189.144C204.618 188.782 204.665 188.449 204.756 188.143C204.847 187.833 204.982 187.565 205.161 187.337C205.34 187.109 205.563 186.933 205.83 186.81C206.097 186.683 206.406 186.619 206.758 186.619C207.005 186.619 207.233 186.655 207.441 186.727C207.65 186.795 207.83 186.904 207.983 187.054C208.136 187.203 208.255 187.396 208.34 187.63C208.424 187.864 208.467 188.147 208.467 188.479V192H207.563V188.523C207.563 188.247 207.516 188.025 207.422 187.859C207.331 187.693 207.201 187.573 207.031 187.498C206.862 187.42 206.663 187.381 206.436 187.381C206.169 187.381 205.946 187.428 205.767 187.522C205.588 187.617 205.444 187.747 205.337 187.913C205.229 188.079 205.151 188.27 205.103 188.484C205.057 188.696 205.034 188.921 205.034 189.158ZM208.457 188.66L207.852 188.846C207.855 188.556 207.902 188.278 207.993 188.011C208.088 187.744 208.223 187.506 208.398 187.298C208.577 187.09 208.797 186.925 209.058 186.805C209.318 186.681 209.616 186.619 209.951 186.619C210.234 186.619 210.485 186.657 210.703 186.731C210.924 186.806 211.11 186.922 211.26 187.078C211.413 187.231 211.528 187.428 211.606 187.669C211.685 187.91 211.724 188.196 211.724 188.528V192H210.815V188.519C210.815 188.222 210.768 187.993 210.674 187.83C210.583 187.664 210.452 187.549 210.283 187.483C210.117 187.415 209.919 187.381 209.688 187.381C209.489 187.381 209.313 187.415 209.16 187.483C209.007 187.552 208.879 187.646 208.774 187.767C208.67 187.884 208.59 188.019 208.535 188.172C208.483 188.325 208.457 188.488 208.457 188.66ZM215.283 192.098C214.915 192.098 214.582 192.036 214.282 191.912C213.986 191.785 213.73 191.608 213.516 191.38C213.304 191.152 213.141 190.882 213.027 190.569C212.913 190.257 212.856 189.915 212.856 189.544V189.339C212.856 188.909 212.92 188.527 213.047 188.191C213.174 187.853 213.346 187.566 213.564 187.332C213.783 187.098 214.03 186.92 214.307 186.8C214.583 186.679 214.87 186.619 215.166 186.619C215.544 186.619 215.869 186.684 216.143 186.814C216.419 186.945 216.646 187.127 216.821 187.361C216.997 187.592 217.127 187.866 217.212 188.182C217.297 188.494 217.339 188.836 217.339 189.207V189.612H213.394V188.875H216.436V188.807C216.423 188.572 216.374 188.344 216.289 188.123C216.208 187.902 216.077 187.719 215.898 187.576C215.719 187.433 215.475 187.361 215.166 187.361C214.961 187.361 214.772 187.405 214.6 187.493C214.427 187.578 214.279 187.705 214.155 187.874C214.032 188.043 213.936 188.25 213.867 188.494C213.799 188.738 213.765 189.02 213.765 189.339V189.544C213.765 189.795 213.799 190.031 213.867 190.252C213.939 190.47 214.041 190.662 214.175 190.828C214.312 190.994 214.476 191.124 214.668 191.219C214.863 191.313 215.085 191.36 215.332 191.36C215.651 191.36 215.921 191.295 216.143 191.165C216.364 191.035 216.558 190.861 216.724 190.643L217.271 191.077C217.157 191.25 217.012 191.414 216.836 191.57C216.66 191.727 216.444 191.854 216.187 191.951C215.933 192.049 215.632 192.098 215.283 192.098ZM220.605 186.717V187.41H217.749V186.717H220.605ZM218.716 185.433H219.619V190.691C219.619 190.87 219.647 191.006 219.702 191.097C219.757 191.188 219.829 191.248 219.917 191.277C220.005 191.307 220.099 191.321 220.2 191.321C220.275 191.321 220.353 191.315 220.435 191.302C220.519 191.285 220.583 191.272 220.625 191.263L220.63 192C220.558 192.023 220.464 192.044 220.347 192.063C220.233 192.086 220.094 192.098 219.932 192.098C219.71 192.098 219.507 192.054 219.321 191.966C219.136 191.878 218.988 191.731 218.877 191.526C218.77 191.318 218.716 191.038 218.716 190.687V185.433ZM224.78 191.097V188.377C224.78 188.169 224.738 187.988 224.653 187.835C224.572 187.679 224.448 187.558 224.282 187.474C224.116 187.389 223.911 187.347 223.667 187.347C223.439 187.347 223.239 187.386 223.066 187.464C222.897 187.542 222.764 187.645 222.666 187.771C222.572 187.898 222.524 188.035 222.524 188.182H221.621C221.621 187.993 221.67 187.806 221.768 187.62C221.865 187.435 222.005 187.267 222.188 187.117C222.373 186.964 222.594 186.844 222.852 186.756C223.112 186.665 223.402 186.619 223.721 186.619C224.105 186.619 224.443 186.684 224.736 186.814C225.033 186.945 225.264 187.142 225.43 187.405C225.599 187.666 225.684 187.993 225.684 188.387V190.848C225.684 191.023 225.698 191.211 225.728 191.409C225.76 191.608 225.807 191.779 225.869 191.922V192H224.927C224.881 191.896 224.845 191.757 224.819 191.585C224.793 191.409 224.78 191.246 224.78 191.097ZM224.937 188.797L224.946 189.432H224.033C223.776 189.432 223.547 189.453 223.345 189.495C223.143 189.534 222.974 189.594 222.837 189.676C222.7 189.757 222.596 189.86 222.524 189.983C222.453 190.104 222.417 190.245 222.417 190.408C222.417 190.574 222.454 190.726 222.529 190.862C222.604 190.999 222.716 191.108 222.866 191.189C223.019 191.268 223.206 191.307 223.428 191.307C223.704 191.307 223.949 191.248 224.16 191.131C224.372 191.014 224.539 190.87 224.663 190.701C224.79 190.532 224.858 190.368 224.868 190.208L225.254 190.643C225.231 190.779 225.169 190.931 225.068 191.097C224.967 191.263 224.832 191.422 224.663 191.575C224.497 191.725 224.299 191.85 224.067 191.951C223.84 192.049 223.582 192.098 223.296 192.098C222.938 192.098 222.624 192.028 222.354 191.888C222.087 191.748 221.878 191.561 221.729 191.326C221.582 191.089 221.509 190.823 221.509 190.53C221.509 190.247 221.564 189.998 221.675 189.783C221.785 189.565 221.945 189.384 222.153 189.241C222.362 189.095 222.612 188.984 222.905 188.909C223.198 188.834 223.525 188.797 223.887 188.797H224.937ZM227.1 184.5H228.008V190.975L227.93 192H227.1V184.5ZM231.577 189.314V189.417C231.577 189.801 231.532 190.158 231.44 190.486C231.349 190.812 231.216 191.095 231.04 191.336C230.864 191.577 230.649 191.764 230.396 191.897C230.142 192.031 229.85 192.098 229.521 192.098C229.186 192.098 228.892 192.041 228.638 191.927C228.387 191.81 228.175 191.642 228.003 191.424C227.83 191.206 227.692 190.942 227.588 190.633C227.487 190.324 227.417 189.975 227.378 189.588V189.139C227.417 188.748 227.487 188.398 227.588 188.089C227.692 187.78 227.83 187.516 228.003 187.298C228.175 187.076 228.387 186.909 228.638 186.795C228.888 186.678 229.18 186.619 229.512 186.619C229.844 186.619 230.138 186.684 230.396 186.814C230.653 186.941 230.868 187.124 231.04 187.361C231.216 187.599 231.349 187.884 231.44 188.216C231.532 188.545 231.577 188.911 231.577 189.314ZM230.669 189.417V189.314C230.669 189.051 230.645 188.803 230.596 188.572C230.547 188.338 230.469 188.133 230.361 187.957C230.254 187.778 230.112 187.638 229.937 187.537C229.761 187.433 229.544 187.381 229.287 187.381C229.059 187.381 228.861 187.42 228.691 187.498C228.525 187.576 228.384 187.682 228.267 187.815C228.149 187.946 228.053 188.095 227.979 188.265C227.907 188.431 227.853 188.603 227.817 188.782V189.959C227.869 190.187 227.954 190.407 228.071 190.618C228.192 190.826 228.351 190.997 228.55 191.131C228.752 191.264 229.001 191.331 229.297 191.331C229.541 191.331 229.749 191.282 229.922 191.185C230.098 191.084 230.239 190.945 230.347 190.77C230.457 190.594 230.539 190.39 230.591 190.159C230.643 189.928 230.669 189.681 230.669 189.417ZM233.701 184.5V192H232.793V184.5H233.701ZM237.344 192.098C236.976 192.098 236.642 192.036 236.343 191.912C236.047 191.785 235.791 191.608 235.576 191.38C235.365 191.152 235.202 190.882 235.088 190.569C234.974 190.257 234.917 189.915 234.917 189.544V189.339C234.917 188.909 234.98 188.527 235.107 188.191C235.234 187.853 235.407 187.566 235.625 187.332C235.843 187.098 236.09 186.92 236.367 186.8C236.644 186.679 236.93 186.619 237.227 186.619C237.604 186.619 237.93 186.684 238.203 186.814C238.48 186.945 238.706 187.127 238.882 187.361C239.058 187.592 239.188 187.866 239.272 188.182C239.357 188.494 239.399 188.836 239.399 189.207V189.612H235.454V188.875H238.496V188.807C238.483 188.572 238.434 188.344 238.35 188.123C238.268 187.902 238.138 187.719 237.959 187.576C237.78 187.433 237.536 187.361 237.227 187.361C237.021 187.361 236.833 187.405 236.66 187.493C236.488 187.578 236.34 187.705 236.216 187.874C236.092 188.043 235.996 188.25 235.928 188.494C235.859 188.738 235.825 189.02 235.825 189.339V189.544C235.825 189.795 235.859 190.031 235.928 190.252C235.999 190.47 236.102 190.662 236.235 190.828C236.372 190.994 236.536 191.124 236.729 191.219C236.924 191.313 237.145 191.36 237.393 191.36C237.712 191.36 237.982 191.295 238.203 191.165C238.424 191.035 238.618 190.861 238.784 190.643L239.331 191.077C239.217 191.25 239.072 191.414 238.896 191.57C238.721 191.727 238.504 191.854 238.247 191.951C237.993 192.049 237.692 192.098 237.344 192.098Z" fill="black"/>
<path d="M194.358 291.891V299H193.411L189.832 293.517V299H188.89V291.891H189.832L193.426 297.389V291.891H194.358ZM195.652 296.417V296.305C195.652 295.924 195.708 295.571 195.818 295.245C195.929 294.917 196.089 294.632 196.297 294.391C196.505 294.147 196.757 293.958 197.054 293.824C197.35 293.688 197.682 293.619 198.05 293.619C198.421 293.619 198.755 293.688 199.051 293.824C199.35 293.958 199.604 294.147 199.812 294.391C200.024 294.632 200.185 294.917 200.296 295.245C200.407 295.571 200.462 295.924 200.462 296.305V296.417C200.462 296.798 200.407 297.151 200.296 297.477C200.185 297.802 200.024 298.087 199.812 298.331C199.604 298.572 199.352 298.761 199.056 298.898C198.763 299.031 198.431 299.098 198.06 299.098C197.688 299.098 197.355 299.031 197.059 298.898C196.762 298.761 196.508 298.572 196.297 298.331C196.089 298.087 195.929 297.802 195.818 297.477C195.708 297.151 195.652 296.798 195.652 296.417ZM196.556 296.305V296.417C196.556 296.681 196.587 296.93 196.648 297.164C196.71 297.395 196.803 297.601 196.927 297.78C197.054 297.959 197.212 298.1 197.4 298.204C197.589 298.305 197.809 298.356 198.06 298.356C198.307 298.356 198.523 298.305 198.709 298.204C198.898 298.1 199.054 297.959 199.178 297.78C199.301 297.601 199.394 297.395 199.456 297.164C199.521 296.93 199.554 296.681 199.554 296.417V296.305C199.554 296.045 199.521 295.799 199.456 295.568C199.394 295.333 199.3 295.127 199.173 294.948C199.049 294.765 198.893 294.622 198.704 294.518C198.519 294.414 198.3 294.362 198.05 294.362C197.802 294.362 197.584 294.414 197.396 294.518C197.21 294.622 197.054 294.765 196.927 294.948C196.803 295.127 196.71 295.333 196.648 295.568C196.587 295.799 196.556 296.045 196.556 296.305ZM203.807 293.717V294.41H200.95V293.717H203.807ZM201.917 292.433H202.82V297.692C202.82 297.871 202.848 298.006 202.903 298.097C202.959 298.188 203.03 298.248 203.118 298.278C203.206 298.307 203.3 298.322 203.401 298.322C203.476 298.322 203.554 298.315 203.636 298.302C203.72 298.286 203.784 298.273 203.826 298.263L203.831 299C203.759 299.023 203.665 299.044 203.548 299.064C203.434 299.087 203.296 299.098 203.133 299.098C202.911 299.098 202.708 299.054 202.522 298.966C202.337 298.878 202.189 298.732 202.078 298.527C201.971 298.318 201.917 298.038 201.917 297.687V292.433ZM205.848 293.717V299H204.939V293.717H205.848ZM204.871 292.316C204.871 292.169 204.915 292.045 205.003 291.945C205.094 291.844 205.228 291.793 205.403 291.793C205.576 291.793 205.708 291.844 205.799 291.945C205.893 292.045 205.94 292.169 205.94 292.316C205.94 292.456 205.893 292.576 205.799 292.677C205.708 292.775 205.576 292.823 205.403 292.823C205.228 292.823 205.094 292.775 205.003 292.677C204.915 292.576 204.871 292.456 204.871 292.316ZM209.412 298.356C209.627 298.356 209.826 298.312 210.008 298.224C210.19 298.136 210.34 298.016 210.457 297.863C210.574 297.706 210.641 297.529 210.657 297.33H211.517C211.5 297.643 211.395 297.934 211.199 298.204C211.007 298.471 210.755 298.688 210.442 298.854C210.13 299.017 209.786 299.098 209.412 299.098C209.015 299.098 208.668 299.028 208.372 298.888C208.079 298.748 207.835 298.556 207.64 298.312C207.448 298.068 207.303 297.788 207.205 297.472C207.111 297.153 207.063 296.816 207.063 296.461V296.256C207.063 295.901 207.111 295.566 207.205 295.25C207.303 294.931 207.448 294.65 207.64 294.406C207.835 294.161 208.079 293.969 208.372 293.829C208.668 293.689 209.015 293.619 209.412 293.619C209.826 293.619 210.187 293.704 210.496 293.873C210.805 294.039 211.048 294.267 211.224 294.557C211.403 294.843 211.5 295.169 211.517 295.533H210.657C210.641 295.315 210.579 295.118 210.472 294.943C210.368 294.767 210.224 294.627 210.042 294.523C209.863 294.415 209.653 294.362 209.412 294.362C209.135 294.362 208.903 294.417 208.714 294.528C208.528 294.635 208.38 294.781 208.27 294.967C208.162 295.149 208.084 295.353 208.035 295.577C207.99 295.799 207.967 296.025 207.967 296.256V296.461C207.967 296.692 207.99 296.92 208.035 297.145C208.081 297.369 208.157 297.573 208.265 297.755C208.375 297.937 208.523 298.084 208.709 298.195C208.898 298.302 209.132 298.356 209.412 298.356ZM214.725 299.098C214.357 299.098 214.023 299.036 213.724 298.912C213.427 298.785 213.172 298.608 212.957 298.38C212.745 298.152 212.583 297.882 212.469 297.57C212.355 297.257 212.298 296.915 212.298 296.544V296.339C212.298 295.909 212.361 295.527 212.488 295.192C212.615 294.853 212.788 294.567 213.006 294.332C213.224 294.098 213.471 293.92 213.748 293.8C214.025 293.68 214.311 293.619 214.607 293.619C214.985 293.619 215.311 293.684 215.584 293.815C215.861 293.945 216.087 294.127 216.263 294.362C216.438 294.593 216.569 294.866 216.653 295.182C216.738 295.494 216.78 295.836 216.78 296.207V296.613H212.835V295.875H215.877V295.807C215.864 295.573 215.815 295.345 215.73 295.123C215.649 294.902 215.519 294.72 215.34 294.576C215.161 294.433 214.917 294.362 214.607 294.362C214.402 294.362 214.214 294.406 214.041 294.493C213.868 294.578 213.72 294.705 213.597 294.874C213.473 295.044 213.377 295.25 213.309 295.494C213.24 295.739 213.206 296.02 213.206 296.339V296.544C213.206 296.795 213.24 297.031 213.309 297.252C213.38 297.47 213.483 297.662 213.616 297.828C213.753 297.994 213.917 298.125 214.109 298.219C214.305 298.313 214.526 298.361 214.773 298.361C215.092 298.361 215.363 298.295 215.584 298.165C215.805 298.035 215.999 297.861 216.165 297.643L216.712 298.077C216.598 298.25 216.453 298.414 216.277 298.571C216.102 298.727 215.885 298.854 215.628 298.951C215.374 299.049 215.073 299.098 214.725 299.098ZM222.986 295.675H221.185L221.175 294.918H222.811C223.081 294.918 223.317 294.873 223.519 294.781C223.72 294.69 223.877 294.56 223.987 294.391C224.101 294.218 224.158 294.013 224.158 293.776C224.158 293.515 224.108 293.304 224.007 293.141C223.909 292.975 223.758 292.854 223.553 292.78C223.351 292.701 223.094 292.662 222.781 292.662H221.395V299H220.452V291.891H222.781C223.146 291.891 223.471 291.928 223.758 292.003C224.044 292.075 224.287 292.189 224.485 292.345C224.687 292.498 224.84 292.693 224.944 292.931C225.049 293.169 225.101 293.453 225.101 293.785C225.101 294.078 225.026 294.344 224.876 294.581C224.726 294.816 224.518 295.008 224.251 295.157C223.987 295.307 223.678 295.403 223.323 295.446L222.986 295.675ZM222.942 299H220.813L221.346 298.234H222.942C223.242 298.234 223.496 298.182 223.704 298.077C223.916 297.973 224.077 297.827 224.188 297.638C224.298 297.446 224.354 297.22 224.354 296.959C224.354 296.696 224.306 296.468 224.212 296.276C224.118 296.084 223.969 295.935 223.768 295.831C223.566 295.727 223.305 295.675 222.986 295.675H221.644L221.653 294.918H223.489L223.689 295.192C224.031 295.221 224.321 295.319 224.559 295.485C224.796 295.647 224.977 295.856 225.101 296.11C225.228 296.364 225.291 296.643 225.291 296.949C225.291 297.392 225.193 297.767 224.998 298.073C224.806 298.375 224.534 298.606 224.183 298.766C223.831 298.922 223.418 299 222.942 299ZM226.307 296.417V296.305C226.307 295.924 226.362 295.571 226.473 295.245C226.583 294.917 226.743 294.632 226.951 294.391C227.16 294.147 227.412 293.958 227.708 293.824C228.004 293.688 228.336 293.619 228.704 293.619C229.075 293.619 229.409 293.688 229.705 293.824C230.005 293.958 230.258 294.147 230.467 294.391C230.678 294.632 230.84 294.917 230.95 295.245C231.061 295.571 231.116 295.924 231.116 296.305V296.417C231.116 296.798 231.061 297.151 230.95 297.477C230.84 297.802 230.678 298.087 230.467 298.331C230.258 298.572 230.006 298.761 229.71 298.898C229.417 299.031 229.085 299.098 228.714 299.098C228.343 299.098 228.009 299.031 227.713 298.898C227.417 298.761 227.163 298.572 226.951 298.331C226.743 298.087 226.583 297.802 226.473 297.477C226.362 297.151 226.307 296.798 226.307 296.417ZM227.21 296.305V296.417C227.21 296.681 227.241 296.93 227.303 297.164C227.365 297.395 227.457 297.601 227.581 297.78C227.708 297.959 227.866 298.1 228.055 298.204C228.243 298.305 228.463 298.356 228.714 298.356C228.961 298.356 229.178 298.305 229.363 298.204C229.552 298.1 229.708 297.959 229.832 297.78C229.956 297.601 230.049 297.395 230.11 297.164C230.175 296.93 230.208 296.681 230.208 296.417V296.305C230.208 296.045 230.175 295.799 230.11 295.568C230.049 295.333 229.954 295.127 229.827 294.948C229.703 294.765 229.547 294.622 229.358 294.518C229.173 294.414 228.955 294.362 228.704 294.362C228.457 294.362 228.239 294.414 228.05 294.518C227.864 294.622 227.708 294.765 227.581 294.948C227.457 295.127 227.365 295.333 227.303 295.568C227.241 295.799 227.21 296.045 227.21 296.305ZM235.364 298.097V295.377C235.364 295.169 235.322 294.988 235.237 294.835C235.156 294.679 235.032 294.559 234.866 294.474C234.7 294.389 234.495 294.347 234.251 294.347C234.023 294.347 233.823 294.386 233.65 294.464C233.481 294.542 233.348 294.645 233.25 294.772C233.156 294.899 233.108 295.035 233.108 295.182H232.205C232.205 294.993 232.254 294.806 232.352 294.62C232.449 294.435 232.589 294.267 232.771 294.117C232.957 293.964 233.178 293.844 233.436 293.756C233.696 293.665 233.986 293.619 234.305 293.619C234.689 293.619 235.027 293.684 235.32 293.815C235.617 293.945 235.848 294.142 236.014 294.406C236.183 294.666 236.268 294.993 236.268 295.387V297.848C236.268 298.024 236.282 298.211 236.312 298.409C236.344 298.608 236.391 298.779 236.453 298.922V299H235.511C235.465 298.896 235.429 298.758 235.403 298.585C235.377 298.409 235.364 298.247 235.364 298.097ZM235.521 295.797L235.53 296.432H234.617C234.36 296.432 234.131 296.453 233.929 296.495C233.727 296.534 233.558 296.595 233.421 296.676C233.284 296.757 233.18 296.86 233.108 296.984C233.037 297.104 233.001 297.246 233.001 297.408C233.001 297.574 233.038 297.726 233.113 297.863C233.188 297.999 233.3 298.108 233.45 298.19C233.603 298.268 233.79 298.307 234.012 298.307C234.288 298.307 234.533 298.248 234.744 298.131C234.956 298.014 235.123 297.871 235.247 297.701C235.374 297.532 235.442 297.368 235.452 297.208L235.838 297.643C235.815 297.78 235.753 297.931 235.652 298.097C235.551 298.263 235.416 298.422 235.247 298.575C235.081 298.725 234.882 298.851 234.651 298.951C234.424 299.049 234.166 299.098 233.88 299.098C233.522 299.098 233.208 299.028 232.938 298.888C232.671 298.748 232.462 298.561 232.312 298.326C232.166 298.089 232.093 297.823 232.093 297.531C232.093 297.247 232.148 296.998 232.259 296.783C232.369 296.565 232.529 296.385 232.737 296.241C232.946 296.095 233.196 295.984 233.489 295.909C233.782 295.835 234.109 295.797 234.471 295.797H235.521ZM238.592 294.547V299H237.688V293.717H238.567L238.592 294.547ZM240.242 293.688L240.237 294.528C240.162 294.511 240.091 294.502 240.022 294.498C239.957 294.492 239.882 294.489 239.798 294.489C239.59 294.489 239.406 294.521 239.246 294.586C239.087 294.651 238.951 294.742 238.841 294.86C238.73 294.977 238.642 295.117 238.577 295.28C238.515 295.439 238.475 295.615 238.455 295.807L238.201 295.953C238.201 295.634 238.232 295.335 238.294 295.055C238.359 294.775 238.458 294.528 238.592 294.313C238.725 294.095 238.895 293.925 239.1 293.805C239.308 293.681 239.555 293.619 239.842 293.619C239.907 293.619 239.982 293.628 240.066 293.644C240.151 293.657 240.21 293.671 240.242 293.688ZM244.31 297.975V291.5H245.218V299H244.388L244.31 297.975ZM240.755 296.417V296.315C240.755 295.911 240.804 295.545 240.901 295.216C241.002 294.884 241.144 294.599 241.326 294.362C241.512 294.124 241.731 293.942 241.985 293.815C242.243 293.684 242.529 293.619 242.845 293.619C243.177 293.619 243.466 293.678 243.714 293.795C243.965 293.909 244.176 294.077 244.349 294.298C244.524 294.516 244.663 294.78 244.764 295.089C244.865 295.398 244.935 295.748 244.974 296.139V296.588C244.938 296.976 244.868 297.324 244.764 297.633C244.663 297.942 244.524 298.206 244.349 298.424C244.176 298.642 243.965 298.81 243.714 298.927C243.463 299.041 243.17 299.098 242.835 299.098C242.526 299.098 242.243 299.031 241.985 298.898C241.731 298.764 241.512 298.577 241.326 298.336C241.144 298.095 241.002 297.812 240.901 297.487C240.804 297.158 240.755 296.801 240.755 296.417ZM241.663 296.315V296.417C241.663 296.681 241.689 296.928 241.741 297.159C241.797 297.391 241.881 297.594 241.995 297.77C242.109 297.946 242.254 298.084 242.43 298.185C242.605 298.282 242.815 298.331 243.06 298.331C243.359 298.331 243.605 298.268 243.797 298.141C243.992 298.014 244.148 297.846 244.266 297.638C244.383 297.43 244.474 297.203 244.539 296.959V295.782C244.5 295.603 244.443 295.431 244.368 295.265C244.297 295.096 244.202 294.946 244.085 294.816C243.971 294.682 243.829 294.576 243.66 294.498C243.494 294.42 243.297 294.381 243.069 294.381C242.822 294.381 242.609 294.433 242.43 294.537C242.254 294.638 242.109 294.778 241.995 294.957C241.881 295.133 241.797 295.338 241.741 295.573C241.689 295.804 241.663 296.051 241.663 296.315Z" fill="black"/>
<path d="M40 244C40 232.954 48.9543 224 60 224H75C86.0457 224 95 232.954 95 244V259C95 270.046 86.0457 279 75 279H60C48.9543 279 40 270.046 40 259V244Z" fill="#F7F9FC"/>
<path d="M72.5 243.5C70.55 243.5 68.45 243.9 67 245C65.55 243.9 63.45 243.5 61.5 243.5C60.05 243.5 58.51 243.72 57.22 244.29C56.49 244.62 56 245.33 56 246.14V257.42C56 258.72 57.22 259.68 58.48 259.36C59.46 259.11 60.5 259 61.5 259C63.06 259 64.72 259.26 66.06 259.92C66.66 260.22 67.34 260.22 67.93 259.92C69.27 259.25 70.93 259 72.49 259C73.49 259 74.53 259.11 75.51 259.36C76.77 259.69 77.99 258.73 77.99 257.42V246.14C77.99 245.33 77.5 244.62 76.77 244.29C75.49 243.72 73.95 243.5 72.5 243.5ZM76 256.23C76 256.86 75.42 257.32 74.8 257.21C74.05 257.07 73.27 257.01 72.5 257.01C70.8 257.01 68.35 257.66 67 258.51V247C68.35 246.15 70.8 245.5 72.5 245.5C73.42 245.5 74.33 245.59 75.2 245.78C75.66 245.88 76 246.29 76 246.76V256.23Z" fill="#A998DD"/>
<path d="M68.9799 250.01C68.6599 250.01 68.3699 249.81 68.2699 249.49C68.1399 249.1 68.3599 248.67 68.7499 248.55C70.2899 248.05 72.2799 247.89 74.1099 248.1C74.5199 248.15 74.8199 248.52 74.7699 248.93C74.7199 249.34 74.3499 249.64 73.9399 249.59C72.3199 249.4 70.5499 249.55 69.2099 249.98C69.1299 249.99 69.0499 250.01 68.9799 250.01Z" fill="#B8A7EA"/>
<path d="M68.9799 252.67C68.6599 252.67 68.3699 252.47 68.2699 252.15C68.1399 251.76 68.3599 251.33 68.7499 251.21C70.2799 250.71 72.2799 250.55 74.1099 250.76C74.5199 250.81 74.8199 251.18 74.7699 251.59C74.7199 252 74.3499 252.3 73.9399 252.25C72.3199 252.06 70.5499 252.21 69.2099 252.64C69.1299 252.66 69.0499 252.67 68.9799 252.67Z" fill="#B8A7EA"/>
<path d="M68.9799 255.33C68.6599 255.33 68.3699 255.13 68.2699 254.81C68.1399 254.42 68.3599 253.99 68.7499 253.87C70.2799 253.37 72.2799 253.21 74.1099 253.42C74.5199 253.47 74.8199 253.84 74.7699 254.25C74.7199 254.66 74.3499 254.95 73.9399 254.91C72.3199 254.72 70.5499 254.87 69.2099 255.3C69.1299 255.32 69.0499 255.33 68.9799 255.33Z" fill="#B8A7EA"/>
<path d="M115 244C115 232.954 123.954 224 135 224H150C161.046 224 170 232.954 170 244V259C170 270.046 161.046 279 150 279H135C123.954 279 115 270.046 115 259V244Z" fill="#F7F9FC"/>
<path d="M150 245H142L140.59 243.59C140.21 243.21 139.7 243 139.17 243H134C132.9 243 132.01 243.9 132.01 245L132 257C132 258.1 132.9 259 134 259H150C151.1 259 152 258.1 152 257V247C152 245.9 151.1 245 150 245ZM143 255H137C136.45 255 136 254.55 136 254C136 253.45 136.45 253 137 253H143C143.55 253 144 253.45 144 254C144 254.55 143.55 255 143 255ZM147 251H137C136.45 251 136 250.55 136 250C136 249.45 136.45 249 137 249H147C147.55 249 148 249.45 148 250C148 250.55 147.55 251 147 251Z" fill="#86B670"/>
<path d="M190 244C190 232.954 198.954 224 210 224H225C236.046 224 245 232.954 245 244V259C245 270.046 236.046 279 225 279H210C198.954 279 190 270.046 190 259V244Z" fill="#F7F9FC"/>
<path d="M223 255V250C223 246.93 221.36 244.36 218.5 243.68V243C218.5 242.17 217.83 241.5 217 241.5C216.17 241.5 215.5 242.17 215.5 243V243.68C212.63 244.36 211 246.92 211 250V255L209 257V258H225V257L223 255ZM218 255H216V253H218V255ZM218 251H216V247H218V251ZM217 261C218.1 261 219 260.1 219 259H215C215 260.1 215.89 261 217 261Z" fill="#BCAD93"/>
<path d="M40 350C40 338.954 48.9543 330 60 330H75C86.0457 330 95 338.954 95 350V365C95 376.046 86.0457 385 75 385H60C48.9543 385 40 376.046 40 365V350Z" fill="#F7F9FC"/>
<path d="M58 351C57.45 351 57 351.45 57 352V365C57 366.1 57.9 367 59 367H72C72.55 367 73 366.55 73 366C73 365.45 72.55 365 72 365H60C59.45 365 59 364.55 59 364V352C59 351.45 58.55 351 58 351ZM75 347H63C61.9 347 61 347.9 61 349V361C61 362.1 61.9 363 63 363H75C76.1 363 77 362.1 77 361V349C77 347.9 76.1 347 75 347ZM67 359.5V350.5L72.47 354.6C72.74 354.8 72.74 355.2 72.47 355.4L67 359.5Z" fill="#C895C6"/>
<path d="M115 351C115 339.954 123.954 331 135 331H150C161.046 331 170 339.954 170 351V366C170 377.046 161.046 386 150 386H135C123.954 386 115 377.046 115 366V351Z" fill="#F7F9FC"/>
<path d="M150 353H149V361C149 361.55 148.55 362 148 362H136V363C136 364.1 136.9 365 138 365H148L152 369V355C152 353.9 151.1 353 150 353ZM147 358V351C147 349.9 146.1 349 145 349H134C132.9 349 132 349.9 132 351V364L136 360H145C146.1 360 147 359.1 147 358Z" fill="#9BB1A4"/>
<defs>
<filter id="filter0_d_1484_15407" x="0" y="0" width="329" height="532" filterUnits="userSpaceOnUse" color-interpolation-filters="sRGB">
<feFlood flood-opacity="0" result="BackgroundImageFix"/>
<feColorMatrix in="SourceAlpha" type="matrix" values="0 0 0 0 0 0 0 0 0 0 0 0 0 0 0 0 0 0 127 0" result="hardAlpha"/>
<feOffset dx="22" dy="22"/>
<feGaussianBlur stdDeviation="20"/>
<feComposite in2="hardAlpha" operator="out"/>
<feColorMatrix type="matrix" values="0 0 0 0 0.194063 0 0 0 0 0.26865 0 0 0 0 0.3375 0 0 0 0.07 0"/>
<feBlend mode="normal" in2="BackgroundImageFix" result="effect1_dropShadow_1484_15407"/>
<feBlend mode="normal" in="SourceGraphic" in2="effect1_dropShadow_1484_15407" result="shape"/>
</filter>
</defs>
</svg>
