<svg width="40" height="40" viewBox="0 0 40 40" fill="none" xmlns="http://www.w3.org/2000/svg">
<path d="M24.6168 25C25.8162 25.0044 26.965 25.484 27.8116 26.3337C28.6582 27.1833 29.1335 28.3339 29.1335 29.5333V32.6833H10.8002V29.4667C10.8177 28.2672 11.31 27.1237 12.169 26.2864C13.0281 25.4492 14.184 24.9866 15.3835 25H15.8002L18.4835 27.8833C18.6866 28.0996 18.9319 28.2718 19.2042 28.3893C19.4766 28.5069 19.7702 28.5672 20.0668 28.5667C20.3795 28.5715 20.6896 28.5102 20.9768 28.3866C21.2641 28.2631 21.5219 28.0802 21.7335 27.85L24.2335 25H24.6168ZM24.6168 23H23.3335L20.1835 26.5167C20.1523 26.5472 20.1104 26.5643 20.0668 26.5643C20.0232 26.5643 19.9813 26.5472 19.9502 26.5167L16.6168 23H15.3835C13.6536 23.0044 11.9961 23.6947 10.7745 24.9195C9.55286 26.1442 8.86682 27.8035 8.86682 29.5333V32.8667C8.8668 33.3633 9.06293 33.8398 9.41253 34.1925C9.76213 34.5452 10.2369 34.7456 10.7335 34.75H29.2668C29.7634 34.7456 30.2382 34.5452 30.5878 34.1925C30.9374 33.8398 31.1335 33.3633 31.1335 32.8667V29.5333C31.1335 27.8035 30.4475 26.1442 29.2258 24.9195C28.0042 23.6947 26.3467 23.0044 24.6168 23Z" fill="#1F3965"/>
<path d="M16.117 14.6999L19.4504 15.6499C19.6329 15.674 19.8178 15.674 20.0004 15.6499C20.1773 15.6739 20.3567 15.6739 20.5337 15.6499L23.9504 14.7166C24.2644 15.5356 24.3225 16.4306 24.117 17.2833C23.9346 18.0302 23.5506 18.7127 23.0069 19.2564C22.4632 19.8001 21.7806 20.1841 21.0337 20.3666C20.695 20.4456 20.3482 20.4847 20.0004 20.4833C18.8892 20.4658 17.8295 20.012 17.05 19.22C16.2704 18.428 15.8336 17.3612 15.8337 16.2499C15.8341 15.7204 15.9301 15.1953 16.117 14.6999ZM15.317 12.4166C15.2572 12.4097 15.1967 12.4184 15.1412 12.4417C15.0857 12.4651 15.0372 12.5024 15.0004 12.5499C14.2974 13.4768 13.8678 14.5819 13.7602 15.7402C13.6527 16.8985 13.8714 18.0638 14.3916 19.1043C14.9118 20.1448 15.7129 21.019 16.7041 21.6279C17.6953 22.2368 18.8371 22.5562 20.0004 22.5499C20.4996 22.5512 20.9973 22.4953 21.4837 22.3833C22.4814 22.1409 23.4037 21.6558 24.1688 20.9712C24.9338 20.2865 25.518 19.4235 25.8692 18.4588C26.2205 17.494 26.328 16.4575 26.1822 15.4412C26.0365 14.4249 25.642 13.4604 25.0337 12.6333C25.0018 12.5928 24.9614 12.5598 24.9153 12.5368C24.8692 12.5137 24.8186 12.5012 24.767 12.4999H24.667L20.0004 13.7333L15.417 12.4166H15.317Z" fill="#1F3965"/>
<path fill-rule="evenodd" clip-rule="evenodd" d="M24.5669 8.96663L20.0002 7.4833L15.4502 8.96663L20.0002 10.45L24.5669 8.96663ZM19.9002 5.3833H20.0002L20.0336 5.41663H20.1502L30.0002 8.59997C30.0729 8.62758 30.1355 8.67665 30.1796 8.74065C30.2237 8.80465 30.2474 8.88055 30.2474 8.9583C30.2474 9.03605 30.2237 9.11196 30.1796 9.17595C30.1355 9.23995 30.0729 9.28902 30.0002 9.31663L20.2169 12.5166H20.0002L11.5164 9.80181V13.95C11.5164 14.4103 11.1433 14.7834 10.6831 14.7834C10.2228 14.7834 9.84973 14.4103 9.84973 13.95V9.38335C9.84973 9.33032 9.85468 9.27845 9.86415 9.22818C9.84827 9.21216 9.83376 9.1947 9.82084 9.17595C9.77669 9.11196 9.75305 9.03605 9.75305 8.9583C9.75305 8.88055 9.77669 8.80465 9.82084 8.74065C9.86498 8.67665 9.92754 8.62758 10.0002 8.59997L19.9002 5.3833Z" fill="#1F3965"/>
</svg>
