<svg width="40" height="40" viewBox="0 0 40 40" fill="none" xmlns="http://www.w3.org/2000/svg">
<path fill-rule="evenodd" clip-rule="evenodd" d="M25.7415 9.2586C25.5758 9.09295 25.3511 8.99988 25.1169 8.99988H6.55021C6.31593 8.99988 6.09125 9.09295 5.9256 9.2586C5.75994 9.42426 5.66687 9.64894 5.66687 9.88321V23.4499C5.66687 23.6842 5.75994 23.9088 5.9256 24.0745C6.09125 24.2401 6.31593 24.3332 6.55021 24.3332H10.3669V27.1165L12.4002 24.9999L13.1002 24.3332H25.1169C25.3511 24.3332 25.5758 24.2401 25.7415 24.0745C25.9071 23.9088 26.0002 23.6842 26.0002 23.4499V9.88321C26.0002 9.64894 25.9071 9.42426 25.7415 9.2586ZM6.55021 6.66655H25.1169C25.5399 6.66434 25.9592 6.74603 26.3504 6.9069C26.7417 7.06777 27.0972 7.30463 27.3963 7.60376C27.6955 7.9029 27.9323 8.25838 28.0932 8.64964C28.2541 9.0409 28.3357 9.46018 28.3335 9.88321V12.5001H32.3668C32.7358 12.4978 33.1015 12.5693 33.4424 12.7105C33.7833 12.8516 34.0925 13.0596 34.3519 13.322C34.6112 13.5845 34.8155 13.8962 34.9526 14.2387C35.0897 14.5813 35.1568 14.9478 35.1502 15.3167V27.2001C35.1546 27.5634 35.0874 27.924 34.9524 28.2614C34.8174 28.5987 34.6173 28.9062 34.3635 29.1662C34.1096 29.4262 33.8071 29.6337 33.4731 29.7768C33.1391 29.9198 32.7802 29.9957 32.4168 30.0001H31.1668V33.3167C31.1691 33.4275 31.1491 33.5377 31.1083 33.6407C31.0674 33.7438 31.0063 33.8376 30.9287 33.9168C30.8511 33.9959 30.7585 34.0588 30.6563 34.1017C30.5541 34.1446 30.4444 34.1667 30.3335 34.1667C30.2206 34.1652 30.1093 34.1408 30.0061 34.095C29.903 34.0491 29.8102 33.9828 29.7335 33.9001L26.0335 30.0001H16.6668C16.2993 30.0023 15.935 29.9313 15.5952 29.7911C15.2554 29.651 14.9469 29.4446 14.6878 29.1839C14.4287 28.9232 14.2241 28.6136 14.086 28.2729C13.9479 27.9323 13.8791 27.5676 13.8835 27.2001V26.8541L9.71687 31.1165C9.62851 31.2138 9.52028 31.2909 9.3995 31.3427C9.27873 31.3944 9.14823 31.4196 9.01687 31.4165C8.88712 31.4188 8.75824 31.3949 8.63791 31.3463C8.51759 31.2977 8.40829 31.2253 8.31652 31.1336C8.22476 31.0418 8.15241 30.9325 8.10379 30.8122C8.05517 30.6918 8.03128 30.563 8.03354 30.4332V26.6665H6.55021C6.12717 26.6688 5.70789 26.5871 5.31663 26.4262C4.92537 26.2653 4.56989 26.0285 4.27075 25.7293C3.97162 25.4302 3.73476 25.0747 3.57389 24.6835C3.41302 24.2922 3.33133 23.8729 3.33354 23.4499V9.88321C3.33133 9.46018 3.41302 9.0409 3.57389 8.64964C3.73476 8.25838 3.97162 7.9029 4.27075 7.60376C4.56989 7.30463 4.92537 7.06777 5.31663 6.9069C5.70789 6.74603 6.12717 6.66434 6.55021 6.66655ZM16.3002 26.6665V27.2001C16.2932 27.2548 16.2972 27.3105 16.3119 27.3637C16.3266 27.4169 16.3518 27.4667 16.3859 27.5101C16.42 27.5535 16.4624 27.5897 16.5106 27.6166C16.5589 27.6435 16.612 27.6605 16.6668 27.6667H27.0002L27.7002 28.4167L28.7502 29.5167V27.6667H32.4335C32.5456 27.6541 32.6483 27.5983 32.7199 27.5112C32.7914 27.424 32.8262 27.3124 32.8168 27.2001V15.3167C32.8265 15.2025 32.7923 15.0889 32.721 14.999C32.6498 14.9092 32.5469 14.85 32.4335 14.8334H28.3335V23.4499C28.3357 23.8729 28.2541 24.2922 28.0932 24.6835C27.9323 25.0747 27.6955 25.4302 27.3963 25.7293C27.0972 26.0285 26.7417 26.2653 26.3504 26.4262C25.9592 26.5871 25.5399 26.6688 25.1169 26.6665H16.3002Z" fill="#1F3965"/>
</svg>
