<svg width="25" height="25" viewBox="0 0 25 25" fill="none" xmlns="http://www.w3.org/2000/svg">
<path d="M21.7834 2.33338C22.0176 2.33338 22.2423 2.42644 22.408 2.5921C22.5736 2.75776 22.6667 2.98244 22.6667 3.21671V16.7834C22.6667 17.0177 22.5736 17.2423 22.408 17.408C22.2423 17.5736 22.0176 17.6667 21.7834 17.6667H9.76671L9.06671 18.3334L7.03338 20.45V17.6667H3.21671C2.98244 17.6667 2.75776 17.5736 2.5921 17.408C2.42644 17.2423 2.33338 17.0177 2.33338 16.7834V3.21671C2.33338 2.98244 2.42644 2.75776 2.5921 2.5921C2.75776 2.42644 2.98244 2.33338 3.21671 2.33338H21.7834ZM21.7834 4.36344e-05H3.21671C2.79367 -0.00216548 2.3744 0.0795279 1.98314 0.240398C1.59187 0.401268 1.23639 0.638122 0.937258 0.937258C0.638122 1.23639 0.401268 1.59187 0.240398 1.98314C0.0795279 2.3744 -0.00216548 2.79367 4.36344e-05 3.21671V16.7834C-0.00216548 17.2064 0.0795279 17.6257 0.240398 18.017C0.401268 18.4082 0.638122 18.7637 0.937258 19.0628C1.23639 19.362 1.59187 19.5988 1.98314 19.7597C2.3744 19.9206 2.79367 20.0023 3.21671 20H4.70004V23.7667C4.69779 23.8965 4.72168 24.0253 4.7703 24.1457C4.81891 24.266 4.89126 24.3753 4.98303 24.4671C5.07479 24.5588 5.18409 24.6312 5.30442 24.6798C5.42474 24.7284 5.55362 24.7523 5.68338 24.75C5.81474 24.7531 5.94523 24.7279 6.06601 24.6762C6.18678 24.6244 6.29502 24.5473 6.38338 24.45L10.7334 20H21.7834C22.2064 20.0023 22.6257 19.9206 23.0169 19.7597C23.4082 19.5988 23.7637 19.362 24.0628 19.0628C24.362 18.7637 24.5988 18.4082 24.7597 18.017C24.9206 17.6257 25.0022 17.2064 25 16.7834V3.21671C25.0022 2.79367 24.9206 2.3744 24.7597 1.98314C24.5988 1.59187 24.362 1.23639 24.0628 0.937258C23.7637 0.638122 23.4082 0.401268 23.0169 0.240398C22.6257 0.0795279 22.2064 -0.00216548 21.7834 4.36344e-05Z" fill="#1F3965"/>
</svg>
