<svg width="40" height="40" viewBox="0 0 40 40" fill="none" xmlns="http://www.w3.org/2000/svg">
<path fill-rule="evenodd" clip-rule="evenodd" d="M12.033 4.84996C12.7694 4.84996 13.3664 5.44691 13.3664 6.18329V7.76663H26.6166V6.18329C26.6166 5.44691 27.2136 4.84996 27.95 4.84996C28.6863 4.84996 29.2833 5.44691 29.2833 6.18329V7.76663H30.7833C31.9768 7.76663 33.1214 8.24073 33.9653 9.08465C34.8092 9.92856 35.2833 11.0732 35.2833 12.2666V30.5C35.2833 31.6934 34.8092 32.838 33.9653 33.6819C33.1214 34.5259 31.9768 35 30.7833 35H9.5C8.30653 35 7.16193 34.5259 6.31802 33.6819C5.47411 32.838 5 31.6934 5 30.5V12.2666C5 11.0732 5.47411 9.92856 6.31802 9.08465C7.16193 8.24073 8.30653 7.76663 9.5 7.76663H10.6997V6.18329C10.6997 5.44691 11.2967 4.84996 12.033 4.84996ZM32.0797 10.9703C31.7359 10.6264 31.2696 10.4333 30.7833 10.4333H9.5C9.01377 10.4333 8.54745 10.6264 8.20364 10.9703C7.85982 11.3141 7.66667 11.7804 7.66667 12.2666V14.3333H32.6167V12.2666C32.6167 11.7804 32.4235 11.3141 32.0797 10.9703ZM32.6167 17H7.66667V30.5C7.66667 30.9862 7.85982 31.4525 8.20364 31.7963C8.54745 32.1401 9.01377 32.3333 9.5 32.3333H30.7833C31.2696 32.3333 31.7359 32.1401 32.0797 31.7963C32.4235 31.4525 32.6167 30.9862 32.6167 30.5V17Z" fill="#1F3965"/>
<path d="M14.1998 18.6H11.2665C10.3828 18.6 9.6665 19.3164 9.6665 20.2V23.1333C9.6665 24.017 10.3828 24.7333 11.2665 24.7333H14.1998C15.0835 24.7333 15.7998 24.017 15.7998 23.1333V20.2C15.7998 19.3164 15.0835 18.6 14.1998 18.6Z" fill="#1F3965"/>
<path d="M21.8668 18.6H18.9335C18.0498 18.6 17.3335 19.3164 17.3335 20.2V23.1333C17.3335 24.017 18.0498 24.7333 18.9335 24.7333H21.8668C22.7505 24.7333 23.4668 24.017 23.4668 23.1333V20.2C23.4668 19.3164 22.7505 18.6 21.8668 18.6Z" fill="#1F3965"/>
<path d="M29.5333 19H26.6C25.7163 19 25 19.7163 25 20.6V23.5333C25 24.417 25.7163 25.1333 26.6 25.1333H29.5333C30.417 25.1333 31.1333 24.417 31.1333 23.5333V20.6C31.1333 19.7163 30.417 19 29.5333 19Z" fill="#1F3965"/>
</svg>
