<svg width="40" height="40" viewBox="0 0 40 40" fill="none" xmlns="http://www.w3.org/2000/svg">
<path d="M20.0002 5.60004C22.8482 5.60004 25.6323 6.44459 28.0004 8.02688C30.3684 9.60917 32.2141 11.8581 33.304 14.4894C34.3939 17.1207 34.6791 20.016 34.1235 22.8093C33.5679 25.6027 32.1964 28.1685 30.1825 30.1824C28.1686 32.1963 25.6028 33.5677 22.8095 34.1234C20.0161 34.679 17.1208 34.3938 14.4895 33.3039C11.8583 32.214 9.6093 30.3683 8.02701 28.0003C6.44472 25.6322 5.60017 22.8481 5.60017 20C5.60897 16.1836 7.12894 12.526 9.82756 9.82743C12.5262 7.12881 16.1838 5.60884 20.0002 5.60004V5.60004ZM20.0002 3.33337C16.7038 3.33337 13.4815 4.31086 10.7407 6.14221C7.99985 7.97357 5.86364 10.5765 4.60218 13.622C3.34072 16.6674 3.01066 20.0185 3.65375 23.2515C4.29684 26.4846 5.88418 29.4543 8.21506 31.7852C10.5459 34.116 13.5156 35.7034 16.7487 36.3465C19.9817 36.9896 23.3328 36.6595 26.3782 35.398C29.4237 34.1366 32.0266 32.0004 33.858 29.2595C35.6894 26.5187 36.6668 23.2964 36.6668 20C36.6668 17.8113 36.2357 15.6441 35.3982 13.622C34.5606 11.5999 33.3329 9.76257 31.7853 8.21493C30.2376 6.66728 28.4003 5.43963 26.3782 4.60205C24.3561 3.76447 22.1889 3.33337 20.0002 3.33337V3.33337Z" fill="#1F3965"/>
<path fill-rule="evenodd" clip-rule="evenodd" d="M20.2164 10.65C20.8607 10.65 21.3831 11.1724 21.3831 11.8167V13.3579C22.5858 13.5246 23.7216 14.0169 24.6667 14.7833C24.9139 14.9774 25.075 15.2608 25.1155 15.5724C25.1561 15.884 25.0727 16.1992 24.8834 16.45C24.8199 16.5469 24.7334 16.6266 24.6316 16.6819C24.5298 16.7371 24.4159 16.7663 24.3 16.7667H23.95C23.7906 16.7017 23.6395 16.6177 23.5 16.5167C23.0161 16.1727 22.4964 15.8822 21.95 15.65C21.4151 15.4597 20.8511 15.3638 20.2834 15.3667C19.5808 15.3362 18.8866 15.5287 18.3 15.9167C18.0647 16.0879 17.8748 16.3141 17.747 16.5755C17.6192 16.837 17.5573 17.1258 17.5667 17.4167C17.5578 17.6162 17.5902 17.8154 17.6619 18.0018C17.7336 18.1883 17.843 18.3579 17.9834 18.5C18.2863 18.7855 18.6515 18.9966 19.05 19.1167C19.4667 19.2667 20.05 19.4333 20.7167 19.6167C21.527 19.8133 22.3232 20.0639 23.1 20.3667C23.7099 20.6135 24.2484 21.0088 24.6667 21.5167C25.1274 22.1101 25.3582 22.8499 25.3167 23.6C25.3121 24.0818 25.2125 24.5579 25.0238 25.0011C24.835 25.4444 24.5608 25.8461 24.2167 26.1833C23.4325 26.917 22.4432 27.3916 21.3831 27.5453V28.95C21.3831 29.5944 20.8607 30.1167 20.2164 30.1167C19.5721 30.1167 19.0497 29.5944 19.0497 28.95V27.588C18.34 27.5191 17.6408 27.3665 16.9667 27.1333C16.2963 26.899 15.6665 26.5616 15.1 26.1333C14.9517 26.0265 14.8269 25.8904 14.7334 25.7333C14.662 25.559 14.628 25.3716 14.6334 25.1833C14.6294 24.9173 14.7177 24.6582 14.8834 24.45C14.9479 24.3541 15.0346 24.2752 15.1362 24.2201C15.2377 24.1649 15.3511 24.1352 15.4667 24.1333C15.5876 24.1082 15.7124 24.1082 15.8334 24.1333C15.9898 24.1981 16.1403 24.2761 16.2834 24.3667C16.8413 24.7358 17.4469 25.0273 18.0834 25.2333C18.6915 25.4297 19.3277 25.5254 19.9667 25.5167C20.6924 25.5623 21.4145 25.3817 22.0334 25C22.2767 24.8366 22.4727 24.6118 22.6014 24.3485C22.7302 24.0851 22.7872 23.7924 22.7667 23.5C22.7735 23.3245 22.7411 23.1497 22.6719 22.9882C22.6027 22.8268 22.4985 22.6828 22.3667 22.5667C22.0754 22.3077 21.7355 22.1094 21.3667 21.9833C20.9667 21.85 20.4 21.6833 19.7 21.5C18.8677 21.2975 18.0493 21.0414 17.25 20.7333C16.607 20.4715 16.0356 20.0601 15.5834 19.5333C15.1555 18.9265 14.9495 18.1908 15 17.45C14.9954 16.9336 15.0965 16.4218 15.2972 15.946C15.4978 15.4702 15.7937 15.0405 16.1667 14.6833C16.9697 13.9537 17.9756 13.4868 19.0497 13.3438V11.8167C19.0497 11.1724 19.5721 10.65 20.2164 10.65Z" fill="#1F3965"/>
</svg>
