<svg width="40" height="40" viewBox="0 0 40 40" fill="none" xmlns="http://www.w3.org/2000/svg">
<path d="M34.5335 21.3166C34.044 20.7261 33.4065 20.2761 32.6862 20.0126C31.9659 19.7491 31.1885 19.6814 30.4335 19.8166C29.4919 20.0218 28.6158 20.4569 27.8835 21.0833C27.8835 17.75 27.8835 14.4166 27.8835 11.0833V9.86664C27.91 9.24343 27.8426 8.61978 27.6835 8.01664C27.4714 7.4074 27.0819 6.87553 26.5651 6.48942C26.0483 6.10332 25.4279 5.88062 24.7835 5.84998C24.2786 5.79015 23.7669 5.8649 23.3002 6.06664C23.0946 5.23747 22.5901 4.51338 21.8835 4.03331C21.4987 3.79655 21.0698 3.64049 20.6229 3.57459C20.1759 3.50869 19.7202 3.53434 19.2835 3.64998C18.7712 3.78876 18.2864 4.01424 17.8502 4.31664C17.2548 3.79123 16.4763 3.52174 15.6835 3.56664C14.9907 3.56683 14.312 3.76241 13.7253 4.13093C13.1386 4.49944 12.6678 5.02594 12.3668 5.64998C12.1229 6.31044 12.0152 7.01344 12.0502 7.71664H11.5668C10.8546 7.7018 10.1564 7.9155 9.57454 8.32642C8.99266 8.73733 8.55772 9.32385 8.33349 9.99998C8.09289 10.8329 8.00259 11.702 8.06682 12.5666C8.06682 16 8.06682 19.5 7.91682 22.7833C7.76682 26.0666 7.91682 29.25 9.58349 32C10.8241 33.9017 12.6945 35.3059 14.8668 35.9666C15.9099 36.283 16.9935 36.4458 18.0835 36.45C20.2169 36.4359 22.309 35.8612 24.1502 34.7833C26.6445 33.2047 28.8488 31.209 30.6668 28.8833L31.9335 27.4666C32.2668 27.1 34.2502 24.9166 34.7668 24.3C35.1152 23.8665 35.285 23.3165 35.2416 22.762C35.1983 22.2076 34.945 21.6907 34.5335 21.3166ZM30.2002 25.9166L28.9668 27.3C27.302 29.4257 25.2972 31.2615 23.0335 32.7333C21.9234 33.4091 20.685 33.847 19.3968 34.0191C18.1087 34.1913 16.7988 34.094 15.5502 33.7333C13.889 33.2503 12.4572 32.1854 11.5168 30.7333C10.1502 28.55 10.1168 25.85 10.2168 22.8166C10.3335 19.4833 10.4335 15.9666 10.3668 12.4666C10.3092 11.868 10.36 11.2639 10.5168 10.6833C10.5854 10.4918 10.709 10.3249 10.872 10.2033C11.0351 10.0818 11.2304 10.011 11.4335 9.99998C11.5356 10.0045 11.6352 10.0323 11.7248 10.0815C11.8144 10.1306 11.8915 10.1996 11.9502 10.2833C11.962 10.3494 11.962 10.4172 11.9502 10.4833V18.3333C11.9479 18.4828 11.9757 18.6311 12.0318 18.7697C12.088 18.9082 12.1714 19.034 12.2771 19.1397C12.3828 19.2454 12.5086 19.3288 12.6471 19.385C12.7857 19.4411 12.934 19.4689 13.0835 19.4666C13.2405 19.4806 13.3987 19.4616 13.548 19.4109C13.6972 19.3602 13.8343 19.2789 13.9503 19.1722C14.0664 19.0656 14.159 18.9359 14.2221 18.7914C14.2852 18.647 14.3174 18.4909 14.3168 18.3333V16.6666C14.3168 14.7666 14.3168 12.8666 14.3168 10.9666C14.3324 10.7058 14.3324 10.4442 14.3168 10.1833V7.83331C14.2845 7.38891 14.3354 6.94239 14.4668 6.51664C14.5973 6.30722 14.779 6.13455 14.9948 6.01497C15.2107 5.8954 15.4534 5.83287 15.7002 5.83331C16.2168 5.83331 16.3168 6.06664 16.3668 6.13331C16.3973 6.37122 16.3973 6.61206 16.3668 6.84998V7.91664C16.3668 10.95 16.3668 18.5333 16.3668 18.5666C16.3711 18.8659 16.4919 19.1517 16.7035 19.3633C16.9151 19.5749 17.2009 19.6957 17.5002 19.7C17.6504 19.7 17.7992 19.6701 17.9378 19.6121C18.0764 19.5541 18.202 19.4692 18.3075 19.3622C18.413 19.2551 18.4961 19.1282 18.5521 18.9888C18.608 18.8494 18.6357 18.7002 18.6335 18.55V15C18.6335 12.6166 18.6335 10.2333 18.6335 7.83331V6.66664C18.6335 6.44998 19.1002 5.99998 19.7002 5.84998C19.9682 5.78055 20.2522 5.81014 20.5002 5.93331C20.7283 6.17976 20.9001 6.47286 21.0037 6.7923C21.1073 7.11174 21.1402 7.44989 21.1002 7.78331V18.5666C21.1002 18.8672 21.2196 19.1555 21.4321 19.368C21.6446 19.5806 21.9329 19.7 22.2335 19.7C22.5341 19.7 22.8223 19.5806 23.0349 19.368C23.2474 19.1555 23.3668 18.8672 23.3668 18.5666V8.74998C23.4742 8.56307 23.6264 8.40581 23.8097 8.29234C23.993 8.17887 24.2016 8.11277 24.4168 8.09998C24.9279 8.09998 25.2446 8.29998 25.3668 8.69998C25.454 9.08236 25.4877 9.475 25.4668 9.86664V11.1C25.4668 14.7666 25.4668 18.45 25.5502 22.2666C23.5502 22.2666 19.7502 22.6 17.8502 25.6C17.7 25.8343 17.649 26.1186 17.7084 26.3905C17.7678 26.6624 17.9327 26.8996 18.1668 27.05C18.3342 27.1623 18.532 27.2205 18.7335 27.2166C18.9094 27.2165 19.0825 27.1722 19.2369 27.0878C19.3912 27.0033 19.5219 26.8814 19.6168 26.7333C21.2002 24.2666 25.1002 24.3833 26.2835 24.4666C26.4588 24.5476 26.6518 24.5824 26.8443 24.5678C27.0368 24.5533 27.2224 24.4897 27.3835 24.3833C27.8478 24.0713 28.2931 23.7318 28.7168 23.3666C29.2914 22.7648 30.0164 22.3274 30.8168 22.1C31.184 22.0429 31.5598 22.082 31.9074 22.2135C32.255 22.3449 32.5626 22.5642 32.8002 22.85V22.95C32.2668 23.6333 30.5668 25.5333 30.2002 25.9166Z" fill="#1F3965"/>
</svg>
