<svg width="40" height="40" viewBox="0 0 40 40" fill="none" xmlns="http://www.w3.org/2000/svg">
<path fill-rule="evenodd" clip-rule="evenodd" d="M16.24 15.4419C15.8227 14.9899 15.126 14.9397 14.6481 15.3272L8.48145 20.3272L9.95098 22.1396L15.2679 17.8286L18.833 21.6898V36.667H21.1663V21.6895L24.7312 17.8286L30.0481 22.1396L31.5176 20.3272L25.351 15.3272C24.8731 14.9397 24.1764 14.9899 23.7591 15.4419L19.9995 19.5136L16.24 15.4419Z" fill="#1F3965"/>
<path fill-rule="evenodd" clip-rule="evenodd" d="M17.4901 9.11634L10.3086 19.6365C10.2758 19.7143 10.2341 19.7895 10.1834 19.8606L10.1833 19.8668V34.3835C10.1833 34.3985 10.186 34.4073 10.1879 34.4119C10.1887 34.4139 10.1896 34.4155 10.1903 34.4168H29.8043C29.8078 34.4133 29.8111 34.4085 29.8132 34.4035C29.8149 34.3994 29.8166 34.3934 29.8166 34.3835V19.8613C29.8163 19.86 29.8159 19.8583 29.8153 19.8564C29.815 19.8553 29.8147 19.8542 29.8143 19.853C29.8121 19.8462 29.8091 19.8386 29.8054 19.831C29.8025 19.8248 29.7996 19.8199 29.7974 19.8163L22.4933 9.11634H17.4901ZM17.7511 4.59522C18.8304 2.99625 21.1529 2.99625 22.2321 4.59522L31.7374 18.5197C31.9827 18.8877 32.15 19.3596 32.15 19.8502V34.3835C32.15 35.673 31.1156 36.7502 29.8166 36.7502H10.1833C8.85702 36.7502 7.84998 35.6621 7.84998 34.3835V19.8668C7.84998 19.4982 7.93013 19.115 8.12383 18.7579C8.15615 18.6716 8.19918 18.588 8.25308 18.5091L17.7511 4.59522Z" fill="#1F3965"/>
</svg>
