<svg width="40" height="40" viewBox="0 0 40 40" fill="none" xmlns="http://www.w3.org/2000/svg">
<path fill-rule="evenodd" clip-rule="evenodd" d="M12.033 4.84998C12.7694 4.84998 13.3664 5.44693 13.3664 6.18331V7.76664H26.6166V6.18331C26.6166 5.44693 27.2136 4.84998 27.95 4.84998C28.6863 4.84998 29.2833 5.44693 29.2833 6.18331V7.76664H30.7833C31.9768 7.76664 33.1214 8.24075 33.9653 9.08466C34.8092 9.92858 35.2833 11.0732 35.2833 12.2666V30.5C35.2833 31.6934 34.8092 32.838 33.9653 33.682C33.1214 34.5259 31.9768 35 30.7833 35H9.5C8.30653 35 7.16193 34.5259 6.31802 33.682C5.47411 32.838 5 31.6934 5 30.5V12.2666C5 11.0732 5.47411 9.92858 6.31802 9.08466C7.16193 8.24075 8.30653 7.76664 9.5 7.76664H10.6997V6.18331C10.6997 5.44693 11.2967 4.84998 12.033 4.84998ZM32.0797 10.9703C31.7359 10.6265 31.2696 10.4333 30.7833 10.4333H9.5C9.01377 10.4333 8.54745 10.6265 8.20364 10.9703C7.85982 11.3141 7.66667 11.7804 7.66667 12.2666V14.3333H32.6167V12.2666C32.6167 11.7804 32.4235 11.3141 32.0797 10.9703ZM32.6167 16.9999H7.66667V30.5C7.66667 30.9862 7.85982 31.4525 8.20364 31.7963C8.54745 32.1402 9.01377 32.3333 9.5 32.3333H30.7833C31.2696 32.3333 31.7359 32.1402 32.0797 31.7963C32.4235 31.4525 32.6167 30.9862 32.6167 30.5V16.9999Z" fill="#1F3965"/>
<path d="M14.1998 18.6H11.2665C10.3828 18.6 9.6665 19.3163 9.6665 20.2V23.1333C9.6665 24.017 10.3828 24.7333 11.2665 24.7333H14.1998C15.0835 24.7333 15.7998 24.017 15.7998 23.1333V20.2C15.7998 19.3163 15.0835 18.6 14.1998 18.6Z" fill="#1F3965"/>
<path d="M21.8668 18.6H18.9335C18.0498 18.6 17.3335 19.3163 17.3335 20.2V23.1333C17.3335 24.017 18.0498 24.7333 18.9335 24.7333H21.8668C22.7505 24.7333 23.4668 24.017 23.4668 23.1333V20.2C23.4668 19.3163 22.7505 18.6 21.8668 18.6Z" fill="#1F3965"/>
<path d="M29.5333 18.6H26.6C25.7163 18.6 25 19.3163 25 20.2V23.1333C25 24.017 25.7163 24.7333 26.6 24.7333H29.5333C30.417 24.7333 31.1333 24.017 31.1333 23.1333V20.2C31.1333 19.3163 30.417 18.6 29.5333 18.6Z" fill="#1F3965"/>
</svg>
