<svg width="40" height="40" viewBox="0 0 40 40" fill="none" xmlns="http://www.w3.org/2000/svg">
<path d="M34.0002 9.33329V28.2166H26.0502C24.3589 28.218 22.6998 28.6788 21.2502 29.55V12.15L23.5502 10.3833C24.4409 9.69186 25.5393 9.32184 26.6668 9.33329H34.0002ZM35.6668 6.66663H26.6668C24.9591 6.68796 23.3065 7.274 21.9668 8.33329L18.9002 10.5833C18.8014 10.6566 18.7212 10.7521 18.6662 10.8621C18.6112 10.9722 18.5829 11.0936 18.5835 11.2166V31.95C18.5838 32.2001 18.6519 32.4456 18.7806 32.6601C18.9093 32.8747 19.0938 33.0503 19.3144 33.1683C19.535 33.2863 19.7835 33.3423 20.0334 33.3302C20.2833 33.3182 20.5253 33.2386 20.7335 33.1L22.3002 32.0333C23.4066 31.2826 24.7131 30.8819 26.0502 30.8833H35.6002C35.8831 30.8833 36.1544 30.7709 36.3544 30.5709C36.5545 30.3708 36.6668 30.0995 36.6668 29.8166V7.74996C36.6669 7.46551 36.555 7.19245 36.3555 6.98976C36.1559 6.78707 35.8846 6.671 35.6002 6.66663H35.6668Z" fill="#1F3965"/>
<path d="M13.0169 9.33331C14.2914 9.33912 15.528 9.76696 16.5336 10.55L18.6002 12.2166V29.6C17.0794 28.7245 15.355 28.2647 13.6002 28.2666H6.00024V9.33331H13.0169ZM13.0169 6.66665H5.2169C4.71437 6.67539 4.23538 6.88118 3.88311 7.23968C3.53085 7.59818 3.33349 8.08071 3.33357 8.58332V29.0166C3.33137 29.2662 3.37834 29.5137 3.4718 29.745C3.56526 29.9764 3.70337 30.1871 3.87826 30.3651C4.05315 30.543 4.26138 30.6848 4.49106 30.7823C4.72075 30.8798 4.96739 30.9311 5.2169 30.9333H13.5502C15.0412 30.9358 16.4977 31.3826 17.7336 32.2166L19.0002 33.0833C19.2304 33.2432 19.5033 33.3303 19.7836 33.3333C20.1652 33.3289 20.5298 33.1742 20.7981 32.9028C21.0664 32.6313 21.2169 32.265 21.2169 31.8833V10.8333L18.1669 8.43331C16.6965 7.28443 14.883 6.66232 13.0169 6.66665Z" fill="#1F3965"/>
</svg>
