<svg width="40" height="40" viewBox="0 0 40 40" fill="none" xmlns="http://www.w3.org/2000/svg">
<path d="M16.2384 22.9049C15.3191 23.1836 14.3438 23.3334 13.3335 23.3334C7.81065 23.3334 3.3335 18.8562 3.3335 13.3334C3.3335 11.7896 3.68334 10.3274 4.30807 9.02199L11.5831 16.297L16.2971 11.583L9.02211 4.30794C10.3276 3.68321 11.7897 3.33337 13.3335 3.33337C18.8563 3.33337 23.3335 7.81053 23.3335 13.3334C23.3335 14.8007 23.0175 16.1943 22.4497 17.4496L34.3099 29.3098C35.6117 30.6116 35.6117 32.7221 34.3099 34.0239L33.1906 35.1431C31.8889 36.4449 29.7783 36.4449 28.4766 35.1431L16.2384 22.9049Z" stroke="#1F3965" stroke-width="2" stroke-linecap="square"/>
</svg>
