<svg width="40" height="40" viewBox="0 0 40 40" fill="none" xmlns="http://www.w3.org/2000/svg">
<path fill-rule="evenodd" clip-rule="evenodd" d="M28.2332 6.00016C28.8785 6.00016 29.4975 6.25653 29.9538 6.71287C30.4101 7.16921 30.6665 7.78814 30.6665 8.4335V20.6502C30.6665 21.2955 30.4101 21.9144 29.9538 22.3708C29.4975 22.8271 28.8785 23.0835 28.2332 23.0835H11.7665C11.1211 23.0835 10.5022 22.8271 10.0459 22.3708C9.58954 21.9144 9.33317 21.2955 9.33317 20.6502V8.4335C9.33317 7.78814 9.58954 7.16921 10.0459 6.71287C10.5022 6.25653 11.1211 6.00016 11.7665 6.00016H28.2332ZM28.2332 3.3335H11.7665C10.4139 3.3335 9.11669 3.87082 8.16026 4.82725C7.20382 5.78369 6.6665 7.08089 6.6665 8.4335V20.6502C6.6665 22.0028 7.20382 23.3 8.16026 24.2564C9.11669 25.2128 10.4139 25.7502 11.7665 25.7502H15.1542L12.7435 34.9627C12.557 35.6751 12.9834 36.4037 13.6958 36.5902C14.4082 36.7766 15.1368 36.3502 15.3233 35.6378L16.1836 32.3503H23.8165L24.6768 35.6378C24.8632 36.3502 25.5918 36.7766 26.3042 36.5902C27.0166 36.4037 27.443 35.6751 27.2566 34.9627L24.8458 25.7502H28.2332C29.5858 25.7502 30.883 25.2128 31.8394 24.2564C32.7958 23.3 33.3332 22.0028 33.3332 20.6502V8.4335C33.3332 7.08089 32.7958 5.78369 31.8394 4.82725C30.883 3.87082 29.5858 3.3335 28.2332 3.3335ZM16.8814 29.6836L17.9107 25.7502H22.0893L23.1187 29.6836H16.8814ZM23.8167 19.3169C23.1723 19.3169 22.65 19.8392 22.65 20.4835C22.65 21.1279 23.1723 21.6502 23.8167 21.6502H27.3666C28.011 21.6502 28.5333 21.1279 28.5333 20.4835C28.5333 19.8392 28.011 19.3169 27.3666 19.3169H23.8167Z" fill="#1F3965"/>
</svg>
