<svg width="280" height="286" viewBox="0 0 280 286" fill="none" xmlns="http://www.w3.org/2000/svg">
<g opacity="0.05">
<path fill-rule="evenodd" clip-rule="evenodd" d="M221.059 4.85751C221.04 4.06979 220.829 3.29867 220.445 2.61068C220.06 1.92268 219.515 1.33846 218.854 0.908403C218.194 0.478343 217.439 0.215358 216.655 0.142122C215.87 0.0688858 215.079 0.187601 214.351 0.488028L147.523 29.0697C146.657 29.4406 145.918 30.0567 145.398 30.8422C144.877 31.6277 144.597 32.5482 144.593 33.4906V43.7717C144.594 44.416 144.753 45.0502 145.058 45.6178C145.363 46.1854 145.803 46.6688 146.34 47.025C146.877 47.3812 147.494 47.5991 148.135 47.6594C148.776 47.7196 149.423 47.6202 150.017 47.3701L217.641 18.5572C218.705 18.1061 219.612 17.3506 220.247 16.3857C220.883 15.4207 221.219 14.2894 221.214 13.1339L221.059 4.85751Z" fill="white"/>
<path fill-rule="evenodd" clip-rule="evenodd" d="M132.26 29.07L65.2012 0.436955C64.6134 0.161257 63.9741 0.0123752 63.3249 0C62.4041 0.00462641 61.507 0.291715 60.7546 0.822492C60.0768 1.24065 59.5191 1.82762 59.1362 2.52595C58.7532 3.22429 58.558 4.01009 58.5698 4.80645V12.5173C58.5685 13.7873 58.9406 15.0297 59.6398 16.09C60.339 17.1502 61.3346 17.9815 62.5025 18.4804L130.075 47.3448C130.639 47.5759 131.251 47.6653 131.857 47.6051C132.463 47.545 133.046 47.3371 133.553 46.9998C134.06 46.6624 134.477 46.2059 134.767 45.67C135.057 45.1342 135.211 44.5355 135.216 43.9263V33.4909C135.213 32.5449 134.931 31.6208 134.405 30.8344C133.879 30.048 133.133 29.4342 132.26 29.07Z" fill="white"/>
<path fill-rule="evenodd" clip-rule="evenodd" d="M147.581 58.9131C146.72 59.2716 145.986 59.8791 145.473 60.6577C144.96 61.4362 144.692 62.3503 144.702 63.2826V74.5918C144.722 74.9935 144.836 75.3849 145.035 75.7344C145.234 76.084 145.512 76.382 145.847 76.6045C146.182 76.827 146.564 76.9678 146.964 77.0155C147.363 77.0633 147.768 77.0166 148.146 76.8794L221.194 45.6247L226.026 43.5941L230.832 41.5379L245.74 35.0351C246.871 34.5525 247.833 33.7455 248.506 32.7162C249.178 31.6869 249.531 30.4814 249.518 29.2519V22.5691C249.529 21.7817 249.341 21.0044 248.973 20.3083C248.605 19.6122 248.067 19.0197 247.411 18.5852C246.649 18.0725 245.758 17.7872 244.84 17.7627C244.173 17.7636 243.515 17.9129 242.913 18.1996L230.781 23.3402L225.975 25.3708L221.168 27.427L147.581 58.9131Z" fill="white"/>
<path fill-rule="evenodd" clip-rule="evenodd" d="M132.223 58.9101L58.4559 27.3212L53.6495 25.3164L48.8431 23.2344L36.6599 18.0938C36.063 17.8529 35.4272 17.7222 34.7836 17.7083C34.157 17.7015 33.5352 17.8186 32.9541 18.053C32.3729 18.2873 31.8438 18.6342 31.3971 19.0737C30.9505 19.5132 30.5951 20.0366 30.3514 20.6139C30.1077 21.1912 29.9805 21.811 29.9772 22.4376V29.8915C29.9708 30.902 30.2624 31.892 30.8155 32.7377C31.3687 33.5834 32.1588 34.2474 33.0872 34.6465L48.766 41.3293L53.5724 43.4112L58.4046 45.4674L131.092 76.5165C131.528 76.6992 132 76.774 132.471 76.7346C132.941 76.6953 133.395 76.543 133.793 76.2906C134.192 76.0382 134.524 75.6933 134.761 75.2852C134.998 74.877 135.132 74.4177 135.154 73.9463V63.3053C135.161 62.3635 134.886 61.4411 134.364 60.6575C133.841 59.8739 133.096 59.2651 132.223 58.9101Z" fill="white"/>
<path fill-rule="evenodd" clip-rule="evenodd" d="M278.997 38.6056C279.01 37.8082 278.819 37.0207 278.441 36.3185C278.063 35.6164 277.511 35.0232 276.837 34.5959C276.079 34.0766 275.186 33.7907 274.267 33.7734C273.618 33.7858 272.979 33.9347 272.391 34.2104L259.154 39.8393L254.347 41.9213L249.541 43.9775L230.829 51.9711L226.023 54.0273L221.191 56.1093L147.68 87.5182C146.81 87.8762 146.066 88.4857 145.544 89.2686C145.022 90.0516 144.746 90.9724 144.75 91.9134V139.053C144.764 138.924 144.764 138.795 144.75 138.667V145.838V150.979V208.836C144.738 209.226 144.781 209.615 144.879 209.993V217.189V222.33V280.47C144.86 281.287 145.063 282.093 145.466 282.803C145.869 283.514 146.456 284.102 147.166 284.505C147.849 284.946 148.634 285.202 149.445 285.247C150.257 285.292 151.066 285.125 151.793 284.762L277.429 221.148C278.218 220.747 278.877 220.131 279.332 219.372C279.786 218.612 280.018 217.74 279.999 216.855L278.997 38.6056Z" fill="white"/>
<path fill-rule="evenodd" clip-rule="evenodd" d="M132.242 87.5178L58.3973 55.9033L53.5909 53.847L48.7587 51.8165L29.9956 43.7972L25.1892 41.7152L20.3828 39.659L7.19716 34.0301C6.58537 33.7787 5.93083 33.6478 5.26944 33.6445C4.35429 33.66 3.46257 33.9364 2.69915 34.4413C2.03493 34.8658 1.48868 35.4512 1.11123 36.1432C0.733773 36.8352 0.537355 37.6113 0.540114 38.3996L0.000296022 216.855C-0.00953113 217.738 0.225493 218.606 0.679186 219.364C1.13288 220.122 1.78751 220.739 2.57059 221.147L128.206 284.762C128.942 285.118 129.755 285.285 130.571 285.249C131.388 285.213 132.183 284.975 132.884 284.556C133.589 284.132 134.172 283.532 134.577 282.817C134.983 282.101 135.196 281.292 135.198 280.47V91.913C135.2 90.9691 134.92 90.0461 134.393 89.2628C133.866 88.4795 133.117 87.8718 132.242 87.5178Z" fill="white"/>
<path fill-rule="evenodd" clip-rule="evenodd" d="M110.681 210.987C109.88 211.458 108.968 211.71 108.039 211.715C107.109 211.721 106.195 211.48 105.388 211.018C104.582 210.556 103.912 209.889 103.447 209.085C102.981 208.28 102.737 207.367 102.738 206.437V159.607V112.776C102.738 111.849 102.981 110.938 103.444 110.135C103.906 109.331 104.571 108.663 105.373 108.197C106.174 107.732 107.084 107.484 108.011 107.481C108.938 107.477 109.849 107.716 110.655 108.175L151.24 131.539L191.825 154.903C192.625 155.369 193.289 156.037 193.75 156.84C194.211 157.642 194.454 158.552 194.454 159.478C194.454 160.404 194.211 161.314 193.75 162.117C193.289 162.919 192.625 163.587 191.825 164.053L151.291 187.52L110.681 210.987Z" fill="#1856C2"/>
</g>
</svg>
