<svg width="50" height="50" viewBox="0 0 50 50" fill="none" xmlns="http://www.w3.org/2000/svg">
<circle cx="25" cy="25" r="25" fill="#98C7E2"/>
<path d="M31.3335 13.198H19.6668C19.4541 13.198 19.2501 13.2825 19.0997 13.4329C18.9493 13.5833 18.8647 13.7874 18.8647 14.0001V36.1667H23.9252V30.4355C23.9252 30.1532 24.0373 29.8824 24.237 29.6827C24.4366 29.4831 24.7074 29.3709 24.9897 29.3709H26.0397C26.3221 29.3709 26.5929 29.4831 26.7925 29.6827C26.9922 29.8824 27.1043 30.1532 27.1043 30.4355V36.1667H32.1356V14.0001C32.1356 13.7874 32.0511 13.5833 31.9007 13.4329C31.7502 13.2825 31.5462 13.198 31.3335 13.198ZM25.0627 20.6647C25.0627 20.742 25.0319 20.8162 24.9772 20.8709C24.9225 20.9256 24.8484 20.9563 24.771 20.9563H21.8543C21.777 20.9563 21.7028 20.9256 21.6481 20.8709C21.5934 20.8162 21.5627 20.742 21.5627 20.6647V17.748C21.5627 17.6706 21.5934 17.5965 21.6481 17.5418C21.7028 17.4871 21.777 17.4563 21.8543 17.4563H24.771C24.8484 17.4563 24.9225 17.4871 24.9772 17.5418C25.0319 17.5965 25.0627 17.6706 25.0627 17.748V20.6647ZM29.5689 20.6647C29.5689 20.742 29.5382 20.8162 29.4835 20.8709C29.4288 20.9256 29.3546 20.9563 29.2772 20.9563H26.3606C26.3211 20.9583 26.2816 20.9522 26.2445 20.9385C26.2074 20.9247 26.1735 20.9035 26.1448 20.8762C26.1162 20.849 26.0934 20.8161 26.0778 20.7798C26.0623 20.7434 26.0543 20.7042 26.0543 20.6647V17.748C26.0543 17.7084 26.0623 17.6693 26.0778 17.6329C26.0934 17.5965 26.1162 17.5637 26.1448 17.5364C26.1735 17.5091 26.2074 17.488 26.2445 17.4742C26.2816 17.4604 26.3211 17.4544 26.3606 17.4563H29.2772C29.3546 17.4563 29.4288 17.4871 29.4835 17.5418C29.5382 17.5965 29.5689 17.6706 29.5689 17.748V20.6647Z" fill="white"/>
<path d="M18.2085 11.6812H32.471" stroke="white" stroke-width="1.2" stroke-linecap="round" stroke-linejoin="round"/>
<path d="M11.4998 18.6667C11.3451 18.6667 11.1968 18.7282 11.0874 18.8376C10.978 18.947 10.9165 19.0954 10.9165 19.2501V35.5834C10.9165 35.7381 10.978 35.8865 11.0874 35.9959C11.1968 36.1053 11.3451 36.1667 11.4998 36.1667H17.6686V18.6667H11.4998ZM15.8748 25.7834C15.8749 25.823 15.8669 25.8621 15.8513 25.8985C15.8358 25.9349 15.813 25.9677 15.7843 25.995C15.7557 26.0223 15.7218 26.0434 15.6847 26.0572C15.6476 26.071 15.6081 26.0771 15.5686 26.0751H13.4978C13.419 26.0752 13.3432 26.0449 13.2862 25.9906C13.2292 25.9363 13.1953 25.8621 13.1915 25.7834V23.2167C13.1953 23.1381 13.2292 23.0639 13.2862 23.0096C13.3432 22.9552 13.419 22.925 13.4978 22.9251H15.6123C15.6518 22.9231 15.6913 22.9292 15.7284 22.943C15.7655 22.9567 15.7994 22.9779 15.8281 23.0052C15.8567 23.0325 15.8795 23.0653 15.8951 23.1017C15.9106 23.138 15.9186 23.1772 15.9186 23.2167L15.8748 25.7834Z" fill="white"/>
<path d="M33.4331 18.6667V36.1667H39.6019C39.7566 36.1667 39.9049 36.1053 40.0143 35.9959C40.1237 35.8865 40.1852 35.7381 40.1852 35.5834V19.2501C40.1852 19.0954 40.1237 18.947 40.0143 18.8376C39.9049 18.7282 39.7566 18.6667 39.6019 18.6667H33.4331ZM35.1831 23.2167C35.1831 23.1772 35.1911 23.138 35.2066 23.1017C35.2222 23.0653 35.245 23.0325 35.2736 23.0052C35.3023 22.9779 35.3362 22.9567 35.3733 22.943C35.4103 22.9292 35.4498 22.9231 35.4894 22.9251H37.6039C37.6827 22.925 37.7585 22.9552 37.8155 23.0096C37.8725 23.0639 37.9064 23.1381 37.9102 23.2167V25.7834C37.9064 25.8621 37.8725 25.9363 37.8155 25.9906C37.7585 26.0449 37.6827 26.0752 37.6039 26.0751H35.4894C35.4498 26.0771 35.4103 26.071 35.3733 26.0572C35.3362 26.0434 35.3023 26.0223 35.2736 25.995C35.245 25.9677 35.2222 25.9349 35.2066 25.8985C35.1911 25.8621 35.1831 25.823 35.1831 25.7834V23.2167Z" fill="white"/>
</svg>
