<svg width="50" height="50" viewBox="0 0 50 50" fill="none" xmlns="http://www.w3.org/2000/svg">
<circle cx="25" cy="25" r="25" fill="#85E7BD"/>
<path d="M41.3674 22.2411C41.8507 22.8949 41.843 23.8176 41.2971 24.4676L35.2653 31.6506C34.39 32.693 32.7191 32.4241 32.2149 31.1598L29.5636 24.5108C29.5072 24.3693 29.4102 24.2267 29.2871 24.0931L30.9444 36.6H16.7601L18.3714 24.0637C18.2551 24.1972 18.1642 24.341 18.1129 24.4852L14.4962 34.6423C14.1627 35.5788 13.1332 36.0677 12.1967 35.7342C11.2602 35.4008 10.7713 34.3712 11.1048 33.4347L14.7214 23.2776C15.4252 21.3011 17.5403 19.8 19.6343 19.8H27.936C29.9974 19.8 32.1454 21.2659 32.9076 23.1774L34.4884 27.1419L38.5402 22.1525C39.114 21.4692 40.0875 21.3195 40.8314 21.7583L44.3111 16.6018L44.535 16.32L45.0988 16.7678L44.8749 17.0497L41.3674 22.2411ZM24.2 18.6C26.851 18.6 29 16.451 29 13.8C29 11.149 26.851 9 24.2 9C21.549 9 19.4 11.149 19.4 13.8C19.4 16.451 21.549 18.6 24.2 18.6ZM13.4 36.6V39H35V36.6H13.4Z" fill="white"/>
</svg>
